<?xml version="1.0" standalone="no"?>
<!DOCTYPE svg PUBLIC "-//W3C//DTD SVG 20010904//EN"
 "http://www.w3.org/TR/2001/REC-SVG-20010904/DTD/svg10.dtd">
<svg version="1.0" xmlns="http://www.w3.org/2000/svg"
 width="618.000000pt" height="1380.000000pt" viewBox="0 0 618.000000 1380.000000"
 preserveAspectRatio="xMidYMid meet">

<g transform="translate(0.000000,1380.000000) scale(0.100000,-0.100000)"
fill="#000000" stroke="none">
<path d="M2955 13552 c-39 -25 -58 -47 -87 -102 l-23 -45 -5 -606 -5 -605 -47
-54 c-59 -68 -88 -147 -88 -243 0 -51 -3 -68 -12 -64 -7 2 -13 14 -12 25 0 12
-2 20 -5 17 -2 -3 -17 7 -32 21 -31 30 -98 42 -141 25 -22 -8 -27 -17 -30 -53
l-3 -43 -82 -3 -83 -3 0 -99 0 -100 60 0 60 0 0 -375 c0 -354 -9 -470 -24
-297 -19 222 -26 338 -26 439 0 102 -8 138 -27 119 -10 -9 16 -445 37 -629 11
-95 31 -239 44 -322 14 -90 24 -195 25 -262 l0 -112 -37 -3 -37 -3 -3 -154
c-2 -117 1 -156 10 -163 26 -16 38 -8 38 27 0 22 5 35 13 35 9 0 14 -21 15
-70 2 -69 2 -70 -23 -70 -16 0 -25 -6 -25 -15 0 -13 -27 -15 -185 -15 l-185 0
0 34 c0 32 -2 34 -62 51 -82 23 -224 23 -305 0 -57 -16 -63 -20 -63 -44 0 -51
42 -197 73 -256 29 -53 36 -60 72 -68 48 -10 162 -2 179 12 7 6 21 29 31 51
l18 40 214 0 c183 0 213 -2 213 -15 0 -8 5 -15 10 -15 6 0 10 -9 10 -21 0 -11
5 -17 10 -14 6 4 10 -19 10 -62 0 -37 3 -78 6 -90 6 -22 3 -23 -47 -23 -113 0
-246 -48 -338 -120 -54 -43 -80 -78 -182 -254 -62 -105 -197 -267 -222 -266
-7 1 -46 43 -87 95 -41 52 -77 94 -80 95 -3 0 -56 -41 -118 -91 l-112 -92 37
-46 c20 -25 47 -59 60 -74 26 -33 21 -51 -12 -43 -14 4 -32 -1 -48 -14 -25
-20 -28 -20 -166 -4 -78 9 -156 13 -175 10 -62 -12 -116 -95 -116 -180 0 -66
-14 -89 -63 -104 -104 -33 -280 -142 -275 -170 5 -25 64 -34 205 -30 73 1 133
2 133 1 0 -1 -20 -18 -44 -38 -39 -32 -48 -35 -66 -25 -32 17 -47 -1 -31 -37
12 -27 11 -30 -30 -65 l-42 -36 49 -61 c27 -33 54 -60 60 -60 6 -1 19 8 30 20
32 35 52 42 76 24 37 -25 51 -20 45 18 -6 31 -3 35 209 207 118 96 226 184
239 194 20 16 29 18 49 8 32 -14 45 2 21 28 -19 21 -3 39 19 21 9 -8 29 3 78
44 59 48 67 52 71 34 5 -20 13 -20 296 -17 297 3 301 3 301 -33 0 -5 -18 -9
-40 -9 -52 0 -96 -23 -115 -60 -22 -42 -22 -813 -1 -865 15 -35 59 -65 96 -65
19 0 20 -5 20 -199 0 -110 4 -211 10 -225 7 -20 6 -26 -4 -26 -7 0 -19 7 -26
15 -7 8 -20 15 -29 14 -10 0 -7 -4 9 -11 l25 -11 -32 -8 c-56 -16 -45 -27 26
-27 92 0 130 -13 131 -45 0 -5 -46 -7 -102 -4 -88 4 -99 3 -83 -9 10 -8 27
-14 38 -14 12 0 16 -4 11 -12 -6 -10 -4 -10 7 0 9 8 49 12 126 12 l113 0 0
-25 c0 -14 -4 -25 -10 -25 -6 0 -10 -61 -10 -162 0 -89 3 -158 6 -155 4 3 7
75 7 159 l1 153 5 -133 6 -133 19 33 c17 28 17 31 3 19 -16 -12 -17 -7 -17 78
0 88 1 91 23 91 17 0 28 -11 44 -44 l22 -44 -30 -28 c-47 -45 -33 -51 15 -6
24 22 58 47 74 56 53 27 50 17 -4 -14 -65 -37 -130 -110 -151 -171 -10 -26
-20 -46 -23 -44 -3 2 -4 -221 -2 -496 1 -334 -1 -499 -8 -499 -5 0 -10 -9 -10
-20 0 -11 -4 -20 -9 -20 -5 0 -16 -3 -25 -6 -13 -5 -16 1 -16 25 0 28 3 31 30
31 29 0 30 1 29 48 -1 26 -3 40 -6 31 -3 -13 -46 -17 -294 -27 -159 -7 -300
-17 -314 -22 -22 -8 -24 -13 -22 -77 l2 -68 305 -1 c261 0 305 -2 302 -14 -15
-66 -42 -290 -42 -352 0 -42 -4 -79 -9 -82 -5 -4 -12 -23 -16 -44 -5 -30 -14
-42 -45 -60 -68 -39 -69 -45 -69 -362 0 -293 6 -342 44 -356 12 -5 15 -22 15
-79 0 -59 4 -78 23 -107 13 -19 26 -54 30 -78 5 -40 19 -60 42 -60 6 1 2 5 -7
11 -12 6 -18 22 -18 44 l0 35 61 0 62 0 -7 -31 c-3 -17 -6 -35 -6 -40 0 -4 -8
-10 -17 -12 -14 -4 -13 -5 4 -6 19 -1 23 6 28 46 4 27 8 53 10 58 2 6 4 -291
3 -660 0 -470 4 -671 11 -673 7 -2 11 -42 11 -108 0 -86 -3 -104 -15 -104 -8
0 -15 -7 -15 -15 0 -13 -30 -15 -209 -15 l-210 0 -27 50 c-24 44 -31 50 -58
49 -31 -2 -31 -2 -3 -6 21 -3 33 -16 52 -53 14 -27 25 -60 25 -72 0 -13 6 -46
14 -75 12 -45 12 -52 -1 -57 -20 -8 -302 -7 -331 0 -20 6 -22 11 -16 43 16 93
64 197 97 211 21 10 21 10 -3 7 -20 -2 -32 -15 -58 -67 -32 -65 -63 -176 -65
-239 -1 -31 2 -36 38 -49 53 -21 272 -22 338 -3 44 13 47 16 47 47 l0 34 180
0 c219 0 220 0 220 -108 0 -74 10 -92 50 -92 40 0 50 18 50 92 0 37 3 68 8 68
4 0 6 -84 4 -186 -4 -234 9 -402 39 -480 12 -32 25 -90 28 -129 4 -38 12 -80
19 -92 13 -23 12 -23 -48 -23 -56 0 -60 -2 -59 -22 1 -17 2 -19 6 -5 4 16 40
17 575 17 l570 0 -4 -25 c-3 -14 -1 -25 3 -25 5 0 9 14 9 30 l0 30 -61 0 c-55
0 -60 2 -53 18 4 9 10 46 14 82 4 36 15 83 25 105 39 87 46 144 52 433 l6 282
64 0 c47 0 65 4 69 15 5 13 36 15 190 15 l184 0 0 -34 c0 -31 3 -34 48 -47 66
-20 284 -18 337 3 37 14 40 18 38 49 -4 66 -33 175 -65 239 -26 52 -38 65 -58
67 -25 3 -25 3 -2 -7 44 -19 120 -232 90 -252 -15 -9 -302 -11 -336 -2 -16 5
-21 11 -17 23 4 9 13 47 21 85 19 88 47 143 76 149 21 4 21 4 -3 6 -21 1 -31
-8 -53 -49 l-27 -50 -210 0 c-172 0 -209 2 -209 14 0 8 -14 15 -35 18 -29 3
-35 1 -35 -14 0 -14 -8 -18 -35 -18 l-35 0 0 49 c0 27 7 65 15 84 12 29 15 86
15 282 0 135 -3 245 -7 245 -5 0 -9 -15 -10 -34 -2 -19 -7 -44 -13 -57 -10
-22 -10 -22 -5 5 3 15 6 275 5 577 l0 550 35 46 35 46 0 -291 0 -291 -32 -4
-33 -4 33 -1 32 -2 0 -480 0 -480 30 0 30 0 1 103 2 102 8 -110 c5 -60 11
-147 15 -193 5 -67 9 -82 22 -82 11 0 13 3 6 8 -7 4 -16 78 -23 197 -6 105
-14 214 -17 242 -5 43 -3 54 10 59 23 9 21 69 -4 94 -19 19 -20 32 -18 468 1
246 3 423 5 395 2 -29 9 -53 14 -53 6 0 8 17 3 45 l-6 45 61 0 61 0 1 -47 c1
-39 2 -43 9 -23 4 14 8 38 9 54 1 17 11 40 23 54 19 19 24 37 27 105 3 65 7
84 21 94 37 26 43 77 43 360 -1 306 -3 319 -76 358 -20 11 -37 28 -37 37 0 9
-5 29 -11 45 -6 15 -13 54 -16 86 -4 57 -4 57 24 57 23 0 30 6 39 35 6 19 7
32 2 29 -4 -3 -7 296 -6 664 2 387 -1 668 -6 665 -5 -3 -7 8 -4 26 2 17 2 29
-1 26 -8 -9 -32 56 -24 68 3 5 1 7 -5 3 -5 -3 -20 9 -31 28 -37 60 -119 111
-211 133 l-55 13 47 -5 c27 -2 72 -17 100 -32 71 -38 75 -39 59 -20 -9 11 -10
17 -2 17 6 0 12 -4 12 -10 1 -5 2 -14 3 -18 0 -4 18 -28 39 -52 21 -25 35 -37
32 -27 -9 21 17 24 35 2 14 -17 9 -51 -8 -48 -6 2 -9 -4 -5 -13 5 -13 8 -13
27 -1 21 14 21 17 17 368 -2 289 -6 355 -17 362 -12 7 -14 88 -14 484 0 463 4
533 35 688 4 20 11 20 290 18 l285 -3 0 25 c0 14 3 25 6 25 4 0 32 -21 63 -48
92 -78 91 -78 101 -63 4 8 13 10 20 6 8 -5 7 -12 -5 -25 -22 -24 -11 -44 15
-30 10 5 22 10 27 10 4 0 54 -37 109 -83 56 -45 163 -131 237 -192 132 -107
136 -111 130 -142 -6 -38 8 -43 45 -18 24 18 44 11 76 -24 11 -12 24 -21 30
-21 6 0 33 28 60 61 l48 61 -42 37 c-40 34 -41 37 -29 64 16 36 1 54 -31 37
-18 -10 -27 -7 -66 25 -24 20 -44 37 -44 38 0 1 60 0 133 -1 141 -4 200 5 205
30 6 29 -174 140 -274 169 -49 15 -64 41 -64 116 0 79 -57 159 -121 169 -19 3
-97 -1 -173 -10 -138 -16 -139 -16 -161 4 -16 15 -30 19 -48 15 -44 -11 -38
10 23 86 32 41 56 77 52 81 -23 22 -217 178 -221 178 -3 -1 -40 -43 -81 -95
-41 -52 -79 -94 -83 -95 -14 0 -107 92 -151 151 -24 31 -72 108 -107 171 -76
135 -145 209 -240 255 -76 38 -174 63 -244 63 l-50 0 0 90 c0 72 3 89 14 85
10 -4 12 1 9 19 -3 15 -1 24 6 23 6 -1 10 4 9 11 -2 9 45 12 211 12 l215 0 26
-49 c26 -47 29 -49 81 -56 30 -3 79 -3 109 0 l56 7 35 69 c34 69 64 181 64
244 0 28 -5 35 -32 45 -83 29 -242 29 -345 1 -40 -11 -43 -14 -43 -46 l0 -35
-184 0 c-154 0 -185 2 -190 15 -3 8 -15 15 -26 15 -18 0 -20 6 -20 70 0 40 4
70 10 70 6 0 10 -16 10 -36 0 -31 3 -35 23 -32 22 3 22 5 22 163 l0 160 -32 3
-33 3 0 112 c0 66 8 158 20 224 42 242 74 548 86 837 6 133 5 158 -7 154 -11
-4 -15 -42 -20 -174 -8 -220 -30 -474 -41 -474 -4 0 -8 167 -8 370 0 204 0
373 0 378 0 4 27 8 60 10 l60 3 0 99 0 100 -85 0 -85 0 0 43 c0 37 -4 46 -25
55 -36 17 -96 15 -122 -3 -21 -15 -22 -14 -28 27 -4 24 -5 79 -3 123 1 44 2
167 0 273 -2 163 -4 192 -17 192 -13 0 -15 -29 -17 -187 -2 -104 -2 -233 0
-288 2 -55 -1 -111 -7 -125 -10 -25 -10 -25 -10 6 -1 53 -41 150 -79 195 l-37
43 -6 590 c-5 386 -11 604 -18 628 -18 59 -60 126 -94 150 -27 19 -47 23 -127
26 -80 2 -100 0 -125 -16z m522 -1209 c-2 -16 -4 -5 -4 22 0 28 2 40 4 28 2
-13 2 -35 0 -50z m1 -495 c-2 -363 -3 -401 -8 -213 -5 247 -2 655 5 655 3 0 4
-199 3 -442z m-779 -630 c-1 -222 -5 -392 -9 -378 -12 38 -12 780 0 780 7 0
10 -140 9 -402z m748 -10 c-2 -13 -4 -5 -4 17 -1 22 1 32 4 23 2 -10 2 -28 0
-40z m-807 -148 l0 -100 -35 0 -35 0 0 95 0 95 30 -4 c17 -2 30 1 30 5 0 5 2
9 5 9 3 0 5 -45 5 -100z m916 77 c3 -3 7 -44 10 -91 l4 -86 -40 0 -40 0 0 79
c0 44 3 86 6 94 5 14 47 17 60 4z m-109 -149 c-3 -7 -5 -2 -5 12 0 14 2 19 5
13 2 -7 2 -19 0 -25z m0 -50 c-3 -8 -6 -5 -6 6 -1 11 2 17 5 13 3 -3 4 -12 1
-19z m-750 -170 c-3 -8 -6 -5 -6 6 -1 11 2 17 5 13 3 -3 4 -12 1 -19z m-84 -6
c10 -10 14 -22 11 -25 -4 -4 -6 -45 -5 -92 2 -84 2 -85 -22 -85 -13 0 -33 -10
-44 -22 -18 -20 -21 -36 -22 -115 0 -80 4 -102 29 -164 17 -40 30 -72 30 -73
0 -1 -8 -2 -18 -3 -9 -1 -23 -3 -31 -5 -15 -3 -26 40 -56 212 -10 56 -12 86
-5 88 6 2 8 7 6 11 -3 4 -6 63 -7 133 -3 94 0 130 10 142 19 23 103 22 124 -2z
m1032 4 c19 -13 20 -22 15 -150 -3 -76 -1 -141 4 -146 4 -4 4 -14 0 -22 -5 -7
-7 -20 -6 -28 1 -8 -9 -71 -23 -139 -24 -118 -35 -155 -35 -118 0 11 -8 17
-25 17 -14 0 -25 2 -25 4 0 2 13 35 30 74 26 61 29 81 29 165 0 84 -3 97 -22
115 -12 11 -33 22 -47 24 -23 3 -24 7 -21 47 2 31 -1 41 -9 36 -7 -5 -7 0 2
14 11 17 11 25 0 42 -9 14 -9 19 -2 14 8 -5 10 0 8 12 -5 33 20 53 66 53 23 0
50 -6 61 -14z m-949 -193 c-3 -7 -15 -13 -26 -13 -16 0 -20 6 -20 35 0 19 9
49 20 67 11 18 21 44 22 58 1 14 4 -11 5 -54 2 -44 2 -85 -1 -93z m784 26 c0
-33 -3 -40 -17 -37 -15 3 -18 16 -21 73 l-3 70 21 -33 c11 -19 20 -50 20 -73z
m-1030 30 c0 -6 -4 -7 -10 -4 -5 3 -10 11 -10 16 0 6 5 7 10 4 6 -3 10 -11 10
-16z m1253 -11 c-8 -46 -13 -48 -13 -5 0 21 4 37 10 37 5 0 7 -14 3 -32z
m-192 -84 c9 -8 25 -17 35 -18 26 -4 43 -34 25 -45 -11 -7 -11 -9 0 -14 8 -3
-44 -7 -116 -8 -106 -2 -119 -4 -70 -9 33 -4 53 -8 45 -9 -34 -5 28 -20 88
-20 l62 -1 0 -43 c0 -49 -7 -62 -26 -46 -15 13 -26 -3 -18 -26 5 -13 8 -14 15
-3 7 10 9 10 9 -2 0 -8 -5 -22 -10 -30 -8 -13 -10 -13 -10 2 0 41 -19 22 -42
-42 -14 -38 -22 -68 -19 -65 4 2 13 -1 21 -7 12 -8 11 -9 -3 -4 -14 4 -35 -11
-82 -59 -34 -36 -68 -65 -75 -65 -7 0 -36 22 -65 49 -117 110 -290 109 -403
-4 -47 -47 -54 -51 -75 -40 -25 13 -131 118 -133 132 -4 27 -18 54 -28 50 -6
-3 -20 7 -30 21 -11 14 -14 22 -8 18 7 -4 12 -3 12 3 0 5 -4 13 -10 16 -5 3
-10 13 -10 21 0 27 19 4 26 -31 3 -19 10 -35 15 -35 12 0 12 5 -8 61 -10 27
-24 49 -31 49 -7 0 -10 -4 -7 -10 3 -5 2 -10 -3 -10 -6 0 -12 23 -14 50 l-3
50 65 0 c36 0 72 5 80 10 8 5 11 10 5 11 -5 1 15 5 45 9 42 5 25 7 -72 8 -75
1 -128 6 -128 12 0 5 8 7 18 4 14 -5 15 -4 2 5 -19 13 -22 48 -4 48 17 0 18
-14 2 -19 -7 -3 -4 -7 7 -12 11 -4 16 -4 12 0 -4 4 5 20 19 35 l27 28 425 1
c376 0 427 -1 443 -16z m-1034 -306 c-3 -8 -6 -5 -6 6 -1 11 2 17 5 13 3 -3 4
-12 1 -19z m1057 -13 c-4 -8 -11 -15 -16 -15 -6 0 -5 6 2 15 7 8 14 15 16 15
2 0 1 -7 -2 -15z m-1046 -23 c2 -7 -5 -12 -15 -11 -12 0 -14 2 -4 6 11 5 11 7
0 15 -12 8 -12 9 0 6 8 -3 17 -10 19 -16z m159 -37 c0 -8 -4 -12 -9 -9 -5 3
-6 10 -3 15 9 13 12 11 12 -6z m-147 -5 c0 -5 -11 -10 -25 -10 -14 0 -25 5
-25 10 0 6 11 10 25 10 14 0 25 -4 25 -10z m110 0 c0 -5 -13 -10 -30 -10 -16
0 -30 5 -30 10 0 6 14 10 30 10 17 0 30 -4 30 -10z m980 0 c0 -5 -14 -10 -31
-10 -17 0 -28 4 -24 10 3 6 17 10 31 10 13 0 24 -4 24 -10z m100 0 c0 -5 -11
-10 -25 -10 -14 0 -25 5 -25 10 0 6 11 10 25 10 14 0 25 -4 25 -10z m-505 -37
c22 -9 55 -30 72 -47 31 -28 32 -31 16 -48 -22 -25 -32 -23 -27 7 2 14 0 25
-4 25 -11 0 -7 -179 4 -188 4 -4 4 -1 0 5 -5 9 -2 11 11 6 17 -7 17 -6 0 11
-10 10 -15 21 -12 25 4 3 12 -3 18 -14 17 -31 17 -44 -1 -38 -13 3 -13 1 2
-11 11 -9 16 -16 12 -16 -4 0 -19 9 -33 20 -66 51 -194 63 -283 27 l-56 -23
-2 112 -2 112 35 21 c70 41 169 47 250 14z m495 1 c0 -8 -5 -12 -10 -9 -6 4
-8 11 -5 16 9 14 15 11 15 -7z m-1293 -141 c-2 -27 -3 -5 -3 47 0 52 1 74 3
48 2 -27 2 -69 0 -95z m180 -85 c-1 -40 -3 -10 -3 67 0 77 1 110 3 73 2 -37 2
-100 0 -140z m113 182 c18 -13 26 -26 24 -38 -6 -20 30 -62 51 -62 11 0 15
-12 15 -40 0 -40 15 -55 23 -22 3 9 5 -2 6 -25 0 -24 -1 -43 -4 -43 -3 0 -34
12 -70 26 l-65 26 0 55 c0 30 -5 64 -11 76 -12 23 -44 57 -53 57 -3 0 -7 -60
-9 -132 l-3 -133 -2 138 -2 137 36 0 c20 0 48 -9 64 -20z m868 -117 l-2 -138
-6 135 -6 135 -4 -140 -4 -140 -6 130 c-3 72 -7 124 -8 117 -1 -7 -6 -11 -11
-8 -12 8 -21 -30 -21 -95 0 -36 -5 -59 -12 -62 -7 -3 -37 -14 -65 -26 l-53
-21 1 43 c1 23 3 34 6 25 8 -32 23 -19 23 20 0 32 5 41 25 50 14 6 26 20 27
29 0 10 2 24 2 31 2 22 49 52 84 52 l32 0 -2 -137z m29 -65 c-1 -40 -3 -10 -3
67 0 77 1 110 3 73 2 -37 2 -100 0 -140z m170 150 c-3 -7 -5 -2 -5 12 0 14 2
19 5 13 2 -7 2 -19 0 -25z m-857 18 c0 -2 -8 -10 -17 -17 -16 -13 -17 -12 -4
4 13 16 21 21 21 13z m468 -91 c1 -14 -3 -25 -9 -25 -6 0 -9 7 -5 15 3 8 1 15
-4 15 -6 0 -10 5 -10 10 0 22 26 8 28 -15z m-548 -16 c0 -5 -4 -9 -10 -9 -5 0
-10 7 -10 16 0 8 5 12 10 9 6 -3 10 -10 10 -16z m-63 -104 l58 -24 -1 -118
c-2 -95 -1 -106 5 -56 9 68 42 130 86 159 14 9 22 21 18 27 -3 5 -2 7 4 4 5
-3 29 1 52 9 139 48 297 -11 352 -131 48 -104 0 -223 -115 -283 -43 -22 -64
-27 -131 -27 -67 0 -88 5 -131 27 -53 28 -107 82 -119 118 -6 19 -13 21 -77
19 l-71 -2 2 76 c2 53 -2 85 -13 106 -9 16 -16 53 -16 81 0 58 -6 57 97 15z
m280 29 c-3 -3 -12 -4 -19 -1 -8 3 -5 6 6 6 11 1 17 -2 13 -5z m116 -1 c-7 -2
-19 -2 -25 0 -7 3 -2 5 12 5 14 0 19 -2 13 -5z m333 -60 c-4 -38 -10 -108 -14
-158 -5 -49 -9 -85 -10 -79 -1 6 -24 21 -51 33 -43 18 -49 25 -53 55 -4 35 -3
35 37 38 35 3 40 6 43 30 3 25 0 27 -40 30 -39 3 -43 6 -46 31 -3 25 2 30 60
56 35 16 67 30 71 30 5 1 6 -29 3 -66z m-489 51 c-3 -3 -12 -4 -19 -1 -8 3 -5
6 6 6 11 1 17 -2 13 -5z m-1087 -50 c60 -6 65 -8 65 -30 l0 -24 -151 0 c-150
0 -151 0 -150 23 1 19 8 23 51 28 76 9 114 9 185 3z m2491 0 c70 -6 75 -8 77
-30 l2 -24 -150 0 -150 0 0 24 c0 26 -2 26 121 34 14 1 59 -1 100 -4z m-2445
-70 l52 -6 -14 -52 c-8 -28 -14 -61 -14 -73 0 -13 -12 -47 -27 -78 l-27 -55
-101 0 -101 0 -28 58 c-30 60 -56 142 -56 179 0 18 7 22 38 26 65 7 225 7 278
1z m2511 0 c53 -7 53 -7 47 -38 -10 -62 -27 -112 -55 -168 l-29 -58 -100 0
-100 0 -23 48 c-13 26 -29 80 -36 119 -7 40 -18 76 -24 80 -26 17 215 29 320
17z m-1832 -142 c0 -30 -2 -32 -38 -32 l-39 0 3 43 c3 58 6 60 42 39 25 -14
32 -25 32 -50z m967 11 l4 -43 -51 1 c-27 0 -44 3 -38 6 9 3 10 10 3 23 -7 13
-7 21 2 26 7 5 8 3 3 -6 -5 -8 -4 -11 3 -6 6 4 9 13 6 20 -6 15 46 39 57 27 4
-3 9 -25 11 -48z m-1073 20 c-2 -69 -34 -97 -41 -36 -3 22 1 41 10 49 21 22
32 17 31 -13z m1141 -18 c0 -14 -6 -25 -12 -25 -10 0 -10 -2 0 -9 11 -7 11 -9
-1 -14 -15 -5 -27 29 -27 75 0 16 3 17 20 8 12 -6 20 -21 20 -35z m-286 -20
c3 -8 11 -15 18 -15 9 0 8 3 -2 10 -22 14 1 11 28 -4 22 -12 21 -13 -26 -15
-46 -1 -50 0 -45 19 6 24 19 26 27 5z m-864 -57 c0 -8 -13 -13 -30 -13 -17 0
-30 5 -30 13 0 7 13 12 30 12 17 0 30 -5 30 -12z m130 2 c0 -5 -11 -11 -25
-11 -14 -1 -32 -2 -42 -3 -9 0 -18 5 -20 12 -3 8 9 12 41 12 25 0 46 -4 46
-10z m950 0 c0 -5 -3 -10 -7 -11 -73 -7 -83 -6 -83 7 0 10 13 14 45 14 25 0
45 -4 45 -10z m100 -3 c0 -8 -12 -13 -30 -12 -17 0 -30 5 -30 12 0 8 13 13 30
13 18 0 30 -5 30 -13z m-1200 -31 c0 -2 -7 -6 -15 -10 -8 -3 -15 -1 -15 4 0 6
7 10 15 10 8 0 15 -2 15 -4z m1190 -6 c0 -5 -7 -7 -15 -4 -8 4 -15 8 -15 10 0
2 7 4 15 4 8 0 15 -4 15 -10z m-800 -42 c18 -13 26 -24 19 -28 -11 -7 -32 -83
-20 -76 3 2 15 0 26 -5 15 -6 9 -8 -22 -8 l-43 -1 0 59 0 59 -35 6 c-19 4 -51
4 -70 0 l-35 -6 0 -59 0 -59 -33 0 c-32 0 -33 1 -29 35 5 45 -16 78 -60 92
-27 9 -4 11 120 12 142 1 155 0 182 -21z m683 11 c-44 -13 -67 -50 -60 -94 6
-34 5 -35 -29 -35 l-34 0 0 59 0 59 -40 7 c-22 4 -53 4 -70 0 -29 -6 -30 -8
-30 -66 l0 -59 -42 0 c-34 1 -39 3 -25 11 9 5 21 8 26 5 11 -7 1 46 -12 62 -8
10 -3 20 18 38 27 23 33 24 179 23 112 -1 143 -3 119 -10z m-1083 -29 c-22
-22 -27 -69 -8 -88 8 -8 8 -12 1 -12 -13 0 -23 23 -23 54 0 24 26 66 41 66 5
0 0 -9 -11 -20z m1194 -2 c18 -25 21 -65 7 -87 -6 -10 -8 -1 -4 26 4 33 1 45
-16 62 -11 11 -17 21 -12 21 6 0 17 -10 25 -22z m-1076 -4 c24 -17 30 -65 10
-81 -7 -6 -31 -10 -53 -9 -33 1 -41 5 -43 23 -7 50 71 50 81 1 3 -17 5 -14 6
9 1 26 -4 35 -26 46 -16 8 -34 12 -42 9 -8 -3 -11 0 -7 7 10 16 48 14 74 -5z
m1018 5 c4 -6 -1 -10 -12 -8 -11 2 -30 -1 -42 -5 -21 -7 -23 -13 -20 -47 4
-44 -12 -48 -26 -6 -8 22 -6 31 14 52 24 26 73 34 86 14z m-1125 -41 c-3 -21
-6 -26 -9 -15 -3 17 3 47 11 47 2 0 1 -15 -2 -32z m464 12 c4 -6 -7 -10 -25
-10 -18 0 -29 4 -25 10 3 6 15 10 25 10 10 0 22 -4 25 -10z m280 0 c4 -6 -7
-10 -27 -9 -27 0 -30 2 -13 9 27 12 33 12 40 0z m422 -22 c-3 -7 -5 -2 -5 12
0 14 2 19 5 13 2 -7 2 -19 0 -25z m-29 -20 c4 -20 -39 -39 -61 -26 -22 12 -22
44 1 57 20 11 55 -7 60 -31z m-468 9 c0 -10 10 -22 23 -27 15 -6 -20 -9 -108
-9 -93 0 -125 3 -112 10 9 5 17 18 17 27 0 15 12 17 90 17 80 0 90 -2 90 -18z
m-460 -127 l0 -70 -116 0 -116 0 6 24 c9 36 -13 43 -26 9 -10 -27 -17 -30 -82
-40 -95 -13 -186 -55 -234 -107 -21 -22 -62 -84 -92 -136 -113 -200 -168 -266
-334 -402 -61 -50 -118 -97 -127 -105 -15 -12 -22 -7 -62 43 l-45 56 62 52
c33 28 79 65 101 81 70 52 135 118 188 190 28 39 55 73 60 76 5 3 7 9 5 12 -1
3 23 50 55 105 68 117 131 181 221 223 97 46 171 57 364 58 l172 1 0 -70z
m366 53 c13 -17 13 -17 14 0 0 15 12 17 110 17 l110 0 0 -70 0 -70 -110 0
c-98 0 -110 2 -110 18 -1 16 -1 16 -14 0 -11 -15 -30 -18 -119 -18 l-106 0 -6
33 c-4 27 -4 51 4 100 0 4 49 7 107 7 90 0 109 -3 120 -17z m780 2 c157 -33
260 -111 349 -262 31 -54 58 -103 59 -108 3 -21 101 -141 161 -200 34 -33 105
-94 158 -136 l96 -76 -51 -64 c-28 -35 -53 -66 -54 -68 -2 -2 -7 -1 -11 3 -4
4 -2 11 5 15 9 5 -17 32 -85 87 -194 156 -251 221 -358 409 -37 66 -86 139
-108 162 -49 52 -139 93 -233 106 -65 10 -72 13 -82 40 -13 34 -35 27 -26 -9
l6 -24 -115 0 -114 0 -6 38 c-3 20 -4 48 -2 62 2 14 4 28 4 32 2 14 333 8 407
-7z m-1045 -5 c17 -9 19 -22 19 -103 0 -101 -7 -117 -51 -117 -42 0 -51 20
-51 116 -1 73 2 89 17 101 22 16 40 17 66 3z m602 -3 c15 -10 17 -26 14 -107
-2 -62 -6 -88 -11 -73 -9 25 -29 35 -51 26 -25 -9 -13 -38 15 -39 36 0 40 -19
5 -22 -54 -4 -60 7 -58 110 2 75 6 95 20 105 22 16 44 16 66 0z m-978 -154
c-3 -14 -22 -69 -42 -120 -26 -68 -43 -98 -62 -109 -32 -20 -109 -112 -134
-160 -14 -27 -32 -42 -73 -60 -89 -39 -298 -70 -248 -36 27 18 106 129 167
233 73 127 122 188 130 167 4 -10 8 -10 16 2 9 13 11 12 11 -4 0 -14 3 -16 13
-7 8 6 17 8 20 4 4 -3 7 -2 7 3 0 5 11 9 24 9 13 0 22 -3 20 -7 -2 -4 1 -10 7
-14 8 -5 9 -3 4 6 -6 10 -4 12 8 7 20 -8 22 0 4 17 -7 8 -24 13 -38 14 -13 0
-37 0 -54 1 l-30 1 30 18 c35 21 116 49 160 55 68 9 68 9 60 -20z m275 -1 c0
-43 26 -72 63 -72 45 0 59 12 66 56 4 26 12 40 24 42 15 3 17 -5 17 -61 l0
-64 -147 -6 c-148 -5 -223 -21 -307 -64 -34 -17 -35 -27 15 110 l32 87 118 0
119 0 0 -28z m266 -2 c2 0 4 -52 4 -116 l0 -115 -30 18 c-26 15 -30 23 -30 60
0 23 -4 45 -10 48 -5 3 -10 35 -10 71 l0 64 36 -15 c20 -8 38 -15 40 -15z m62
11 c36 -19 38 -19 72 0 39 20 60 24 60 9 0 -16 -57 -40 -95 -40 -36 0 -95 26
-95 42 0 13 18 9 58 -11z m72 14 c0 -2 -8 -9 -19 -14 -13 -7 -24 -6 -37 4 -18
13 -16 14 19 15 20 0 37 -2 37 -5z m613 -94 c20 -55 37 -102 37 -105 0 -3 -25
6 -55 19 -30 14 -94 32 -142 41 -125 22 -126 23 -143 34 -13 9 -13 12 3 21 9
6 17 22 17 37 0 46 15 52 135 52 l111 0 37 -99z m155 68 c58 -20 121 -62 150
-100 10 -13 48 -76 85 -139 72 -126 97 -162 152 -221 42 -46 40 -46 -88 -24
-128 22 -191 53 -218 107 -12 24 -53 75 -92 113 -64 64 -73 79 -109 172 -21
56 -38 107 -38 113 0 14 88 3 158 -21z m-620 -37 c2 -30 -2 -59 -7 -66 -6 -7
-9 -27 -7 -45 4 -33 -8 -52 -45 -71 -18 -10 -19 -6 -19 103 0 108 1 114 23
125 41 20 52 11 55 -46z m62 -29 c45 -2 45 -4 11 -18 -48 -22 -51 -20 -50 33
1 40 2 42 8 17 5 -23 12 -30 31 -32z m-1165 -429 c-3 -20 -6 -64 -6 -99 l0
-63 -112 -6 c-62 -3 -173 -8 -247 -11 l-135 -6 30 26 c147 129 134 122 233
135 99 13 178 31 208 48 31 18 37 14 29 -24z m1920 9 c22 -8 89 -22 150 -30
120 -18 104 -9 250 -138 l30 -26 -115 5 c-63 3 -151 7 -195 7 l-80 2 -5 71 -5
71 -45 3 c-46 3 -60 14 -60 46 0 13 4 16 18 11 9 -4 35 -14 57 -22z m25 -107
l0 -64 -40 2 c-52 3 -58 11 -32 39 l22 24 -20 18 c-33 30 -25 45 25 45 l45 0
0 -64z m-1872 -221 c22 -71 50 -188 62 -260 39 -235 139 -777 170 -925 17 -80
36 -172 41 -205 6 -33 17 -82 24 -110 28 -104 29 -115 5 -115 -25 0 -47 47
-89 193 -38 135 -58 219 -81 352 -10 61 -26 148 -34 195 -8 47 -22 128 -30
180 -8 52 -33 203 -55 335 -51 306 -71 445 -76 520 l-5 60 14 -45 c8 -25 32
-103 54 -175z m1768 148 c-7 -73 -35 -256 -93 -603 -19 -118 -46 -280 -59
-360 -37 -228 -59 -342 -64 -337 -3 3 -6 -14 -7 -36 -3 -50 -73 -313 -102
-379 -15 -35 -26 -48 -41 -48 -24 0 -24 0 -5 70 9 30 22 93 30 140 8 47 26
137 40 200 28 131 104 534 164 875 23 128 57 281 77 345 20 63 41 134 47 158
7 23 13 42 16 42 2 0 1 -30 -3 -67z m-2816 27 c100 -11 187 -23 191 -26 12 -7
11 -31 -1 -39 -5 -3 -93 4 -196 16 -151 17 -190 19 -209 9 -22 -12 -45 -49
-45 -73 1 -7 7 2 15 20 21 50 39 54 164 41 61 -6 111 -14 111 -18 0 -11 -234
-160 -250 -160 -20 0 -39 32 -41 70 -2 33 -2 33 -6 6 -3 -16 1 -40 8 -53 15
-29 12 -33 -37 -36 -31 -1 -38 1 -35 13 2 8 7 44 11 80 11 108 46 152 131 169
3 0 88 -8 189 -19z m4057 -5 c34 -23 55 -72 63 -145 4 -36 9 -72 11 -80 3 -12
-4 -14 -35 -13 -48 3 -54 8 -38 33 16 27 15 72 -4 118 -26 66 -37 67 -249 42
-189 -22 -215 -20 -202 14 4 9 26 17 59 21 29 3 105 12 168 20 128 15 192 12
227 -10z m-52 -45 c66 -25 73 -195 8 -178 -10 3 -72 40 -138 84 l-120 79 100
11 c55 6 105 12 112 13 6 0 23 -3 38 -9z m-3225 -75 c0 -25 -4 -45 -9 -45 -5
0 -8 19 -6 43 5 51 4 47 10 47 3 0 5 -20 5 -45z m185 0 c0 -29 -4 -45 -12 -45
-8 0 -13 14 -13 39 0 22 5 42 13 44 6 3 12 6 12 6 0 1 0 -19 0 -44z m1885 -5
c0 -24 -5 -40 -15 -44 -17 -6 -19 11 -9 63 9 41 24 29 24 -19z m-2420 24 c0
-8 -4 -12 -10 -9 -5 3 -10 10 -10 16 0 5 5 9 10 9 6 0 10 -7 10 -16z m60 -19
c0 -31 -3 -35 -25 -35 -22 0 -25 4 -25 35 0 31 3 35 25 35 22 0 25 -4 25 -35z
m25 -5 c0 -22 -3 -40 -7 -40 -5 0 -8 18 -8 40 0 22 3 40 8 40 4 0 7 -18 7 -40z
m63 9 c3 -22 -2 -27 -22 -31 -24 -5 -26 -2 -26 29 0 30 3 34 23 31 15 -2 23
-11 25 -29z m19 -31 c-2 -13 -4 -3 -4 22 0 25 2 35 4 23 2 -13 2 -33 0 -45z
m71 30 c3 -25 0 -28 -27 -28 -26 0 -31 4 -31 23 0 30 9 39 35 35 13 -2 21 -12
23 -30z m19 -30 c-2 -13 -4 -3 -4 22 0 25 2 35 4 23 2 -13 2 -33 0 -45z m63
32 c0 -25 -4 -30 -25 -30 -20 0 -25 5 -25 23 0 28 7 37 32 37 13 0 18 -8 18
-30z m90 5 c0 -20 -5 -25 -25 -25 -20 0 -25 5 -25 25 0 20 5 25 25 25 20 0 25
-5 25 -25z m22 -15 c2 -22 0 -40 -4 -40 -5 0 -8 18 -8 40 0 22 2 40 4 40 2 0
6 -18 8 -40z m66 13 c3 -19 -1 -23 -22 -23 -21 0 -26 5 -26 26 0 21 4 25 23
22 14 -2 23 -11 25 -25z m1982 2 c0 -20 -5 -25 -25 -25 -20 0 -25 5 -25 25 0
20 5 25 25 25 20 0 25 -5 25 -25z m30 -15 c0 -22 -4 -40 -10 -40 -5 0 -9 18
-8 40 1 22 5 40 10 40 4 0 8 -18 8 -40z m60 15 c0 -20 -5 -25 -25 -25 -20 0
-25 5 -25 25 0 20 5 25 25 25 20 0 25 -5 25 -25z m17 -37 c-2 -13 -4 -3 -4 22
0 25 2 35 4 23 2 -13 2 -33 0 -45z m68 32 c0 -18 -6 -26 -23 -28 -13 -2 -25 3
-28 12 -10 26 4 48 28 44 17 -2 23 -10 23 -28z m22 -32 c-2 -13 -4 -3 -4 22 0
25 2 35 4 23 2 -13 2 -33 0 -45z m71 30 c3 -25 0 -28 -27 -28 -26 0 -31 4 -31
23 0 30 9 39 35 35 13 -2 21 -12 23 -30z m19 -30 c-2 -13 -4 -3 -4 22 0 25 2
35 4 23 2 -13 2 -33 0 -45z m63 32 c0 -25 -4 -30 -25 -30 -21 0 -25 5 -25 30
0 25 4 30 25 30 21 0 25 -5 25 -30z m28 -10 c0 -22 -5 -40 -10 -40 -5 0 -8 18
-6 40 1 22 5 40 9 40 4 0 7 -18 7 -40z m62 5 c0 -31 -3 -35 -25 -35 -22 0 -25
4 -25 35 0 31 3 35 25 35 22 0 25 -4 25 -35z m17 -27 c-2 -13 -4 -3 -4 22 0
25 2 35 4 23 2 -13 2 -33 0 -45z m-3317 19 c0 -18 -97 -71 -104 -58 -5 7 60
51 102 70 1 0 2 -5 2 -12z m3859 -79 c31 -19 39 -28 25 -28 -10 0 -28 -3 -39
-5 -13 -4 -31 4 -50 21 l-30 26 39 -21 c21 -12 40 -20 43 -17 2 2 -30 23 -71
47 -42 24 -76 49 -76 56 0 12 69 -21 159 -79z m-3479 47 c0 -8 -2 -15 -4 -15
-2 0 -6 7 -10 15 -3 8 -1 15 4 15 6 0 10 -7 10 -15z m-485 -36 c4 -6 13 -8 21
-5 22 9 16 -1 -15 -23 -24 -17 -36 -20 -68 -13 l-38 8 40 22 c47 25 52 26 60
11z m-199 -64 c-4 -12 6 -15 59 -15 36 0 65 -4 65 -10 0 -5 7 -7 15 -4 8 4 15
1 15 -5 0 -6 16 -11 35 -11 20 0 58 -11 85 -25 27 -14 57 -22 67 -19 15 5 16
4 3 -5 -38 -27 -220 -63 -415 -81 -181 -17 -333 -11 -319 11 3 5 10 7 15 4 8
-6 99 42 99 52 0 2 -5 1 -12 -3 -7 -4 -8 -3 -4 4 4 7 18 12 32 12 29 0 76 28
68 41 -3 5 5 10 18 10 30 2 54 6 108 17 41 9 42 10 13 11 -48 1 -40 19 10 24
23 2 44 4 46 5 2 1 1 -5 -3 -13z m4378 -4 c7 -10 -49 -9 -60 2 -4 4 7 7 24 7
17 0 33 -4 36 -9z m1 -25 c48 -6 67 -10 80 -17 6 -3 20 -4 32 -3 12 0 20 -3
17 -7 -3 -5 0 -9 6 -9 6 0 9 -4 5 -9 -6 -10 32 -26 53 -23 6 2 12 -5 12 -15 0
-15 2 -16 10 -3 6 9 10 10 10 3 0 -6 9 -15 20 -18 11 -4 18 -11 15 -16 -4 -5
2 -10 12 -11 10 0 23 -2 28 -3 6 -2 15 -4 20 -5 28 -6 -50 -18 -120 -19 -194
-2 -494 39 -597 82 -34 15 -15 28 24 17 16 -5 26 -5 23 0 -7 12 55 40 80 36
11 -2 28 3 37 12 21 18 122 31 163 20 17 -4 48 -9 70 -12z m-2134 -68 c42 -23
79 -82 79 -125 0 -16 -10 -49 -22 -73 -59 -114 -237 -113 -296 3 -74 143 90
276 239 195z m-973 -43 c2 -21 0 -26 -7 -16 -5 8 -7 21 -3 29 3 9 1 13 -4 10
-5 -3 -18 -2 -29 3 -16 7 -15 8 10 6 25 -2 30 -7 33 -32z m-59 -27 c1 23 25
30 37 10 5 -8 2 -9 -9 -5 -12 4 -17 1 -17 -10 0 -12 7 -14 29 -10 l28 6 23
-147 c13 -81 29 -165 36 -187 8 -22 14 -43 14 -47 0 -5 -38 -8 -85 -8 l-85 0
0 168 c0 92 3 192 7 222 7 53 8 54 14 20 4 -22 7 -27 8 -12z m-1404 -218 c-22
-25 -9 -26 19 -2 21 17 21 17 2 -5 -20 -24 -10 -32 14 -10 8 6 7 3 -3 -9 -9
-11 -15 -23 -12 -26 3 -3 -5 -13 -17 -24 l-23 -19 19 23 c20 23 10 31 -14 10
-12 -11 -12 -10 -1 5 15 20 2 23 -19 5 -8 -7 -6 -3 4 10 11 12 15 22 11 22 -4
0 0 9 10 20 10 11 20 20 23 20 3 0 -3 -9 -13 -20z m4710 -18 c-3 -3 3 -15 12
-26 10 -12 11 -15 3 -8 -21 18 -34 15 -19 -5 11 -15 11 -16 -1 -5 -24 21 -34
13 -14 -10 l19 -23 -23 19 c-12 11 -20 21 -17 24 3 3 -3 15 -12 26 -10 12 -11
15 -3 9 24 -22 34 -14 14 10 -19 22 -19 22 2 5 29 -25 41 -22 18 5 l-19 22 23
-19 c12 -11 20 -21 17 -24z m-4750 -1 c3 -5 2 -12 -3 -15 -5 -3 -9 1 -9 9 0
17 3 19 12 6z m92 -26 c0 -8 -4 -12 -9 -9 -5 3 -6 10 -3 15 9 13 12 11 12 -6z
m1373 -197 c-26 -50 -53 -65 -46 -25 3 12 5 33 5 47 1 21 6 25 34 25 l32 0
-25 -47z m124 35 c3 -10 3 -38 0 -63 -2 -25 -7 -93 -10 -152 -5 -83 -9 -108
-20 -108 -11 0 -14 32 -14 170 0 161 1 170 19 170 11 0 22 -8 25 -17z m1606
-60 c0 -36 -3 -64 -6 -60 -11 11 -15 127 -4 127 6 0 10 -28 10 -67z m-1750
-93 c0 -65 -17 -65 -22 0 -2 35 1 50 10 50 8 0 12 -17 12 -50z m126 -270 c1
-62 -1 -80 -12 -80 -11 0 -14 18 -14 80 0 57 4 80 13 80 8 0 12 -24 13 -80z
m78 29 c4 -29 10 -65 13 -80 4 -22 2 -29 -10 -29 -19 0 -27 30 -27 103 0 71
15 75 24 6z m1495 -11 c-1 -100 -17 -118 -18 -20 -1 48 3 82 9 82 6 0 10 -27
9 -62z m-43 -166 c-12 -11 -17 7 -9 34 l8 29 3 -28 c2 -16 1 -31 -2 -35z
m-1522 32 c11 -29 6 -44 -14 -44 -16 0 -20 7 -20 30 0 32 23 42 34 14z m86
-14 c0 -32 -14 -40 -24 -14 -10 27 -7 44 9 44 10 0 15 -10 15 -30z m1467 8
c-3 -8 -6 -5 -6 6 -1 11 2 17 5 13 3 -3 4 -12 1 -19z m137 -3 c4 -12 -4 -15
-44 -15 -47 0 -60 7 -43 23 13 14 81 7 87 -8z m-134 -121 c0 -37 -36 -84 -63
-84 -25 0 -40 26 -25 41 7 8 15 30 16 49 2 19 8 46 15 58 l11 24 23 -27 c15
-16 23 -39 23 -61z m134 72 c-10 -27 -78 -26 -88 0 -4 11 6 14 44 14 39 0 48
-3 44 -14z m-1605 -54 c-1 -42 -2 -44 -9 -17 -11 45 -11 77 0 70 6 -3 9 -27 9
-53z m-75 21 c8 -45 15 -109 9 -90 -2 10 -16 22 -29 27 -20 8 -24 16 -24 50 0
33 3 40 19 40 13 0 21 -9 25 -27z m130 -75 c5 -24 3 -28 -14 -28 -18 0 -20 6
-19 68 l1 67 12 -40 c7 -22 16 -52 20 -67z m1504 -180 c1 -155 -1 -258 -7
-258 -41 0 -41 2 -41 267 l0 254 23 -3 22 -3 3 -257z m-1661 150 c-3 -8 -6 -5
-6 6 -1 11 2 17 5 13 3 -3 4 -12 1 -19z m170 -24 c-3 -3 -12 -4 -19 -1 -8 3
-5 6 6 6 11 1 17 -2 13 -5z m1303 -49 c0 -14 -4 -25 -9 -25 -4 0 -6 11 -3 25
2 14 6 25 8 25 2 0 4 -11 4 -25z m-1300 -82 c-1 -39 -10 -33 -24 15 -6 16 -3
22 8 22 12 0 16 -10 16 -37z m51 -14 l18 -46 -30 1 c-28 1 -29 3 -29 49 0 60
16 58 41 -4z m1249 11 c0 -58 -34 -120 -65 -120 -31 0 -31 4 -2 71 13 30 27
62 30 72 4 9 13 17 22 17 11 0 15 -11 15 -40z m-1331 -112 c1 -5 -3 -8 -9 -8
-5 0 -10 12 -9 28 0 24 1 25 9 7 5 -11 9 -23 9 -27z m115 26 c10 -27 7 -34
-19 -34 -21 0 -45 24 -45 44 0 14 58 5 64 -10z m29 -64 c3 -14 -1 -24 -15 -31
-22 -12 -21 -12 -37 18 -16 31 -14 33 18 33 20 0 30 -6 34 -20z m1400 -117
c-7 -2 -19 -2 -25 0 -7 3 -2 5 12 5 14 0 19 -2 13 -5z m-552 -120 c0 -5 2 -16
4 -25 5 -26 -12 -32 -24 -9 -6 11 -11 24 -11 30 0 12 30 15 31 4z m-281 -28
c6 -8 8 -20 4 -26 -5 -8 -3 -9 5 -5 7 5 10 14 7 22 -3 9 2 14 14 14 20 0 27
-25 12 -46 -10 -15 -89 -5 -96 12 -14 37 28 60 54 29z m-162 -13 c2 -7 -6 -12
-17 -12 -21 0 -27 11 -14 24 9 9 26 2 31 -12z m96 -4 c7 -28 -11 -49 -24 -28
-14 22 -12 50 4 50 7 0 16 -10 20 -22z m203 6 c2 -6 -3 -11 -12 -11 -8 0 -15
7 -15 15 0 15 22 12 27 -4z m-287 -55 c0 -11 -28 -19 -45 -13 -25 10 -17 20
15 20 17 0 30 -3 30 -7z m289 1 c15 7 21 2 35 -27 9 -19 16 -36 14 -37 -2 -1
-24 12 -50 30 -27 18 -42 34 -35 37 6 2 13 0 15 -4 2 -5 12 -5 21 1z m-329
-24 c0 -3 -4 -8 -10 -11 -5 -3 -10 -1 -10 4 0 6 5 11 10 11 6 0 10 -2 10 -4z
m-1115 -956 c1 -22 -2 -40 -6 -40 -5 0 -9 21 -9 47 0 56 12 50 15 -7z m90 5
c0 -25 -3 -45 -7 -45 -10 0 -11 74 -1 83 3 4 7 7 7 7 1 0 1 -20 1 -45z m171
-43 c-11 -10 -13 3 -7 48 l6 45 3 -44 c2 -23 1 -46 -2 -49z m89 43 c0 -25 -3
-45 -7 -45 -5 0 -8 20 -8 45 0 25 3 45 8 45 4 0 7 -20 7 -45z m96 18 c0 -16 2
-36 4 -45 2 -10 -3 -18 -11 -18 -10 0 -14 13 -14 45 0 48 19 64 21 18z m-534
-45 c-2 -13 -4 -3 -4 22 0 25 2 35 4 23 2 -13 2 -33 0 -45z m63 27 c0 -31 -3
-35 -25 -35 -22 0 -25 4 -25 35 0 31 3 35 25 35 22 0 25 -4 25 -35z m90 5 c0
-25 -4 -30 -25 -30 -21 0 -25 5 -25 30 0 25 4 30 25 30 21 0 25 -5 25 -30z
m88 -2 c3 -25 0 -28 -27 -28 -26 0 -31 4 -31 23 0 30 9 39 35 35 13 -2 21 -12
23 -30z m19 -30 c-2 -13 -4 -3 -4 22 0 25 2 35 4 23 2 -13 2 -33 0 -45z m63
32 c0 -25 -4 -30 -25 -30 -21 0 -25 5 -25 30 0 25 4 30 25 30 21 0 25 -5 25
-30z m90 5 c0 -20 -5 -25 -25 -25 -20 0 -25 5 -25 25 0 20 5 25 25 25 20 0 25
-5 25 -25z m90 0 c0 -20 -5 -25 -25 -25 -20 0 -25 5 -25 25 0 20 5 25 25 25
20 0 25 -5 25 -25z m1730 -385 c0 -5 -11 -10 -25 -10 -14 0 -25 5 -25 10 0 6
11 10 25 10 14 0 25 -4 25 -10z m-1739 -296 c-36 -46 -20 -98 40 -129 22 -12
29 -22 29 -46 0 -27 -3 -30 -22 -23 -42 12 -76 33 -96 58 -11 14 -21 23 -24
21 -2 -3 -3 18 -1 45 3 57 24 94 62 115 22 11 26 11 29 -1 2 -8 -6 -26 -17
-40z m1793 1 c50 -75 2 -169 -101 -200 -20 -6 -23 -3 -23 23 0 24 7 34 35 51
45 26 62 62 49 99 -6 15 -15 26 -20 25 -5 -1 -11 12 -12 28 -2 30 -2 30 26 15
16 -8 37 -27 46 -41z m-91 5 c-3 -12 -8 -19 -11 -16 -5 6 5 36 12 36 2 0 2 -9
-1 -20z m-1656 -22 c-3 -7 -5 -2 -5 12 0 14 2 19 5 13 2 -7 2 -19 0 -25z
m1682 -74 c-7 -8 -20 -19 -30 -24 -14 -8 -16 -6 -14 8 2 9 4 22 4 29 1 6 10
10 21 8 16 -3 20 2 21 23 l2 27 4 -28 c3 -16 -1 -35 -8 -43z m-1710 23 c2 21
29 3 36 -24 8 -34 3 -37 -28 -12 -18 13 -27 29 -26 47 l1 27 8 -25 c4 -14 8
-20 9 -13z m16 -159 c39 -19 68 -58 44 -58 -25 0 -102 46 -124 74 -32 40 -32
30 0 -26 32 -57 62 -84 110 -101 22 -8 41 -21 43 -30 10 -48 -121 13 -161 75
-22 34 -27 52 -25 94 l2 52 34 -29 c19 -17 54 -40 77 -51z m1783 30 c4 -89
-58 -162 -156 -183 -29 -6 -33 -4 -30 11 1 9 17 22 33 27 48 15 91 53 119 103
33 58 33 63 1 26 -24 -29 -98 -72 -122 -72 -26 0 2 39 43 58 25 12 42 27 39
32 -3 5 0 7 7 5 8 -3 25 6 38 20 13 14 24 25 25 25 0 0 2 -23 3 -52z m-1784
-84 c16 -6 23 -34 9 -34 -11 1 -43 26 -43 34 0 8 14 8 34 0z m1706 0 c0 -8
-32 -33 -42 -34 -13 0 -9 28 5 33 18 8 37 8 37 1z m-1770 -78 c18 -35 73 -73
120 -82 62 -12 70 -50 9 -40 -101 16 -179 89 -179 167 l0 32 18 -24 c10 -13
24 -37 32 -53z m1846 9 c-15 -58 -95 -118 -175 -131 -62 -10 -52 28 10 40 67
12 107 50 156 146 10 20 17 -23 9 -55z m-1723 35 c5 -21 -1 -25 -18 -12 -16
11 -16 32 -1 32 7 0 16 -9 19 -20z m1585 8 c-3 -13 -18 -28 -30 -28 -3 0 -4 9
-1 20 6 21 35 29 31 8z m-1575 -92 c9 -3 17 -12 17 -20 0 -27 -101 9 -120 43
-9 19 -9 19 38 1 26 -11 55 -21 65 -24z m1637 25 c0 -15 -27 -32 -74 -46 -39
-12 -44 -12 -42 2 1 8 25 23 52 33 61 21 64 22 64 11z m-1780 -66 c0 -20 74
-81 114 -95 21 -7 48 -10 62 -7 22 4 53 -17 42 -28 -11 -12 -77 -11 -116 0
-84 26 -142 90 -142 157 l1 33 19 -24 c11 -13 20 -29 20 -36z m1843 -38 c-38
-64 -146 -113 -218 -99 -43 8 -22 27 38 34 64 8 127 45 148 86 7 15 20 38 29
52 l15 24 3 -32 c2 -19 -4 -46 -15 -65z m-1704 -14 c52 -6 74 -27 40 -38 -25
-8 -86 12 -121 39 -36 28 -35 38 1 20 16 -8 52 -17 80 -21z m1640 20 c-32 -42
-101 -70 -139 -58 -33 11 -11 32 40 38 27 3 62 13 77 21 36 20 38 19 22 -1z
m-1779 -65 c41 -77 136 -119 212 -93 32 11 38 10 43 -3 9 -25 -11 -35 -75 -40
-50 -4 -69 0 -112 22 -66 32 -108 88 -108 143 0 42 5 39 40 -29z m1836 -46
c-32 -51 -111 -92 -177 -92 -53 0 -99 16 -99 35 0 21 11 23 46 9 50 -21 127
-3 172 39 13 12 35 44 50 71 l27 50 3 -36 c2 -26 -4 -49 -22 -76z m-1686 -12
l45 -8 -50 -1 c-34 -1 -60 5 -82 19 -44 26 -42 33 5 13 20 -8 57 -19 82 -23z
m1640 35 c0 -17 -71 -45 -115 -46 -40 -1 -45 -3 -25 -9 22 -7 22 -8 4 -9 -11
-1 -28 5 -37 12 -15 10 -11 12 29 15 37 2 72 12 142 41 1 1 2 -1 2 -4z m-1702
-114 c54 -18 55 -32 0 -20 -47 11 -88 38 -112 73 -28 44 -18 44 27 2 23 -23
61 -48 85 -55z m1755 51 c-31 -42 -67 -63 -114 -68 l-44 -4 43 16 c24 9 62 35
85 58 44 43 63 42 30 -2z m-1633 13 c-7 -8 -24 -14 -39 -14 l-26 2 25 4 c14 3
29 9 35 14 15 15 19 10 5 -6z m72 -67 c8 -7 27 -29 42 -49 l26 -36 0 -531 c0
-368 -3 -532 -11 -532 -5 0 -7 5 -4 10 3 6 1 10 -4 10 -8 0 -11 -79 -11 -244
0 -194 3 -251 15 -279 11 -27 15 -76 15 -187 l0 -150 -35 0 -35 0 0 95 0 95
33 2 32 1 -32 4 -33 4 -2 562 -3 562 -2 -492 c-2 -317 -7 -493 -13 -493 -7 0
-10 177 -10 501 0 441 2 500 15 495 12 -4 15 3 15 29 0 32 2 35 33 37 l32 1
-33 4 -34 4 4 110 c1 60 0 109 -4 109 -5 0 -8 -49 -8 -110 0 -67 -4 -110 -10
-110 -6 0 -10 105 -10 295 0 162 4 295 8 295 5 0 15 -6 24 -12z m-177 -42 c15
-14 65 -10 65 5 0 12 27 11 35 0 11 -18 -66 -32 -107 -19 -20 6 -35 15 -32 19
8 13 24 11 39 -5z m1552 -1 c15 -16 54 -11 61 6 5 12 29 11 37 0 3 -6 -11 -15
-32 -20 -41 -12 -118 2 -108 19 9 14 24 12 42 -5z m-1611 -14 c-3 -3 3 -7 12
-8 9 -1 35 -5 57 -8 28 -5 53 -2 78 8 l37 16 0 -68 c0 -62 -2 -70 -25 -85 -28
-18 -93 -21 -128 -5 -14 6 -30 22 -36 36 -14 29 -14 43 -1 23 6 -9 10 -10 10
-3 0 6 -4 15 -10 18 -14 9 -12 45 2 45 9 0 9 3 0 12 -15 15 -16 42 -2 33 6 -4
8 -10 6 -14z m1636 -21 c19 0 50 8 69 18 l36 18 -2 -25 c-2 -15 -6 -35 -10
-45 -6 -14 -5 -17 4 -11 10 6 11 3 1 -15 -8 -15 -8 -20 -1 -16 15 9 13 -5 -2
-25 -41 -54 -169 -49 -191 6 -9 25 -7 47 4 40 12 -8 3 64 -11 81 -6 7 8 4 30
-7 22 -10 55 -19 73 -19z m-1412 -520 c0 -5 -5 -10 -11 -10 -5 0 -7 5 -4 10 3
6 8 10 11 10 2 0 4 -4 4 -10z m0 -30 c0 -5 -5 -10 -11 -10 -5 0 -7 5 -4 10 3
6 8 10 11 10 2 0 4 -4 4 -10z m1295 0 c3 -5 1 -10 -4 -10 -6 0 -11 5 -11 10 0
6 2 10 4 10 3 0 8 -4 11 -10z m60 -530 c3 -5 1 -10 -4 -10 -6 0 -11 5 -11 10
0 6 2 10 4 10 3 0 8 -4 11 -10z m-1278 -32 c-3 -7 -5 -2 -5 12 0 14 2 19 5 13
2 -7 2 -19 0 -25z m10 -40 c-3 -8 -6 -5 -6 6 -1 11 2 17 5 13 3 -3 4 -12 1
-19z m10 -40 c-3 -8 -6 -5 -6 6 -1 11 2 17 5 13 3 -3 4 -12 1 -19z m10 -50
c-3 -8 -6 -5 -6 6 -1 11 2 17 5 13 3 -3 4 -12 1 -19z m1070 0 c-3 -8 -6 -5 -6
6 -1 11 2 17 5 13 3 -3 4 -12 1 -19z m-1060 -40 c-3 -8 -6 -5 -6 6 -1 11 2 17
5 13 3 -3 4 -12 1 -19z m1050 0 c-3 -8 -6 -5 -6 6 -1 11 2 17 5 13 3 -3 4 -12
1 -19z m-1040 -40 c-3 -8 -6 -5 -6 6 -1 11 2 17 5 13 3 -3 4 -12 1 -19z m10
-40 c-3 -8 -6 -5 -6 6 -1 11 2 17 5 13 3 -3 4 -12 1 -19z m10 -50 c-3 -8 -6
-5 -6 6 -1 11 2 17 5 13 3 -3 4 -12 1 -19z m990 0 c-3 -8 -6 -5 -6 6 -1 11 2
17 5 13 3 -3 4 -12 1 -19z m-980 -40 c-3 -8 -6 -5 -6 6 -1 11 2 17 5 13 3 -3
4 -12 1 -19z m970 0 c-3 -8 -6 -5 -6 6 -1 11 2 17 5 13 3 -3 4 -12 1 -19z
m-960 -40 c-3 -8 -6 -5 -6 6 -1 11 2 17 5 13 3 -3 4 -12 1 -19z m10 -50 c-3
-8 -6 -5 -6 6 -1 11 2 17 5 13 3 -3 4 -12 1 -19z m930 0 c-3 -8 -6 -5 -6 6 -1
11 2 17 5 13 3 -3 4 -12 1 -19z m-920 -40 c-3 -8 -6 -5 -6 6 -1 11 2 17 5 13
3 -3 4 -12 1 -19z m910 0 c-3 -8 -6 -5 -6 6 -1 11 2 17 5 13 3 -3 4 -12 1 -19z
m-1097 -28 c0 -16 -4 -30 -8 -30 -5 0 -9 14 -9 30 0 17 4 30 9 30 4 0 8 -13 8
-30z m204 -25 c5 -22 4 -26 -4 -15 -5 8 -10 24 -10 34 0 26 6 18 14 -19z m883
13 c-3 -8 -6 -5 -6 6 -1 11 2 17 5 13 3 -3 4 -12 1 -19z m-1087 -43 c0 -8 -4
-15 -10 -15 -5 0 -10 7 -10 15 0 8 5 15 10 15 6 0 10 -7 10 -15z m347 9 c-3
-3 -12 -4 -19 -1 -8 3 -5 6 6 6 11 1 17 -2 13 -5z m610 0 c-3 -3 -12 -4 -19
-1 -8 3 -5 6 6 6 11 1 17 -2 13 -5z m313 -159 l0 -95 -35 0 -35 0 0 95 0 95
35 0 35 0 0 -95z m-1066 69 c3 -9 5 -41 5 -72 -1 -31 -4 -45 -6 -29 -3 19 -10
27 -24 27 -10 0 -19 5 -19 11 0 6 9 9 20 6 11 -3 20 -1 20 4 0 5 -9 9 -20 9
-11 0 -20 5 -20 10 0 6 9 10 20 10 11 0 20 5 20 10 0 6 -9 10 -20 10 -11 0
-20 5 -20 10 0 16 37 11 44 -6z m916 6 c0 -5 -9 -10 -20 -10 -11 0 -20 5 -20
10 0 6 9 10 20 10 11 0 20 -4 20 -10z m0 -41 c0 -5 -10 -10 -22 -10 l-23 -2
23 -4 c27 -5 29 -23 3 -23 -14 0 -21 -8 -24 -27 -2 -16 -5 -3 -6 28 -1 55 0
56 24 51 14 -2 25 -8 25 -13z m-1614 -133 c-1 -23 -5 -24 -81 -30 -44 -3 -91
-4 -105 -2 -14 2 -44 4 -66 5 -36 1 -42 4 -46 26 l-5 25 152 0 153 0 -2 -24z
m2567 0 c-6 -28 -38 -34 -168 -31 -135 3 -130 2 -130 30 l0 25 151 0 151 0 -4
-24z m-2037 -16 c24 0 25 -1 22 -72 l-3 -73 -35 0 -35 0 -3 79 c-3 69 -1 78
13 72 9 -3 28 -6 41 -6z m484 -150 c100 -9 158 -8 289 4 91 9 167 13 170 11 2
-3 -3 -5 -12 -5 -10 0 -17 -5 -17 -11 0 -5 5 -7 10 -4 6 3 10 2 10 -4 0 -14
-44 -36 -100 -51 -172 -47 -528 -17 -536 44 -1 10 -9 23 -16 28 -8 6 3 7 32 4
25 -3 101 -10 170 -16z m-195 -10 c3 -5 1 -10 -4 -10 -6 0 -11 5 -11 10 0 6 2
10 4 10 3 0 8 -4 11 -10z"/>
<path d="M3637 10749 c7 -7 15 -10 18 -7 3 3 -2 9 -12 12 -14 6 -15 5 -6 -5z"/>
<path d="M3536 10491 c9 -9 34 -9 34 -1 0 5 -9 8 -20 7 -10 -1 -17 -3 -14 -6z"/>
<path d="M2588 10393 c7 -3 16 -2 19 1 4 3 -2 6 -13 5 -11 0 -14 -3 -6 -6z"/>
<path d="M3260 10034 c0 -8 5 -12 10 -9 6 4 8 11 5 16 -9 14 -15 11 -15 -7z"/>
<path d="M3000 9841 c-124 -38 -194 -140 -170 -247 37 -165 266 -232 413 -120
75 57 99 172 53 251 -12 22 -28 39 -35 37 -7 -1 -10 2 -7 7 10 15 -42 50 -97
66 -54 16 -116 18 -157 6z m90 -16 c0 -8 -9 -15 -20 -15 -25 0 -26 17 -2 23 9
3 18 5 20 6 1 0 2 -6 2 -14z m50 -17 c0 -6 -7 -7 -16 -4 -9 3 -18 6 -20 6 -3
0 -3 4 1 10 7 11 35 2 35 -12z m-166 -21 c-10 -6 -20 -5 -27 2 -8 8 -6 11 6
11 9 0 17 6 17 13 0 8 3 7 10 -3 6 -10 4 -17 -6 -23z m56 23 c0 -5 -7 -10 -15
-10 -8 0 -15 5 -15 10 0 6 7 10 15 10 8 0 15 -4 15 -10z m144 -6 c9 -3 14 -10
11 -15 -7 -10 -35 0 -35 12 0 11 3 11 24 3z m-244 -47 c-10 -9 -12 -8 -7 6 4
9 2 17 -4 17 -6 0 -7 5 -3 11 5 8 10 6 16 -6 7 -12 6 -21 -2 -28z m234 10 c49
-27 77 -73 78 -128 1 -77 -60 -131 -156 -137 -53 -4 -71 0 -105 19 -52 29 -86
93 -77 144 8 42 50 93 91 111 48 21 124 17 169 -9z m55 4 c8 -5 9 -11 3 -15
-5 -3 -15 1 -22 9 -14 16 -3 20 19 6z m-317 -53 c-9 -9 -12 -8 -12 5 0 9 -5
17 -11 17 -5 0 -7 5 -3 11 4 7 11 6 22 -5 13 -12 14 -18 4 -28z m386 1 c2 -10
1 -10 -5 -2 -5 6 -17 11 -27 10 -10 -1 -21 3 -23 10 -3 8 4 9 23 4 15 -4 29
-14 32 -22z m-399 -39 c0 -10 -2 -11 -6 -2 -2 6 -13 12 -24 12 -12 0 -16 5
-13 15 5 11 10 12 25 2 10 -6 19 -19 18 -27z m416 0 c2 -4 -7 -5 -20 -2 -14 2
-27 8 -30 12 -2 4 7 5 20 2 14 -2 27 -8 30 -12z m-417 -40 c3 -9 -1 -11 -12
-7 -10 4 -22 7 -27 7 -5 0 -9 7 -9 15 0 18 42 5 48 -15z m422 -11 c0 -3 -11
-4 -25 -1 -14 2 -25 10 -25 17 0 10 5 11 25 2 14 -7 25 -15 25 -18z m-416 -35
c4 -11 1 -12 -12 -6 -9 5 -23 7 -29 5 -7 -3 -13 2 -13 10 0 18 46 11 54 -9z
m406 -12 c0 -24 -48 -80 -93 -109 -85 -53 -237 -41 -300 25 l-26 27 29 0 c15
0 32 -3 36 -7 4 -5 0 -8 -9 -8 -10 0 -17 -4 -17 -9 0 -14 27 -20 38 -9 7 7 22
6 47 -2 90 -30 204 11 239 85 12 25 21 32 36 28 11 -3 20 -12 20 -21z m-383
-27 c4 -14 -56 -12 -61 1 -3 7 7 11 27 10 17 -1 32 -6 34 -11z"/>
<path d="M3129 9704 c-10 -13 -10 -17 1 -24 17 -10 30 -4 30 15 0 22 -16 26
-31 9z m21 -14 c0 -5 -2 -10 -4 -10 -3 0 -8 5 -11 10 -3 6 -1 10 4 10 6 0 11
-4 11 -10z"/>
<path d="M2965 9700 c-4 -7 -3 -16 3 -22 14 -14 45 -2 40 15 -6 16 -34 21 -43
7z m35 -4 c0 -11 -19 -15 -25 -6 -3 5 1 10 9 10 9 0 16 -2 16 -4z"/>
<path d="M3062 9673 c-13 -5 -62 -94 -62 -113 0 -14 89 49 101 72 6 11 4 21
-7 32 -8 9 -16 16 -17 15 -1 0 -8 -3 -15 -6z m28 -33 c0 -5 -7 -10 -15 -10 -8
0 -15 5 -15 10 0 6 7 10 15 10 8 0 15 -4 15 -10z"/>
<path d="M3112 9613 c2 -14 15 -19 56 -21 47 -3 52 -1 52 17 0 19 -6 21 -56
21 -47 0 -55 -3 -52 -17z m93 -3 c-3 -5 -21 -10 -40 -10 -19 0 -37 5 -40 10
-4 6 12 10 40 10 28 0 44 -4 40 -10z"/>
<path d="M2744 9275 c-8 -20 4 -35 26 -35 25 0 35 17 20 35 -16 19 -39 19 -46
0z"/>
<path d="M2738 9128 c7 -30 26 -39 47 -24 16 12 17 16 6 30 -18 22 -60 18 -53
-6z"/>
<path d="M3343 9273 c-3 -10 -7 -20 -9 -23 -1 -3 11 -7 27 -8 33 -3 52 24 28
39 -22 14 -39 11 -46 -8z"/>
<path d="M2190 9005 c-1 -12 -4 -15 -7 -7 -4 10 -8 10 -19 1 -11 -9 -14 -9
-14 1 0 10 -3 10 -14 1 -11 -9 -15 -9 -19 1 -4 9 -6 7 -6 -4 -1 -14 12 -17 89
-20 75 -2 90 0 90 12 0 9 -10 16 -25 16 -16 1 -23 -2 -19 -10 3 -6 -2 -2 -10
8 -15 19 -16 19 -16 1 0 -18 -1 -18 -15 1 -14 19 -14 19 -15 -1z"/>
<path d="M1064 8278 c-8 -13 16 -19 36 -8 11 6 20 12 20 14 0 7 -52 1 -56 -6z"/>
<path d="M1170 8150 c-13 -8 -12 -10 3 -10 9 0 17 5 17 10 0 12 -1 12 -20 0z"/>
<path d="M605 8090 c-3 -5 -1 -10 4 -10 6 0 11 5 11 10 0 6 -2 10 -4 10 -3 0
-8 -4 -11 -10z"/>
<path d="M3783 7022 c10 -10 17 -32 17 -49 0 -24 -7 -36 -32 -52 -22 -14 -27
-21 -16 -21 26 0 58 40 58 73 0 33 -16 67 -32 67 -6 0 -4 -8 5 -18z"/>
<path d="M3753 6938 c-2 -16 1 -18 10 -9 7 7 8 14 1 21 -6 6 -10 2 -11 -12z"/>
<path d="M2434 3770 c0 -96 2 -136 3 -87 2 48 2 126 0 175 -1 48 -3 8 -3 -88z"/>
<path d="M2010 6840 c-18 -12 -2 -12 25 0 13 6 15 9 5 9 -8 0 -22 -4 -30 -9z"/>
<path d="M1950 6815 c-14 -8 -20 -14 -15 -14 6 0 21 6 35 14 14 8 21 14 15 14
-5 0 -21 -6 -35 -14z"/>
<path d="M1890 6785 c-10 -12 -10 -18 0 -30 7 -8 17 -15 23 -15 6 0 2 7 -9 15
-19 15 -19 15 0 30 11 8 15 15 9 15 -6 0 -16 -7 -23 -15z"/>
<path d="M1940 6730 c8 -5 20 -10 25 -10 6 0 3 5 -5 10 -8 5 -19 10 -25 10 -5
0 -3 -5 5 -10z"/>
<path d="M1990 6710 c8 -5 20 -10 25 -10 6 0 3 5 -5 10 -8 5 -19 10 -25 10 -5
0 -3 -5 5 -10z"/>
<path d="M2315 5860 c0 -234 1 -329 2 -212 2 116 2 308 0 425 -1 116 -2 21 -2
-213z"/>
<path d="M3962 5528 l0 -308 38 0 39 0 5 -52 c4 -29 17 -199 31 -378 23 -303
25 -371 25 -1010 -1 -646 -2 -709 -29 -1114 -22 -323 -32 -431 -43 -437 -10
-6 -8 -9 7 -9 20 0 21 14 48 428 26 403 28 468 27 1152 0 680 -2 745 -25 1040
-14 173 -25 331 -25 350 l0 35 190 -1 190 -1 0 69 c0 61 -2 69 -22 78 -13 6
-104 13 -202 18 l-180 7 -17 135 c-10 74 -26 173 -37 220 l-21 85 1 -307z m51
-65 c7 -62 6 -63 -18 -63 l-25 0 1 168 1 167 18 -105 c9 -58 20 -133 23 -167z
m-16 -168 c-2 -55 -17 -60 -17 -7 0 34 6 52 16 52 2 0 2 -20 1 -45z m85 -7 c2
-21 0 -38 -4 -38 -4 0 -8 21 -7 48 1 52 6 48 11 -10z m85 -15 c-2 -16 -4 -5
-4 22 0 28 2 40 4 28 2 -13 2 -35 0 -50z m178 22 c0 -25 -3 -45 -7 -45 -10 0
-11 74 -1 83 3 4 7 7 7 7 1 0 1 -20 1 -45z m82 -22 c-2 -16 -4 -5 -4 22 0 28
2 40 4 28 2 -13 2 -35 0 -50z m-367 32 c0 -14 -4 -25 -10 -25 -5 0 -10 11 -10
25 0 14 5 25 10 25 6 0 10 -11 10 -25z m85 -5 c0 -18 -6 -26 -23 -28 -24 -4
-38 18 -28 44 3 9 15 14 28 12 17 -2 23 -10 23 -28z m88 18 c8 -26 -5 -48 -29
-48 -20 0 -24 5 -24 30 0 25 4 30 24 30 13 0 26 -6 29 -12z m27 -28 c0 -22 -3
-40 -8 -40 -4 0 -6 18 -4 40 2 22 6 40 8 40 2 0 4 -18 4 -40z m60 10 c0 -25
-4 -30 -25 -30 -21 0 -25 5 -25 30 0 25 4 30 25 30 21 0 25 -5 25 -30z m88 -2
c-2 -25 -8 -34 -25 -36 -20 -3 -23 1 -23 32 0 32 3 36 26 36 23 0 25 -3 22
-32z m-391 -10 c-3 -7 -5 -2 -5 12 0 14 2 19 5 13 2 -7 2 -19 0 -25z"/>
<path d="M3700 2265 c0 -33 4 -45 15 -45 8 0 15 5 15 11 0 5 -4 7 -10 4 -6 -4
-10 7 -9 27 1 31 1 32 9 8 l8 -25 1 26 c1 15 -5 29 -14 33 -12 4 -15 -4 -15
-39z"/>
<path d="M2610 914 l0 -64 -81 0 c-77 0 -115 -10 -131 -34 -10 -14 -10 -68 0
-83 13 -21 62 -33 138 -33 l74 0 0 -190 0 -190 460 0 460 0 0 190 0 190 75 0
c43 0 90 6 110 14 31 13 35 19 35 53 0 67 -27 83 -139 83 l-81 0 0 65 0 66
-157 -2 c-107 0 -152 -4 -140 -10 14 -8 17 -25 17 -98 0 -78 -2 -89 -19 -94
-24 -6 -298 -6 -323 1 -18 4 -20 12 -16 102 l3 97 -142 1 -143 0 0 -64z"/>
<path d="M3548 973 c6 -2 18 -2 25 0 6 3 1 5 -13 5 -14 0 -19 -2 -12 -5z"/>
<path d="M3598 973 c7 -3 16 -2 19 1 4 3 -2 6 -13 5 -11 0 -14 -3 -6 -6z"/>
<path d="M2933 870 c0 -47 2 -66 4 -42 2 23 2 61 0 85 -2 23 -4 4 -4 -43z"/>
<path d="M3203 870 c0 -47 2 -66 4 -42 2 23 2 61 0 85 -2 23 -4 4 -4 -43z"/>
</g>
</svg>
