<?xml version="1.0" standalone="no"?>
<!DOCTYPE svg PUBLIC "-//W3C//DTD SVG 20010904//EN"
 "http://www.w3.org/TR/2001/REC-SVG-20010904/DTD/svg10.dtd">
<svg version="1.0" xmlns="http://www.w3.org/2000/svg"
 width="322.000000pt" height="645.000000pt" viewBox="0 0 322.000000 645.000000"
 preserveAspectRatio="xMidYMid meet">

<g transform="translate(0.000000,645.000000) scale(0.100000,-0.100000)"
fill="#000000" stroke="none">
<path d="M1425 6383 c-142 -10 -309 -35 -361 -55 -174 -66 -317 -216 -380
-400 -61 -179 -98 -353 -169 -804 -33 -214 -33 -214 8 -168 88 101 273 170
592 221 151 24 198 27 420 27 226 1 267 -2 428 -27 305 -49 500 -119 585 -211
51 -56 51 -59 17 158 -99 623 -155 835 -264 986 -78 109 -239 217 -356 239
-98 19 -431 41 -520 34z"/>
<path d="M737 6115 c-9 -7 -29 -21 -44 -31 -71 -51 -198 -173 -246 -237 -163
-215 -224 -504 -183 -862 9 -77 19 -229 23 -337 l6 -198 36 2 c20 0 46 -2 58
-6 28 -9 29 -6 42 204 6 91 18 203 26 250 9 47 24 148 35 225 41 292 97 561
149 720 45 138 58 168 91 225 33 57 35 66 7 45z"/>
<path d="M2320 6126 c0 -3 14 -28 30 -57 35 -58 47 -89 95 -239 54 -169 98
-381 150 -735 13 -88 31 -205 39 -260 8 -55 18 -161 21 -236 4 -75 10 -141 14
-146 3 -4 31 -7 62 -5 l56 4 6 191 c3 106 14 257 23 337 41 362 -20 652 -181
865 -43 56 -175 185 -240 233 -42 31 -75 53 -75 48z"/>
<path d="M1430 5149 c-247 -23 -553 -81 -679 -129 -64 -25 -141 -73 -199 -126
-63 -56 -64 -87 -13 -242 62 -187 91 -368 98 -605 3 -109 10 -200 14 -203 5
-2 43 7 86 21 121 40 393 82 610 95 327 19 733 -17 962 -86 139 -42 125 -61
132 176 7 237 35 416 95 591 19 57 38 119 41 137 8 46 -13 87 -66 131 -124
102 -331 170 -664 216 -222 30 -301 35 -417 24z m350 -128 c255 -30 430 -75
580 -151 98 -49 106 -77 65 -208 -36 -114 -73 -324 -85 -476 -8 -113 -12 -133
-30 -148 -19 -15 -25 -15 -68 -2 -26 8 -105 27 -177 41 -127 26 -139 27 -495
28 -354 0 -370 -1 -525 -28 -88 -15 -181 -34 -207 -42 -43 -12 -49 -12 -67 3
-17 15 -22 37 -31 157 -12 151 -45 330 -85 457 -41 131 -33 165 52 213 122 69
340 127 577 155 200 23 298 24 496 1z"/>
<path d="M466 4598 c-3 -29 -9 -130 -12 -224 l-7 -171 33 -6 c18 -4 48 -7 66
-7 31 0 34 3 34 29 0 80 -81 431 -99 431 -5 0 -11 -24 -15 -52z"/>
<path d="M2572 4583 c-22 -70 -72 -327 -72 -371 0 -24 1 -25 61 -19 34 3 64 9
68 14 13 15 -14 443 -28 443 -4 0 -17 -30 -29 -67z"/>
<path d="M285 4425 c-28 -6 -60 -17 -72 -23 -25 -14 -73 -106 -73 -140 0 -24
1 -25 58 -19 99 11 161 15 122 8 -35 -6 -35 -6 -47 -81 -23 -147 -10 -1732 18
-2178 10 -159 10 -232 -2 -420 -22 -362 -12 -601 36 -836 37 -177 101 -271
250 -368 384 -250 1176 -301 1710 -111 186 66 347 184 418 305 39 67 73 232
93 447 16 189 16 236 -6 616 -9 155 -9 236 -1 310 27 256 41 2199 16 2288 l-8
28 72 -7 c70 -7 71 -6 71 18 0 38 -49 127 -79 142 -14 8 -54 19 -87 26 -54 11
-65 10 -87 -5 -29 -18 -40 -58 -34 -115 3 -22 10 -36 21 -38 9 -2 14 -7 12
-11 -3 -4 2 -178 11 -387 23 -555 23 -1270 0 -1544 -16 -185 -22 -220 -41
-253 -28 -47 -134 -167 -147 -167 -6 0 -22 26 -37 58 l-27 57 -3 866 -3 866
-87 26 c-447 134 -1290 129 -1644 -10 l-68 -26 -2 -866 -3 -866 -24 -52 c-14
-29 -29 -53 -34 -53 -18 0 -129 128 -152 175 -21 44 -26 79 -42 295 -22 308
-22 778 2 1408 9 250 14 459 11 467 -2 7 3 15 13 18 16 4 18 15 17 66 -1 54
-4 65 -26 81 -28 22 -44 23 -115 5z m-62 -162 c-7 -2 -21 -2 -30 0 -10 3 -4 5
12 5 17 0 24 -2 18 -5z m2670 0 c-7 -2 -21 -2 -30 0 -10 3 -4 5 12 5 17 0 24
-2 18 -5z m-115 -10 c-10 -2 -28 -2 -40 0 -13 2 -5 4 17 4 22 1 32 -1 23 -4z
m-1857 -2013 c44 -24 10 -38 -59 -24 -21 4 -29 11 -25 20 6 16 56 19 84 4z
m1322 -4 c5 -14 -30 -26 -74 -26 -21 0 -26 26 -6 33 26 11 75 7 80 -7z m-950
-35 c245 -8 551 -2 743 14 l71 6 5 -88 c9 -146 8 -522 -1 -796 -8 -253 -8
-258 -32 -283 -40 -43 -125 -95 -202 -122 -71 -26 -75 -27 -342 -26 l-270 0
-70 27 c-75 30 -130 63 -184 113 l-34 32 -10 363 c-6 200 -7 458 -2 572 l7
208 27 -6 c14 -3 147 -9 294 -14z m-400 -27 c22 -4 37 -12 37 -21 0 -11 -9
-12 -37 -8 -57 10 -73 15 -73 26 0 10 20 11 73 3z m1367 -3 c0 -11 -16 -16
-72 -26 -30 -5 -38 -3 -38 9 0 14 24 21 83 25 15 0 27 -3 27 -8z m-1332 -84
c3 -16 -1 -17 -35 -11 -83 15 -97 44 -16 35 36 -5 49 -11 51 -24z m1327 13
c-6 -10 -70 -30 -93 -30 -8 0 -12 8 -10 18 2 12 16 19 48 22 49 6 63 3 55 -10z
m-1332 -67 c18 -11 4 -23 -29 -23 -41 0 -77 16 -68 31 6 10 77 4 97 -8z m1332
8 c8 -15 -29 -31 -70 -31 -47 0 -42 22 6 31 53 10 57 10 64 0z m-1349 -71 c15
0 24 -6 24 -16 0 -14 -8 -15 -47 -9 -54 8 -63 12 -63 27 0 6 12 8 31 4 17 -3
42 -6 55 -6z m1352 -2 c-9 -26 -108 -38 -108 -14 0 14 12 17 93 24 11 1 17 -3
15 -10z m-1359 -64 c18 -4 31 -13 31 -21 0 -12 -9 -14 -47 -8 -53 8 -63 12
-63 26 0 10 34 12 79 3z m1359 -6 c-9 -25 -108 -38 -108 -14 0 15 23 22 78 25
23 1 32 -3 30 -11z m-1360 -63 c18 -4 32 -11 30 -17 -2 -5 -7 -9 -11 -9 -4 1
-22 1 -39 1 -18 0 -39 4 -47 9 -18 11 -4 33 17 27 10 -2 32 -8 50 -11z m1356
6 c9 -15 -17 -29 -58 -32 -55 -5 -58 17 -4 29 58 13 56 13 62 3z m-1635 -173
c38 -189 72 -339 98 -428 13 -47 27 -93 30 -104 13 -46 77 -138 133 -189 71
-66 151 -115 252 -154 l73 -28 335 0 335 0 73 28 c40 16 101 45 135 64 77 45
188 156 220 220 45 89 96 284 156 592 22 109 26 120 40 105 21 -22 -83 -501
-142 -654 -63 -165 -238 -315 -435 -371 -60 -17 -102 -19 -388 -19 -259 0
-330 3 -372 15 -195 58 -371 204 -434 358 -52 129 -168 642 -151 670 12 20 22
-3 42 -105z m289 96 c12 -2 22 -9 22 -16 0 -7 -15 -9 -46 -4 -51 7 -67 13 -59
25 4 8 28 6 83 -5z m1344 -6 c-15 -15 -102 -23 -102 -9 0 6 10 13 23 16 66 14
97 11 79 -7z m-1359 -54 c45 -8 51 -34 8 -34 -37 0 -81 16 -81 30 0 11 19 12
73 4z m1367 -4 c0 -14 -44 -30 -81 -30 -41 0 -39 28 4 33 62 8 77 7 77 -3z
m-1330 -88 c0 -11 -7 -13 -31 -8 -17 3 -40 6 -50 6 -12 0 -19 7 -19 19 0 16 4
17 50 8 33 -6 50 -15 50 -25z m1325 9 c-6 -5 -31 -12 -57 -15 -38 -6 -48 -4
-48 7 0 8 18 17 48 23 47 10 75 2 57 -15z m-1362 -57 c22 -4 37 -12 37 -20 0
-17 -8 -17 -66 -3 -24 6 -44 15 -44 20 0 10 21 11 73 3z m1367 -3 c0 -11 -88
-34 -101 -26 -16 10 -10 23 14 28 41 8 87 7 87 -2z m-1342 -67 c6 -2 12 -10
12 -18 0 -11 -10 -13 -42 -9 -45 6 -71 20 -63 33 5 8 61 4 93 -6z m1342 7 c0
-16 -24 -28 -68 -35 -38 -6 -43 -4 -40 11 2 12 16 20 43 24 62 10 65 10 65 0z
m-1336 -82 c17 -16 -2 -22 -49 -15 -29 5 -45 12 -45 22 0 11 9 13 43 8 23 -4
46 -10 51 -15z m1326 7 c0 -13 -41 -26 -82 -26 -32 0 -14 24 23 31 55 10 59
10 59 -5z m-1342 -66 c13 0 22 -6 22 -15 0 -16 -12 -18 -59 -9 -18 4 -31 13
-31 21 0 11 7 14 23 9 12 -3 32 -6 45 -6z m1332 -4 c0 -18 -77 -33 -93 -17
-11 11 -2 17 43 24 46 8 50 7 50 -7z m-1326 -66 c33 -12 34 -30 2 -30 -35 0
-56 10 -56 26 0 16 19 18 54 4z m1306 -4 c0 -16 -21 -26 -56 -26 -30 0 -31 18
-1 30 33 13 57 12 57 -4z m-1282 -77 c-2 -6 -7 -10 -11 -10 -4 1 -14 1 -22 1
-8 0 -15 5 -15 10 0 6 12 10 26 10 14 0 24 -5 22 -11z m1252 1 c0 -5 -7 -10
-15 -10 -8 0 -18 0 -22 -1 -4 0 -9 4 -11 10 -2 6 8 11 22 11 14 0 26 -4 26
-10z m-1333 -505 c60 -19 171 -46 248 -60 129 -23 164 -25 435 -25 270 0 307
2 435 25 131 23 288 64 327 86 31 16 38 10 38 -31 0 -36 -3 -41 -37 -56 -76
-32 -271 -74 -413 -90 -162 -18 -635 -15 -765 5 -89 14 -274 59 -334 81 -43
17 -46 20 -49 59 -2 23 -1 41 2 41 3 0 54 -16 113 -35z"/>
<path d="M1042 1635 l6 -509 34 -29 c64 -56 81 -61 156 -40 56 15 107 18 302
17 161 0 249 -4 280 -13 89 -25 92 -25 147 16 29 21 55 43 57 50 9 23 19 779
11 897 l-7 119 -77 -8 c-240 -22 -593 -22 -835 1 l-79 7 5 -508z"/>
<path d="M1310 1054 c-54 -9 -100 -25 -95 -34 3 -4 35 -14 73 -20 92 -16 515
-9 557 9 l30 13 -35 16 c-28 13 -80 17 -270 18 -129 1 -246 0 -260 -2z"/>
<path d="M760 696 c0 -21 10 -27 87 -51 48 -15 144 -39 213 -53 121 -25 137
-26 480 -26 347 0 358 1 485 27 223 46 321 85 290 116 -7 7 -35 1 -83 -15 -39
-13 -125 -36 -190 -51 -117 -28 -118 -28 -502 -28 l-385 0 -120 28 c-66 15
-153 39 -194 52 -40 14 -75 25 -77 25 -2 0 -4 -11 -4 -24z"/>
<path d="M438 4003 c-3 -98 -4 -179 -3 -181 2 -2 37 -6 79 -9 l76 -6 0 177 c0
133 -3 178 -12 181 -7 2 -41 6 -74 10 l-61 6 -5 -178z"/>
<path d="M2545 4171 l-50 -6 -3 -179 -2 -179 76 6 c42 3 77 7 79 9 1 2 0 83
-3 181 -5 200 6 180 -97 168z"/>
<path d="M427 3599 c-9 -260 -9 -1007 0 -1077 l6 -53 78 -40 79 -39 0 694 c0
386 -4 697 -9 700 -5 3 -40 9 -78 12 l-70 7 -6 -204z"/>
<path d="M2530 3791 l-35 -6 -3 -697 -2 -697 42 19 c109 48 116 53 122 83 8
40 8 886 -1 1120 l-6 187 -41 -1 c-23 -1 -57 -4 -76 -8z"/>
<path d="M431 2388 c0 -24 4 -92 8 -153 9 -118 16 -138 79 -209 39 -45 57 -42
71 11 12 42 15 204 5 275 -7 48 -17 56 -131 104 l-33 14 1 -42z"/>
<path d="M2569 2394 l-76 -36 -7 -61 c-14 -141 -3 -285 25 -303 13 -8 52 28
91 85 29 41 31 52 40 178 13 190 18 180 -73 137z"/>
</g>
</svg>
