<?xml version="1.0" standalone="no"?>
<!DOCTYPE svg PUBLIC "-//W3C//DTD SVG 20010904//EN"
 "http://www.w3.org/TR/2001/REC-SVG-20010904/DTD/svg10.dtd">
<svg version="1.0" xmlns="http://www.w3.org/2000/svg"
 width="291.000000pt" height="536.000000pt" viewBox="0 0 291.000000 536.000000"
 preserveAspectRatio="xMidYMid meet">

<g transform="translate(0.000000,536.000000) scale(0.100000,-0.100000)"
fill="#000000" stroke="none">
<path d="M1230 5113 c-92 -10 -239 -47 -228 -58 2 -2 71 2 154 10 226 22 549
17 712 -10 17 -3 32 -2 32 3 0 13 -110 40 -216 52 -83 9 -376 11 -454 3z"/>
<path d="M790 4976 c-30 -7 -69 -20 -87 -29 -49 -26 -147 -121 -205 -200 l-53
-72 2 -120 c2 -143 8 -179 32 -203 10 -9 30 -54 45 -98 l27 -81 -32 -52 c-28
-45 -33 -63 -37 -136 -7 -142 25 -392 106 -815 22 -113 43 -254 46 -315 4 -60
13 -218 21 -350 34 -568 65 -1372 65 -1712 l0 -173 -37 0 c-42 0 -84 -18 -91
-38 -4 -12 0 -12 19 -1 34 19 1653 18 1688 0 19 -11 23 -11 19 1 -7 20 -49 38
-92 38 l-39 0 7 352 c15 818 76 1941 115 2128 71 346 121 693 121 844 0 103
-17 164 -56 207 -13 15 -12 25 11 95 15 44 37 95 50 114 21 31 25 51 31 170
l6 135 -50 70 c-60 85 -163 185 -220 214 -41 21 -141 46 -149 37 -7 -7 17 -46
27 -46 20 0 118 -70 177 -126 34 -33 77 -72 97 -87 50 -40 57 -76 46 -220 -7
-79 -7 -124 0 -132 7 -8 1 -37 -16 -91 -14 -43 -28 -85 -30 -92 -3 -9 -17 -3
-45 21 -160 137 -527 217 -934 204 -349 -11 -625 -84 -772 -203 l-42 -34 -29
89 c-18 57 -26 95 -20 103 5 7 6 47 3 88 -12 140 -13 200 -4 200 5 0 9 9 9 20
0 10 16 32 37 47 20 15 68 57 105 93 37 36 81 72 98 81 43 24 100 69 100 80 0
11 0 11 -70 -5z m1110 -1905 c144 -21 201 -32 294 -58 l59 -16 -7 -96 c-51
-771 -85 -1559 -86 -1999 l-1 -282 -702 0 -702 0 1 117 c2 398 -50 1641 -92
2179 l-7 81 79 21 c98 26 232 49 389 67 174 20 596 13 775 -14z"/>
<path d="M845 2715 l-25 -24 0 -311 0 -311 25 -24 24 -25 586 0 586 0 24 25
25 24 0 311 0 311 -25 24 -24 25 -586 0 -586 0 -24 -25z"/>
<path d="M717 4775 c-48 -54 -63 -79 -88 -152 -16 -48 -25 -83 -21 -78 9 10
172 295 169 295 -1 -1 -28 -30 -60 -65z"/>
<path d="M2169 4777 c17 -31 41 -74 54 -95 13 -20 39 -65 57 -100 18 -34 35
-60 37 -58 3 2 -3 18 -12 35 -9 18 -25 60 -35 94 -15 48 -32 75 -76 121 l-56
60 31 -57z"/>
<path d="M410 3821 c0 -102 -7 -127 -41 -141 -16 -7 -29 -15 -29 -19 3 -34 29
-116 38 -116 8 0 12 -187 16 -697 l4 -697 -21 8 c-43 16 -77 21 -77 12 0 -5
22 -14 49 -21 l49 -12 6 -121 c3 -67 8 -234 11 -372 3 -137 10 -377 16 -533
10 -270 9 -284 -10 -326 -14 -32 -31 -51 -58 -65 -23 -12 -31 -20 -20 -21 49
-1 107 62 107 116 0 10 20 68 45 129 27 67 54 160 70 236 24 123 25 138 25
515 0 506 -41 1212 -90 1548 -10 72 -31 247 -47 388 -28 255 -43 322 -43 189z"/>
<path d="M2488 3880 c-3 -8 -11 -64 -17 -125 -15 -154 -39 -356 -62 -520 -21
-152 -40 -375 -65 -750 -21 -317 -31 -1110 -15 -1214 19 -123 51 -240 91 -337
21 -50 41 -109 45 -132 7 -45 44 -89 82 -98 39 -10 38 4 0 20 -58 24 -72 62
-70 191 2 148 21 860 29 1062 l6 162 49 11 c27 7 49 16 49 21 0 9 -34 4 -76
-12 l-22 -8 5 697 c4 470 9 697 15 697 10 0 36 81 38 111 0 6 -13 17 -29 24
-31 13 -33 20 -44 175 -2 22 -6 33 -9 25z"/>
<path d="M241 3519 c-76 -21 -165 -60 -177 -80 -9 -15 87 -5 166 17 78 22 156
85 103 83 -10 0 -51 -9 -92 -20z"/>
<path d="M2300 527 c-30 -63 -179 -129 -366 -162 -147 -25 -376 -38 -584 -32
-416 13 -682 84 -748 202 -16 31 -25 12 -30 -69 -3 -53 0 -88 12 -122 16 -47
16 -48 -3 -27 -10 11 -41 37 -68 58 -26 22 -72 61 -100 89 -50 47 -62 50 -47
12 3 -9 13 -16 21 -16 9 0 25 -10 35 -22 57 -64 61 -99 8 -59 -38 28 -38 18 3
-41 35 -52 41 -55 217 -102 250 -66 469 -91 805 -91 343 0 551 24 825 96 173
45 178 48 225 138 l18 35 -32 -27 c-55 -46 -69 -31 -24 25 16 18 35 38 43 45
8 7 11 13 6 13 -4 0 -53 -38 -107 -85 l-98 -85 16 45 c10 31 14 70 11 120 -4
87 -16 107 -38 62z"/>
<path d="M2533 498 c-12 -17 -15 -64 -3 -52 10 10 25 64 17 64 -2 0 -9 -6 -14
-12z"/>
</g>
</svg>
