<?xml version="1.0" standalone="no"?>
<!DOCTYPE svg PUBLIC "-//W3C//DTD SVG 20010904//EN"
 "http://www.w3.org/TR/2001/REC-SVG-20010904/DTD/svg10.dtd">
<svg version="1.0" xmlns="http://www.w3.org/2000/svg"
 width="112.000000pt" height="461.000000pt" viewBox="0 0 112.000000 461.000000"
 preserveAspectRatio="xMidYMid meet">

<g transform="translate(0.000000,461.000000) scale(0.100000,-0.100000)"
fill="#000000" stroke="none">
<path d="M314 4490 c-117 -13 -108 19 -106 -336 0 -170 1 -312 1 -316 1 -5 10
-8 21 -8 14 0 21 -9 25 -34 10 -49 3 -71 -23 -74 -13 -2 -22 -10 -22 -20 1 -9
-1 -811 -2 -1782 l-3 -1765 333 -3 332 -2 0 1785 0 1785 -25 0 c-24 0 -25 3
-25 54 0 49 2 55 22 58 l23 3 1 313 c0 282 -1 314 -16 322 -49 26 -364 38
-536 20z m346 -70 c0 -6 -50 -10 -131 -10 -84 0 -128 4 -124 10 4 6 58 10 131
10 76 0 124 -4 124 -10z m-17 -516 c64 -9 70 -24 10 -25 -26 -1 -51 -1 -55 0
-5 0 -8 -10 -8 -24 0 -18 -5 -25 -20 -25 -13 0 -20 7 -20 19 0 29 -18 35 -22
9 -4 -31 -40 -31 -48 0 -3 13 -8 23 -12 23 -42 -4 -100 1 -94 7 4 4 35 12 69
18 60 11 102 11 200 -2z m-115 -147 c3 -35 1 -38 -20 -35 -24 3 -35 34 -24 64
12 30 41 11 44 -29z m62 3 c0 -34 -3 -40 -20 -40 -25 0 -34 21 -26 55 4 16 13
25 26 25 17 0 20 -7 20 -40z"/>
</g>
</svg>
