<svg xmlns="http://www.w3.org/2000/svg" version="1.1" xmlns:xlink="http://www.w3.org/1999/xlink" width="512" height="512" x="0" y="0" viewBox="0 0 512 512" style="enable-background:new 0 0 512 512" xml:space="preserve" class=""><g><g fill-rule="evenodd" clip-rule="evenodd"><path fill="#448aff" d="M82.249 357.251v-25.149h15.013v6.457a3.995 3.995 0 0 0 3.999 3.999 3.996 3.996 0 0 0 3.999-3.999v-6.457h16.258v6.457a4.003 4.003 0 0 0 8.003 0v-6.457h16.268v6.457a3.996 3.996 0 0 0 3.999 3.999 4.002 4.002 0 0 0 3.999-3.999v-6.457h16.263v6.457c0 2.212 1.788 3.999 3.999 3.999s3.999-1.788 3.999-3.999v-6.457h16.263v6.457a3.996 3.996 0 0 0 3.999 3.999 3.995 3.995 0 0 0 3.999-3.999v-6.457h15.009v25.149zm228.662 87.008h-14.23v-19.97h14.23zm42.151 0h-14.23v-40.307h14.23zm42.146 0h-14.23V383.6h14.23zm27.92-81.01h14.23v81.01h-14.23zm-60.907-137.824c5.212 0 9.447 4.24 9.447 9.452 0 5.209-4.237 9.452-9.447 9.452-5.214 0-9.462-4.237-9.462-9.452 0-5.217 4.247-9.452 9.462-9.452zm-54.013-13.072a57.861 57.861 0 0 0-4.022 15.035l-.448 3.491h-22.055l.46-4.414c.876-8.408 3.101-16.606 6.547-24.322l1.809-4.052 19.073 11.014zm46.518-35.501a58.082 58.082 0 0 0-15.043 4.019l-3.249 1.36-11.003-19.075 4.049-1.809a79.933 79.933 0 0 1 24.323-6.538l4.415-.46v22.055zm53.99 22.545a59.247 59.247 0 0 0-11.019-11.01l-2.792-2.135 11.025-19.089 3.595 2.622a81.275 81.275 0 0 1 17.779 17.784l2.621 3.595-19.073 11.017zm11.975 39.48h22.062l-.464 4.417a80.805 80.805 0 0 1-6.501 24.335l-1.804 4.065-19.095-11.028 1.349-3.243a58.782 58.782 0 0 0 4.004-15.057zm-244.333-9.305 26.746 11.542-2.431 3.939c-10.892 17.65-30.075 28.467-50.884 28.467-10.04 0-19.86-2.5-28.663-7.333l-4.042-2.219 17.489-23.299 2.901 1.269a30.65 30.65 0 0 0 12.315 2.579c9.763 0 18.852-4.616 24.679-12.416zm-33.649-45.748 3.08-.728v-29.148l-4.571.659c-29.313 4.228-51.197 29.495-51.197 59.146 0 15.841 6.242 30.905 17.413 42.129l3.259 3.275 17.497-23.303-2.032-2.432a30.574 30.574 0 0 1-7.139-19.668c0-14.244 9.859-26.662 23.69-29.93zm66.842 29.929c0-29.648-21.881-54.918-51.192-59.146l-4.571-.66v29.148l3.08.728c13.83 3.269 23.681 15.689 23.681 29.929 0 1.795-.162 3.585-.476 5.352l-.554 3.118 26.771 11.545 1.204-4.46a59.72 59.72 0 0 0 2.057-15.554zM43.57 124.862a3.996 3.996 0 0 0-3.999 3.999V468.43a3.996 3.996 0 0 0 3.999 3.999h424.86a3.995 3.995 0 0 0 3.999-3.999V128.861a3.995 3.995 0 0 0-3.999-3.999zM13.002 98.294v371.433c0 16.137 13.128 29.271 29.266 29.271h427.459c16.14 0 29.27-13.131 29.27-29.271V98.294z" opacity="1" data-original="#92c3fe" class=""></path><path fill="#448aff" d="M176.441 405.159c0 4.419-3.589 7.999-7.999 7.999h-6.829c-4.424 0-8.004-3.58-8.004-7.999s3.58-7.999 8.004-7.999h6.829c4.41 0 7.999 3.58 7.999 7.999zm0 23.182c0 4.419-3.589 7.999-7.999 7.999h-6.829c-4.424 0-8.004-3.58-8.004-7.999s3.58-7.999 8.004-7.999h6.829c4.41 0 7.999 3.58 7.999 7.999zm-60.96-46.363a7.998 7.998 0 0 1-7.999 8.004h-6.825a7.998 7.998 0 0 1-7.999-8.004 7.997 7.997 0 0 1 7.999-7.999h6.825a7.997 7.997 0 0 1 7.999 7.999zm30.478 23.181a7.997 7.997 0 0 1-7.999 7.999h-6.82c-4.419 0-7.999-3.58-7.999-7.999s3.58-7.999 7.999-7.999h6.82a7.997 7.997 0 0 1 7.999 7.999zm0-23.181a7.998 7.998 0 0 1-7.999 8.004h-6.82a7.998 7.998 0 0 1-7.999-8.004 7.997 7.997 0 0 1 7.999-7.999h6.82a7.997 7.997 0 0 1 7.999 7.999zm0 46.363a7.997 7.997 0 0 1-7.999 7.999h-6.82c-4.419 0-7.999-3.58-7.999-7.999s3.58-7.999 7.999-7.999h6.82a7.997 7.997 0 0 1 7.999 7.999zm60.95 0a7.997 7.997 0 0 1-7.999 7.999h-6.82c-4.419 0-7.999-3.58-7.999-7.999s3.58-7.999 7.999-7.999h6.82a7.997 7.997 0 0 1 7.999 7.999zm-30.468-46.363c0 4.424-3.589 8.004-7.999 8.004h-6.829a8 8 0 0 1-8.004-8.004 7.998 7.998 0 0 1 8.004-7.999h6.829c4.41 0 7.999 3.58 7.999 7.999zm-60.96 23.181a7.997 7.997 0 0 1-7.999 7.999h-6.825c-4.419 0-7.999-3.58-7.999-7.999s3.58-7.999 7.999-7.999h6.825a7.997 7.997 0 0 1 7.999 7.999zm91.428-23.181a7.998 7.998 0 0 1-7.999 8.004h-6.82a7.998 7.998 0 0 1-7.999-8.004 7.997 7.997 0 0 1 7.999-7.999h6.82a7.997 7.997 0 0 1 7.999 7.999zm-91.428 46.363a7.997 7.997 0 0 1-7.999 7.999h-6.825c-4.419 0-7.999-3.58-7.999-7.999s3.58-7.999 7.999-7.999h6.825a7.997 7.997 0 0 1 7.999 7.999zm91.428-23.182a7.997 7.997 0 0 1-7.999 7.999h-6.82c-4.419 0-7.999-3.58-7.999-7.999s3.58-7.999 7.999-7.999h6.82a7.997 7.997 0 0 1 7.999 7.999zm-120.66 36.963h127.07v-72.874H86.249zm7.013-106.02v2.457c0 4.419 3.58 7.999 7.999 7.999s7.999-3.58 7.999-7.999v-2.457h8.258v2.457c0 4.419 3.589 7.999 8.004 7.999a7.997 7.997 0 0 0 7.999-7.999v-2.457h8.268v2.457a7.997 7.997 0 0 0 7.999 7.999c4.41 0 7.999-3.58 7.999-7.999v-2.457h8.263v2.457c0 4.419 3.58 7.999 7.999 7.999s7.999-3.58 7.999-7.999v-2.457h8.263v2.457c0 4.419 3.58 7.999 7.999 7.999s7.999-3.58 7.999-7.999v-2.457h7.009v17.149H86.249v-17.149zm123.49-16.003H206.31v-2.457c0-4.42-3.58-7.999-7.999-7.999s-7.999 3.58-7.999 7.999v2.457h-8.263v-2.457c0-4.42-3.58-7.999-7.999-7.999s-7.999 3.58-7.999 7.999v2.457h-8.263v-2.457c0-4.42-3.589-7.999-7.999-7.999a7.997 7.997 0 0 0-7.999 7.999v2.457h-8.268v-2.457c0-4.42-3.58-7.999-7.999-7.999-4.415 0-8.004 3.58-8.004 7.999v2.457h-8.258v-2.457c0-4.42-3.58-7.999-7.999-7.999a7.997 7.997 0 0 0-7.999 7.999v2.457H82.82c-6.928 0-12.569 5.641-12.569 12.569v112.883c0 6.928 5.641 12.569 12.569 12.569h133.932c6.928 0 12.569-5.641 12.569-12.569V332.668c.001-6.928-5.64-12.569-12.569-12.569zm145.469-79.769c-3.009 0-5.462-2.448-5.462-5.452 0-3.009 2.453-5.452 5.462-5.452 3 0 5.447 2.443 5.447 5.452 0 3.004-2.447 5.452-5.447 5.452zm38.25-27.54c-2.203-3.83-7.103-5.136-10.923-2.929l-14.116 8.15c-3.65-2.863-8.23-4.585-13.211-4.585-11.833 0-21.46 9.622-21.46 21.45s9.626 21.455 21.46 21.455c11.829 0 21.45-9.626 21.45-21.455 0-1.024-.104-2.023-.241-3.014l14.121-8.145c3.821-2.21 5.127-7.101 2.92-10.927zm-83.212-39.773 7.042 12.192a63.047 63.047 0 0 0-11.749 11.753l-12.192-7.037a77.454 77.454 0 0 1 16.899-16.908zm106.813 16.908-12.182 7.037a63.242 63.242 0 0 0-11.763-11.753l7.042-12.192a77.275 77.275 0 0 1 16.903 16.908zm8.06 76.081-12.201-7.046a62.703 62.703 0 0 0 4.278-16.083h14.102a76.748 76.748 0 0 1-6.179 23.129zm-7.923-39.128a61.822 61.822 0 0 0-4.297-16.074l12.178-7.032a75.635 75.635 0 0 1 6.221 23.106zm-69.992-53.993a62.027 62.027 0 0 0-16.078 4.297L331.112 165a75.872 75.872 0 0 1 23.106-6.212v14.097zm16.003-14.098c8.15.849 15.908 3 23.101 6.212l-7.032 12.182a62.08 62.08 0 0 0-16.069-4.297zM292.3 266.001a76.713 76.713 0 0 1-6.179-23.125h14.098a62.933 62.933 0 0 0 4.292 16.083zm-6.179-39.123c.849-8.15 3.009-15.913 6.221-23.106l12.178 7.032a61.817 61.817 0 0 0-4.301 16.074zm-4.032 54.268a8.005 8.005 0 0 0 10.933 2.919l25.969-14.993a8.014 8.014 0 0 0 3.731-4.863 7.984 7.984 0 0 0-.811-6.075c-4.07-7.032-6.221-15.074-6.221-23.257 0-25.653 20.87-46.523 46.532-46.523 25.648 0 46.518 20.87 46.518 46.523a46.5 46.5 0 0 1-6.221 23.261 7.94 7.94 0 0 0-.806 6.07 7.978 7.978 0 0 0 3.731 4.863l25.969 14.998a7.994 7.994 0 0 0 3.999 1.071 7.995 7.995 0 0 0 6.928-3.995c8.103-14.008 12.39-30.006 12.39-46.268 0-51.013-41.5-92.513-92.508-92.513-51.022 0-92.522 41.5-92.522 92.513-.001 16.263 4.291 32.261 12.389 46.269zm151.27 159.113h-6.23v-73.01h6.23zm8.004-89.008H419.13a7.997 7.997 0 0 0-7.999 7.999v89.008a7.998 7.998 0 0 0 7.999 8.004h22.233a7.998 7.998 0 0 0 7.999-8.004V359.25c0-4.42-3.58-7.999-7.999-7.999zm-134.452 89.008h-6.231v-11.97h6.231zm7.999-27.968h-22.233a7.997 7.997 0 0 0-7.999 7.999v27.969a7.998 7.998 0 0 0 7.999 8.004h22.233a7.998 7.998 0 0 0 7.999-8.004V420.29a7.995 7.995 0 0 0-7.999-7.999zm34.152 27.968h-6.23v-32.308h6.23zm7.999-48.31h-22.233a7.998 7.998 0 0 0-7.999 8.004v48.306a7.998 7.998 0 0 0 7.999 8.004h22.233a7.998 7.998 0 0 0 7.999-8.004v-48.306a7.998 7.998 0 0 0-7.999-8.004zm34.147 48.31h-6.23V387.6h6.23zm7.999-68.657h-22.228a7.997 7.997 0 0 0-7.999 7.999v68.657a7.998 7.998 0 0 0 7.999 8.004h22.228a8 8 0 0 0 8.004-8.004v-68.657a7.998 7.998 0 0 0-8.004-7.999zm18.05-46.372-6.358 18.687c-1.42 4.183-5.971 6.424-10.15 4.995-3.731-1.269-5.91-5.023-5.33-8.782l-87.061 50.263a7.989 7.989 0 0 1-4 1.066 7.975 7.975 0 0 1-6.928-3.999c-2.212-3.82-.901-8.721 2.929-10.928l87.06-50.263a8.01 8.01 0 0 1-4.952-9.008c.863-4.33 5.08-7.15 9.409-6.287l19.361 3.83a8.018 8.018 0 0 1 5.381 3.849 8.007 8.007 0 0 1 .639 6.577zM141.789 158.566v21.365c-15.328 3.622-26.77 17.408-26.77 33.822a34.57 34.57 0 0 0 8.07 22.233l-12.819 17.073c-10.041-10.088-16.248-23.988-16.248-39.307-.001-28.034 20.789-51.295 47.767-55.186zm63.762 55.187c0 5.023-.67 9.881-1.919 14.513l-19.62-8.461a34.58 34.58 0 0 0 .538-6.051c0-16.413-11.437-30.199-26.761-33.822v-21.365c26.972 3.89 47.762 27.151 47.762 55.186zm-55.763-18.762c-10.348 0-18.766 8.414-18.766 18.762s8.419 18.767 18.766 18.767c10.339 0 18.762-8.419 18.762-18.767s-8.423-18.762-18.762-18.762zm0 74.529c20.05 0 37.651-10.64 47.48-26.568l-19.597-8.457c-6.353 8.504-16.484 14.022-27.883 14.022-4.948 0-9.65-1.047-13.918-2.915l-12.819 17.078a55.381 55.381 0 0 0 26.737 6.84zm0 16.002c39.571 0 71.76-32.199 71.76-71.77 0-39.576-32.19-71.77-71.76-71.77-39.58 0-71.77 32.194-71.77 71.77.001 39.571 32.19 71.77 71.77 71.77zm114.213 174.909h196.43V306.652h-196.43zM51.569 306.652v153.779h196.43V306.652zm196.429-169.791H51.569V290.65h196.43V136.861zm212.433 153.788V136.861h-196.43V290.65h196.43zm7.999-169.787H43.57a7.997 7.997 0 0 0-7.999 7.999V468.43a7.997 7.997 0 0 0 7.999 7.999h424.86a7.997 7.997 0 0 0 7.999-7.999V128.861a7.997 7.997 0 0 0-7.999-7.999zM143.921 51.644c0-6.056 4.938-10.999 10.999-10.999s10.999 4.943 10.999 10.999c0 6.06-4.938 11.003-10.999 11.003-6.061.001-10.999-4.942-10.999-11.003zm157.501 0c0-4.415 3.589-7.999 7.999-7.999H454.22a8 8 0 0 1 7.999 7.999c0 4.419-3.58 8.004-7.999 8.004h-144.8c-4.41 0-7.998-3.584-7.998-8.004zm-203.113 0c0-6.056 4.943-10.999 10.999-10.999 6.065 0 11.003 4.943 11.003 10.999 0 6.06-4.938 11.003-11.003 11.003-6.057.001-10.999-4.942-10.999-11.003zm-45.608 0c0-6.056 4.938-10.999 10.999-10.999s10.999 4.943 10.999 10.999c0 6.06-4.938 11.003-10.999 11.003-6.061.001-10.999-4.942-10.999-11.003zm417.026 443.354c13.932 0 25.271-11.338 25.271-25.271V102.294H17.002v367.433c0 13.932 11.338 25.271 25.266 25.271zM42.268 17.002c-13.928 0-25.266 11.333-25.266 25.266v44.023h477.996V42.268c0-13.932-11.338-25.266-25.271-25.266zM469.727.999H42.268C19.511.999.999 19.511.999 42.268v427.459c0 22.762 18.512 41.274 41.269 41.274h427.459c22.762 0 41.273-18.512 41.273-41.274V42.268C511.001 19.511 492.489.999 469.727.999z" opacity="1" data-original="#224eff" class=""></path></g></g></svg>