<svg xmlns="http://www.w3.org/2000/svg" version="1.1" xmlns:xlink="http://www.w3.org/1999/xlink" width="512" height="512" x="0" y="0" viewBox="0 0 512 512" style="enable-background:new 0 0 512 512" xml:space="preserve" class=""><g><path d="M200 0H45C20.187 0 0 20.187 0 45v55h200zM50 65c-8.284 0-15-6.716-15-15s6.716-15 15-15 15 6.716 15 15-6.716 15-15 15zm50 0c-8.284 0-15-6.716-15-15s6.716-15 15-15 15 6.716 15 15-6.716 15-15 15zm50 0c-8.284 0-15-6.716-15-15s6.716-15 15-15 15 6.716 15 15-6.716 15-15 15zM410 45c0-24.813-20.187-45-45-45H230v100h180zM210 295v-40c0-24.813 20.187-45 45-45h155v-80H0v255c0 24.813 20.187 45 45 45h263v-8.843l-86.448-96.054A44.927 44.927 0 0 1 210 295zM105 160h200c8.284 0 15 6.716 15 15s-6.716 15-15 15H105c-8.284 0-15-6.716-15-15s6.716-15 15-15zm0 60h60c8.284 0 15 6.716 15 15s-6.716 15-15 15h-60c-8.284 0-15-6.716-15-15s6.716-15 15-15zm0 60h60c8.284 0 15 6.716 15 15s-6.716 15-15 15h-60c-8.284 0-15-6.716-15-15s6.716-15 15-15zm-60 90c-8.284 0-15-6.716-15-15s6.716-15 15-15 15 6.716 15 15-6.716 15-15 15zm0-60c-8.284 0-15-6.716-15-15s6.716-15 15-15 15 6.716 15 15-6.716 15-15 15zm0-60c-8.284 0-15-6.716-15-15s6.716-15 15-15 15 6.716 15 15-6.716 15-15 15zm0-60c-8.284 0-15-6.716-15-15s6.716-15 15-15 15 6.716 15 15-6.716 15-15 15zm150 180h-90c-8.284 0-15-6.716-15-15s6.716-15 15-15h90c8.284 0 15 6.716 15 15s-6.716 15-15 15zM338 467c0 5.069 2.561 9.795 6.806 12.564l46 30a14.99 14.99 0 0 0 15.339.625A15 15 0 0 0 414 497v-57.354h-76z" fill="#448aff" opacity="1" data-original="#000000" class=""></path><path d="M497 240H255c-8.284 0-15 6.716-15 15v25h272v-25c0-8.284-6.716-15-15-15zM338 409.645h76L503.68 310H248.32z" fill="#448aff" opacity="1" data-original="#000000" class=""></path></g></svg>