<svg xmlns="http://www.w3.org/2000/svg" version="1.0" width="900.000000pt" height="900.000000pt" viewBox="0 0 900.000000 900.000000" preserveAspectRatio="xMidYMid meet">

<g transform="translate(0.000000,900.000000) scale(0.100000,-0.100000)" fill="#448aff" stroke="none">
<path d="M2334 8683 c3 -10 39 -189 81 -398 90 -453 122 -602 176 -807 l10 -38 1908 0 1909 0 5 23 c3 12 58 288 121 612 64 325 118 598 120 608 4 16 -104 17 -2166 17 -2061 0 -2169 -1 -2164 -17z" fill="#448aff"/>
<path d="M2227 6663 l-385 -428 341 -5 341 -5 43 -185 c75 -326 154 -537 281 -751 250 -418 602 -706 1044 -854 219 -73 329 -89 618 -89 207 0 263 4 360 22 604 111 1063 469 1364 1062 77 151 129 287 166 435 90 353 78 790 -31 1158 l-20 67 -1869 0 -1868 0 -385 -427z" fill="#448aff"/>
<path d="M5490 4276 c-19 -7 -68 -34 -108 -60 -166 -108 -385 -196 -594 -238 -161 -33 -464 -32 -618 0 -212 45 -406 123 -589 237 -123 76 -146 78 -311 30 -510 -149 -1002 -395 -1415 -705 -440 -331 -756 -729 -941 -1187 -146 -362 -254 -1066 -215 -1402 45 -384 187 -590 436 -632 175 -30 513 26 860 143 196 65 255 97 340 183 120 120 175 260 175 444 0 113 -17 189 -65 287 -35 71 -119 169 -200 231 l-39 31 33 88 c179 472 529 892 981 1174 257 161 598 286 915 337 158 25 516 25 680 -1 474 -73 911 -261 1230 -528 181 -151 343 -334 482 -543 115 -173 263 -463 263 -516 0 -15 -27 -48 -84 -103 -132 -128 -182 -220 -207 -377 -21 -135 18 -322 93 -446 46 -76 134 -155 220 -197 121 -60 509 -160 812 -212 220 -37 361 0 478 125 210 224 260 676 148 1336 -124 729 -474 1281 -1119 1763 -391 293 -868 530 -1389 691 -198 61 -209 63 -252 47z" fill="#448aff"/>
<path d="M4260 2689 c-268 -35 -544 -132 -742 -262 -93 -60 -228 -166 -228 -177 0 -12 777 -762 812 -784 29 -18 29 -18 111 13 117 44 168 54 287 54 117 0 187 -14 308 -65 42 -18 80 -33 83 -33 5 0 368 349 734 707 l100 98 -44 38 c-261 222 -599 367 -961 412 -97 12 -365 11 -460 -1z" fill="#448aff"/>
<path d="M3008 1968 c-63 -78 -159 -231 -214 -343 -133 -273 -195 -579 -180 -890 8 -151 15 -174 63 -193 27 -10 294 -54 658 -107 222 -32 565 -59 565 -44 0 3 -20 46 -44 95 -25 49 -54 125 -65 168 -39 149 -22 336 40 458 l21 41 -54 56 c-30 31 -211 224 -402 429 -191 204 -349 372 -351 372 -1 0 -18 -19 -37 -42z" fill="#448aff"/>
<path d="M5561 1579 c-281 -302 -401 -436 -397 -448 3 -9 18 -50 32 -91 22 -60 29 -98 32 -186 5 -141 -17 -238 -87 -377 l-49 -97 46 4 c26 3 92 8 147 11 55 3 289 35 520 70 231 35 445 67 475 71 36 5 61 15 77 30 23 23 23 27 23 241 0 169 -4 245 -20 338 -33 204 -93 380 -192 565 -53 99 -185 300 -197 300 -4 0 -188 -194 -410 -431z" fill="#448aff"/>
<path d="M4383 1162 c-101 -36 -176 -104 -222 -202 -22 -46 -26 -69 -26 -145 0 -82 3 -97 33 -157 37 -75 104 -142 179 -179 41 -21 63 -24 153 -24 100 0 108 1 168 34 75 41 135 103 170 179 23 49 27 70 27 147 0 76 -5 99 -26 145 -38 81 -99 144 -175 181 -85 42 -199 50 -281 21z" fill="#448aff"/>
</g>
</svg>