<svg xmlns="http://www.w3.org/2000/svg" version="1.1" xmlns:xlink="http://www.w3.org/1999/xlink" width="512" height="512" x="0" y="0" viewBox="0 0 60 60" style="enable-background:new 0 0 512 512" xml:space="preserve" class=""><g><path d="M56 17h-6a4 4 0 0 0-4 4v2h-1a3 3 0 0 0-3 3v1h-4.483a4.956 4.956 0 0 1-3.4-1.362 5.992 5.992 0 0 0-8.232 0A4.952 4.952 0 0 1 22.483 27H18v-1a3 3 0 0 0-3-3h-1v-2a4 4 0 0 0-4-4H4a4 4 0 0 0-4 4v18a4 4 0 0 0 4 4h6a4 4 0 0 0 4-4v-2h1a3 3 0 0 0 3-3v-1h4.483a4.956 4.956 0 0 1 3.4 1.362 5.992 5.992 0 0 0 8.232 0A4.952 4.952 0 0 1 37.517 33H42v1a3 3 0 0 0 3 3h1v2a4 4 0 0 0 4 4h6a4 4 0 0 0 4-4V21a4 4 0 0 0-4-4ZM12 39a2 2 0 0 1-2 2H4a2 2 0 0 1-2-2V21a2 2 0 0 1 2-2h6a2 2 0 0 1 2 2Zm4-5a1 1 0 0 1-1 1h-1V25h1a1 1 0 0 1 1 1Zm21.517-3a6.944 6.944 0 0 0-4.772 1.907 4.089 4.089 0 0 1-5.49 0A6.947 6.947 0 0 0 22.483 31H18v-2h4.483a6.944 6.944 0 0 0 4.772-1.907 4.089 4.089 0 0 1 5.49 0A6.947 6.947 0 0 0 37.517 29H42v2ZM45 35a1 1 0 0 1-1-1v-8a1 1 0 0 1 1-1h1v10Zm13 4a2 2 0 0 1-2 2h-6a2 2 0 0 1-2-2V21a2 2 0 0 1 2-2h6a2 2 0 0 1 2 2Z" fill="#009dfe" opacity="1" data-original="#000000" class=""></path></g></svg>