<svg xmlns="http://www.w3.org/2000/svg" version="1.1" xmlns:xlink="http://www.w3.org/1999/xlink" width="512" height="512" x="0" y="0" viewBox="0 0 24 24" style="enable-background:new 0 0 512 512" xml:space="preserve" class=""><g><path d="M12 0C5.383 0 0 5.383 0 12s5.383 12 12 12 12-5.383 12-12S18.617 0 12 0Zm0 23C5.935 23 1 18.065 1 12S5.935 1 12 1s11 4.935 11 11-4.935 11-11 11Zm0-19c-4.411 0-8 3.589-8 8s3.589 8 8 8 8-3.589 8-8-3.589-8-8-8Zm1.341 9.764c-.418-.172-.871-.264-1.341-.264s-.924.091-1.341.264a3.634 3.634 0 0 0-.118-1.355 3.618 3.618 0 0 0-.587-1.196A3.112 3.112 0 0 0 12 9.853a3.097 3.097 0 0 0 2.046 1.361 3.638 3.638 0 0 0-.587 1.196 3.64 3.64 0 0 0-.118 1.356Zm4.949-4.832-2.914 1.18a2.066 2.066 0 0 1-1.955-.211 2.066 2.066 0 0 1-.922-1.737V5.019a7.011 7.011 0 0 1 5.79 3.914ZM11.5 5.018v3.145c0 .708-.336 1.341-.922 1.737s-1.299.473-1.949.213L5.72 8.909a7.014 7.014 0 0 1 5.779-3.891ZM5 12c0-.755.121-1.483.343-2.165l2.679 1.112a2.61 2.61 0 0 1 1.555 1.731 2.61 2.61 0 0 1-.421 2.279l-1.765 2.307A6.985 6.985 0 0 1 4.999 12Zm3.188 5.868L10 15.5c.477-.636 1.206-1 2-1s1.523.364 2 1l1.788 2.384A6.958 6.958 0 0 1 12 19a6.955 6.955 0 0 1-3.812-1.132Zm8.399-.585-1.737-2.316a2.61 2.61 0 0 1-.428-2.288 2.61 2.61 0 0 1 1.556-1.731l2.687-1.088a6.984 6.984 0 0 1-2.078 7.424Z" fill="#000000" opacity="1" data-original="#000000" class=""></path></g></svg>