<svg xmlns="http://www.w3.org/2000/svg" version="1.1" xmlns:xlink="http://www.w3.org/1999/xlink" width="512" height="512" x="0" y="0" viewBox="0 0 64 64" style="enable-background:new 0 0 512 512" xml:space="preserve" class=""><g><path fill="#000103" d="M41 46A20 20 0 1 0 7.771 61h26.458A19.952 19.952 0 0 0 41 46z" opacity="1" data-original="#9ba8ba" class=""></path><path fill="#000103" d="M41 46a19.923 19.923 0 0 0-4.893-13.107A20 20 0 0 0 7.8 61h26.429A19.952 19.952 0 0 0 41 46z" opacity="1" data-original="#8293aa" class=""></path><circle cx="21" cy="46" r="10" fill="#000103" opacity="1" data-original="#80c5f4" class=""></circle><path fill="#fff6f6" d="M22.5 57h-3V35h3z" opacity="1" data-original="#eff5f9" class=""></path><path fill="#fff6f6" d="m31.277 50.2-1.5 2.598-19.052-11 1.5-2.598z" opacity="1" data-original="#eff5f9" class=""></path><path fill="#fff6f6" d="m29.777 39.2 1.5 2.598-19.052 11-1.5-2.598z" opacity="1" data-original="#eff5f9" class=""></path><circle cx="21" cy="46" r="3" fill="#fbfcff" opacity="1" data-original="#fbfcff" class=""></circle><path fill="#fbfcff" d="M21 59a13 13 0 1 1 13-13 13.015 13.015 0 0 1-13 13zm0-23a10 10 0 1 0 10 10 10.011 10.011 0 0 0-10-10z" opacity="1" data-original="#fbfcff" class=""></path><path fill="#000103" d="M21 29.75a.75.75 0 0 0 .75-.75v-2.986Q21.377 26 21 26t-.75.014V29a.75.75 0 0 0 .75.75z" opacity="1" data-original="#8293aa" class=""></path><path fill="#f5f5f5" d="M37.25 46a.75.75 0 0 0 .75.75h2.986Q41 46.376 41 46t-.014-.75H38a.75.75 0 0 0-.75.75z" opacity="1" data-original="#667f96" class=""></path><path fill="#000103" d="M4.75 46a.75.75 0 0 0-.75-.75H1.014Q1 45.624 1 46t.014.75H4a.75.75 0 0 0 .75-.75zM14.781 30.987a.751.751 0 0 0 .406-.98l-1.144-2.763q-.7.261-1.385.574l1.142 2.763a.751.751 0 0 0 .981.406zM5.987 52.219a.751.751 0 0 0-.98-.406l-2.763 1.144q.261.7.574 1.385L5.581 53.2a.751.751 0 0 0 .406-.981zM9.51 34.51a.75.75 0 0 0 0-1.061L7.4 31.338q-.549.51-1.06 1.06l2.109 2.112a.75.75 0 0 0 1.061 0zM5.987 39.781a.751.751 0 0 0-.406-.98l-2.763-1.143q-.312.679-.574 1.385l2.763 1.144a.751.751 0 0 0 .98-.406z" opacity="1" data-original="#8293aa" class=""></path><path fill="#f5f5f5" d="M36.013 52.219a.751.751 0 0 0 .406.98l2.763 1.143q.312-.679.574-1.385l-2.763-1.144a.751.751 0 0 0-.98.406zM21 29.75a.75.75 0 0 0 .75-.75v-.961c-.5.031-1.006.081-1.5.149V29a.75.75 0 0 0 .75.75zM4.75 46a.75.75 0 0 0-.75-.75h-.812c-.068.494-.118.995-.149 1.5H4a.75.75 0 0 0 .75-.75zM14.781 30.987a.751.751 0 0 0 .406-.98l-.149-.359q-.69.3-1.354.65l.117.283a.751.751 0 0 0 .98.406zM5.987 52.219a.751.751 0 0 0-.98-.406l-1.507.626q.168.742.39 1.462l1.7-.7a.751.751 0 0 0 .397-.982zM9.51 34.51a.75.75 0 0 0 0-1.061l-.11-.111q-.549.51-1.06 1.06l.111.112a.75.75 0 0 0 1.059 0zM5.987 39.781a.751.751 0 0 0-.406-.98l-.281-.117q-.349.663-.65 1.354l.359.149a.751.751 0 0 0 .978-.406z" opacity="1" data-original="#667f96" class=""></path><circle cx="43" cy="21" r="20" fill="#000103" opacity="1" data-original="#abb5c3" class=""></circle><path fill="#000103" d="M45 3a20 20 0 0 0-15.107 33.107A20 20 0 0 0 58.107 7.893 19.923 19.923 0 0 0 45 3z" opacity="1" data-original="#9ba8ba" class=""></path><circle cx="43" cy="21" r="10" fill="#000103" opacity="1" data-original="#80c5f4" class=""></circle><path fill="#fff6f6" d="M44.5 32h-3V10h3z" opacity="1" data-original="#eff5f9" class=""></path><path fill="#fff6f6" d="m53.277 25.2-1.5 2.598-19.052-11 1.5-2.598z" opacity="1" data-original="#eff5f9" class=""></path><path fill="#fff6f6" d="m51.776 14.2 1.5 2.598-19.052 11-1.5-2.598z" opacity="1" data-original="#eff5f9" class=""></path><circle cx="43" cy="21" r="3" fill="#fbfcff" opacity="1" data-original="#fbfcff" class=""></circle><path fill="#fbfcff" d="M43 34a13 13 0 1 1 13-13 13.015 13.015 0 0 1-13 13zm0-23a10 10 0 1 0 10 10 10.011 10.011 0 0 0-10-10z" opacity="1" data-original="#fbfcff" class=""></path><path fill="#000103" d="M43 4.75a.75.75 0 0 0 .75-.75V1.014Q43.376 1 43 1t-.75.014V4a.75.75 0 0 0 .75.75z" opacity="1" data-original="#8293aa" class=""></path><path fill="#f5f5f5" d="M43 37.25a.75.75 0 0 0-.75.75v2.986q.374.014.75.014t.75-.014V38a.75.75 0 0 0-.75-.75zM59.25 21a.75.75 0 0 0 .75.75h2.986Q63 21.377 63 21t-.014-.75H60a.75.75 0 0 0-.75.75z" opacity="1" data-original="#667f96" class=""></path><path fill="#000103" d="M26.75 21a.75.75 0 0 0-.75-.75h-2.986Q23 20.624 23 21t.014.75H26a.75.75 0 0 0 .75-.75zM36.781 5.987a.751.751 0 0 0 .406-.98l-1.144-2.763q-.7.261-1.385.574L35.8 5.581a.751.751 0 0 0 .981.406z" opacity="1" data-original="#8293aa" class=""></path><path fill="#f5f5f5" d="M49.219 36.013a.751.751 0 0 0-.406.98l1.144 2.763q.7-.261 1.385-.574L50.2 36.419a.751.751 0 0 0-.981-.406zM58.013 14.781a.751.751 0 0 0 .98.406l2.763-1.144q-.261-.7-.574-1.385L58.419 13.8a.751.751 0 0 0-.406.981z" opacity="1" data-original="#667f96" class=""></path><path fill="#000103" d="M27.987 27.219a.751.751 0 0 0-.98-.406l-2.763 1.144q.261.7.574 1.385l2.763-1.142a.751.751 0 0 0 .406-.981zM31.51 9.51a.75.75 0 0 0 0-1.061L29.4 6.338q-.549.51-1.06 1.06l2.109 2.112a.75.75 0 0 0 1.061 0z" opacity="1" data-original="#8293aa" class=""></path><path fill="#f5f5f5" d="M54.49 32.49a.75.75 0 0 0 0 1.061l2.11 2.111q.549-.51 1.06-1.06l-2.109-2.112a.75.75 0 0 0-1.061 0z" opacity="1" data-original="#667f96" class=""></path><path fill="#000103" d="M54.49 9.51a.75.75 0 0 0 1.061 0l2.111-2.11q-.51-.549-1.06-1.06L54.49 8.449a.75.75 0 0 0 0 1.061zM31.51 32.49a.75.75 0 0 0-1.061 0l-2.111 2.11q.51.549 1.06 1.06l2.112-2.111a.75.75 0 0 0 0-1.059zM27.987 14.781a.751.751 0 0 0-.406-.98l-2.763-1.143q-.312.68-.574 1.385l2.763 1.144a.751.751 0 0 0 .98-.406z" opacity="1" data-original="#8293aa" class=""></path><path fill="#f5f5f5" d="M58.013 27.219a.751.751 0 0 0 .406.98l2.763 1.143q.312-.679.574-1.385l-2.763-1.144a.751.751 0 0 0-.98.406z" opacity="1" data-original="#667f96" class=""></path><path fill="#000103" d="M49.219 5.987a.751.751 0 0 0 .98-.406l1.143-2.763q-.679-.312-1.385-.574l-1.144 2.763a.751.751 0 0 0 .406.98z" opacity="1" data-original="#8293aa" class=""></path><g fill="#667f96"><path d="M43 4.75a.75.75 0 0 0 .75-.75v-.961c-.505.031-1.006.081-1.5.149V4a.75.75 0 0 0 .75.75zM26.75 21a.75.75 0 0 0-.75-.75h-.812c-.068.494-.118 1-.149 1.5H26a.75.75 0 0 0 .75-.75zM36.781 5.987a.751.751 0 0 0 .406-.98l-.149-.359q-.69.3-1.354.65l.117.283a.751.751 0 0 0 .98.406zM27.987 27.219a.751.751 0 0 0-.98-.406l-1.512.626q.168.742.39 1.462l1.7-.7a.751.751 0 0 0 .402-.982zM31.51 9.51a.75.75 0 0 0 0-1.061l-.11-.111q-.549.51-1.06 1.06l.111.112a.75.75 0 0 0 1.059 0zM54.49 9.51a.75.75 0 0 0 1.061 0L57.6 7.464q-.588-.477-1.211-.909L54.49 8.449a.75.75 0 0 0 0 1.061zM31.51 32.49a.75.75 0 0 0-1.061 0l-1.894 1.895q.432.622.909 1.211l2.046-2.045a.75.75 0 0 0 0-1.061zM27.987 14.781a.751.751 0 0 0-.406-.98l-.283-.117q-.349.663-.65 1.354l.359.149a.751.751 0 0 0 .98-.406zM49.219 5.987a.751.751 0 0 0 .98-.406l.7-1.7q-.72-.222-1.462-.39l-.626 1.512a.751.751 0 0 0 .408.984zM36.781 36.013a.751.751 0 0 0-.98.406l-1.143 2.763q.679.312 1.385.574l1.144-2.763a.751.751 0 0 0-.406-.98z" fill="#f5f5f5" opacity="1" data-original="#667f96" class=""></path></g><path fill="#000103" d="m21 6-7-5v3H9a8 8 0 0 0-8 8v13h4V12a4 4 0 0 1 4-4h5v3zM43 58l7 5v-3h5a8 8 0 0 0 8-8V39h-4v13a4 4 0 0 1-4 4h-5v-3z" opacity="1" data-original="#f56d6d" class=""></path><path fill="#f5f5f5" d="M35.976 59.255q.5-.566.96-1.169A3.48 3.48 0 0 0 35 57.5h-3.25a.75.75 0 0 0 0 1.5H35a1.991 1.991 0 0 1 .976.255z" opacity="1" data-original="#667f96" class=""></path><path fill="#000103" d="M6.024 59.255A1.991 1.991 0 0 1 7 59h3.25a.75.75 0 0 0 0-1.5H7a3.48 3.48 0 0 0-1.936.586q.459.603.96 1.169z" opacity="1" data-original="#8293aa" class=""></path><path fill="#f5f5f5" d="M11 58.25a.75.75 0 0 0-.75-.75H7a3.486 3.486 0 0 0-1.434.307q.375.664.8 1.3A2 2 0 0 1 7 59h3.25a.75.75 0 0 0 .75-.75z" opacity="1" data-original="#667f96" class=""></path><path fill="#000103" d="M31 59h4a2 2 0 0 1 2 2 2 2 0 0 1-2 2H7a2 2 0 0 1-2-2 2 2 0 0 1 2-2h4" opacity="1" data-original="#8293aa" class=""></path></g></svg>