<svg xmlns="http://www.w3.org/2000/svg" version="1.1" xmlns:xlink="http://www.w3.org/1999/xlink" width="512" height="512" x="0" y="0" viewBox="0 0 512 512" style="enable-background:new 0 0 512 512" xml:space="preserve" class=""><g><g data-name="Out line"><path d="M456 320h-8.022A39.79 39.79 0 0 0 456 296v-80a39.79 39.79 0 0 0-8.022-24H448a40.046 40.046 0 0 0 40-40V72a40.046 40.046 0 0 0-40-40H200a40.046 40.046 0 0 0-40 40v56h16v-24h296v16H208v16h264v16a24.037 24.037 0 0 1-18.765 23.418l9.92-19.84-14.31-7.156L435.055 176h-14.11l10.21-20.422-14.31-7.156L403.055 176h-14.11l10.21-20.422-14.31-7.156L371.055 176h-14.11l10.21-20.422-14.31-7.156L339.055 176H320v16h19.056l13.789 27.578 14.31-7.156L356.945 192h14.11l13.79 27.578 14.31-7.156L388.945 192h14.11l13.79 27.578 14.31-7.156-9.92-19.84A24.037 24.037 0 0 1 440 216v16h-88v16h88v16h-72v16h72v16a24.038 24.038 0 0 1-18.765 23.418l9.92-19.84-14.31-7.156L403.055 320h-14.11l10.21-20.422-14.31-7.156L371.055 320H368v16h11.056l13.789 27.578 14.31-7.156L396.945 336h14.11l13.79 27.578 14.31-7.156L428.945 336h14.11l13.79 27.578 14.31-7.156-9.92-19.84A24.038 24.038 0 0 1 480 360v16H352v16h128v16H336v16h144v16a24.038 24.038 0 0 1-18.765 23.418l9.92-19.84-14.31-7.156L443.055 464h-14.11l10.21-20.422-14.31-7.156L411.055 464h-14.11l10.21-20.422-14.31-7.156L379.055 464h-14.11l10.21-20.422-14.31-7.156L347.055 464h-14.11l10.21-20.422-14.31-7.156L315.055 464H280v16h176a40.046 40.046 0 0 0 40-40v-80a40.046 40.046 0 0 0-40-40ZM176 88V72a23.912 23.912 0 0 1 6.734-16.644l10.11 20.222 14.311-7.156-10.116-20.233A24.09 24.09 0 0 1 200 48h11.056l13.789 27.578 14.31-7.156L228.945 48h14.11l13.79 27.578 14.31-7.156L260.945 48h14.11l13.79 27.578 14.31-7.156L292.945 48h14.11l13.79 27.578 14.31-7.156L324.945 48h14.11l13.79 27.578 14.31-7.156L356.945 48h14.11l13.79 27.578 14.31-7.156L388.945 48h14.11l13.79 27.578 14.31-7.156L420.945 48h14.11l13.79 27.578 14.31-7.156-9.92-19.84A24.037 24.037 0 0 1 472 72v16Z" fill="#000000" opacity="1" data-original="#000000" class=""></path><path d="M352 312c0-92.636-75.364-168-168-168S16 219.364 16 312s75.364 168 168 168 168-75.364 168-168Zm-66.176 90.51-11.314 11.312 11.111 11.112a153.008 153.008 0 0 1-18.824 14.474l-7.868-13.629-13.858 8 7.886 13.658a151.102 151.102 0 0 1-21.943 9.112l-4.087-15.253-15.455 4.14 4.089 15.26A151.586 151.586 0 0 1 192 463.79V448h-16v15.79a151.586 151.586 0 0 1-23.56-3.094l4.088-15.26-15.455-4.14-4.087 15.253a151.102 151.102 0 0 1-21.943-9.111l7.886-13.659-13.858-8-7.868 13.63a152.963 152.963 0 0 1-18.824-14.474l11.111-11.11-11.312-11.315-11.112 11.111a152.982 152.982 0 0 1-14.474-18.824l13.629-7.868-8-13.858-13.659 7.886a151.12 151.12 0 0 1-9.11-21.943l15.252-4.087-4.14-15.455-15.26 4.089A151.582 151.582 0 0 1 32.21 320H48v-16H32.21a151.582 151.582 0 0 1 3.094-23.56l15.26 4.088 4.14-15.455-15.253-4.087a151.108 151.108 0 0 1 9.112-21.943l13.658 7.886 8-13.858-13.629-7.868a152.961 152.961 0 0 1 14.473-18.824l11.11 11.111 11.315-11.312-11.111-11.112a152.982 152.982 0 0 1 18.824-14.474l7.868 13.629 13.858-8-7.886-13.659a151.1 151.1 0 0 1 21.943-9.11l4.087 15.252 15.455-4.14-4.089-15.26A151.586 151.586 0 0 1 176 160.21V176h16v-15.79a151.586 151.586 0 0 1 23.56 3.094l-4.088 15.26 15.455 4.14 4.087-15.253a151.1 151.1 0 0 1 21.943 9.112l-7.886 13.658 13.858 8 7.868-13.629a152.961 152.961 0 0 1 18.824 14.473l-11.111 11.11 11.312 11.315 11.112-11.111a152.982 152.982 0 0 1 14.474 18.824l-13.629 7.868 8 13.858 13.659-7.886a151.108 151.108 0 0 1 9.11 21.943l-15.252 4.087 4.14 15.455 15.26-4.089A151.582 151.582 0 0 1 335.79 304H320v16h15.79a151.582 151.582 0 0 1-3.094 23.56l-15.26-4.088-4.14 15.455 15.253 4.087a151.12 151.12 0 0 1-9.112 21.943l-13.658-7.886-8 13.858 13.629 7.868a152.961 152.961 0 0 1-14.473 18.824Z" fill="#000000" opacity="1" data-original="#000000" class=""></path><path d="M272 312a88 88 0 1 0-88 88 88.1 88.1 0 0 0 88-88Zm-49.91 12.379a83.726 83.726 0 0 1 33.84-9.597 71.555 71.555 0 0 1-12.105 37.23 83.649 83.649 0 0 1-21.735-27.633Zm18.437-56.894a83.414 83.414 0 0 1-32.98 12.11 83.792 83.792 0 0 1 1.339-35.158 72.305 72.305 0 0 1 31.641 23.048Zm-47.177-26.858a99.75 99.75 0 0 0 .158 49.647 8 8 0 0 0 7.738 5.986c.16 0 .32-.005.482-.015a99.47 99.47 0 0 0 47.268-15.197 71.408 71.408 0 0 1 5.775 17.779 99.74 99.74 0 0 0-47.178 15.502 8 8 0 0 0-3.138 9.668 99.656 99.656 0 0 0 29.039 40.22 72.378 72.378 0 0 1-15.1 11.021 99.827 99.827 0 0 0-29.315-40.079 7.998 7.998 0 0 0-10.16.002 99.424 99.424 0 0 0-29.303 40.083 72.366 72.366 0 0 1-15.098-11.015 99.999 99.999 0 0 0 29.027-40.233 8 8 0 0 0-3.138-9.667 99.43 99.43 0 0 0-47.18-15.492A71.421 71.421 0 0 1 119 281.059a100.018 100.018 0 0 0 47.274 15.186q.242.015.48.015a8 8 0 0 0 7.74-5.987 99.417 99.417 0 0 0 .148-49.645 70.006 70.006 0 0 1 18.709 0Zm-69.172 111.39a71.549 71.549 0 0 1-12.107-37.232 83.403 83.403 0 0 1 33.84 9.592 83.965 83.965 0 0 1-21.733 27.64Zm34.933-107.579a83.387 83.387 0 0 1 1.344 35.157 84.109 84.109 0 0 1-32.983-12.109 72.306 72.306 0 0 1 31.64-23.048Zm5.315 136.835A83.35 83.35 0 0 1 184 352.051a83.829 83.829 0 0 1 19.574 29.222 71.624 71.624 0 0 1-39.148 0Z" fill="#000000" opacity="1" data-original="#000000" class=""></path><circle cx="184" cy="312" r="8" fill="#000000" opacity="1" data-original="#000000" class=""></circle><path d="m90.426 357.423-14.39 6.994A119.977 119.977 0 0 0 184 432v-16a103.98 103.98 0 0 1-93.574-58.577ZM277.574 266.577l14.39-6.994A119.977 119.977 0 0 0 184 192v16a103.98 103.98 0 0 1 93.574 58.577ZM96.28 256.107a104.26 104.26 0 0 1 42.297-37.681l-6.994-14.39A119.977 119.977 0 0 0 64 312h16a103.637 103.637 0 0 1 16.28-55.893ZM288 312a103.98 103.98 0 0 1-58.577 93.574l6.994 14.39A119.977 119.977 0 0 0 304 312Z" fill="#000000" opacity="1" data-original="#000000" class=""></path></g></g></svg>