<svg xmlns="http://www.w3.org/2000/svg" version="1.1" xmlns:xlink="http://www.w3.org/1999/xlink" width="512" height="512" x="0" y="0" viewBox="0 0 512 512" style="enable-background:new 0 0 512 512" xml:space="preserve" class=""><g><path d="M289.133 313.2c13.27 0 24.067-10.796 24.067-24.066s-10.796-24.067-24.067-24.067c-13.27 0-24.066 10.797-24.066 24.067s10.796 24.066 24.066 24.066zm0-33.134c4.999 0 9.067 4.067 9.067 9.067 0 4.999-4.067 9.066-9.067 9.066-4.999 0-9.066-4.067-9.066-9.066s4.067-9.067 9.066-9.067z" fill="#000000" opacity="1" data-original="#000000" class=""></path><path d="M446.729 446.718C488.82 404.625 512 348.66 512 289.134c0-59.528-23.18-115.492-65.271-157.585l-.006-.006-.007-.006c-42.093-42.089-98.057-65.269-157.583-65.269-38.274 0-75.49 9.704-108.565 28.189a90.95 90.95 0 0 0 .098-4.122C180.666 40.523 140.143 0 90.333 0 71.469 0 53.394 5.757 38.065 16.648a7.5 7.5 0 0 0 8.688 12.229C59.53 19.799 74.6 15 90.333 15c41.539 0 75.333 33.794 75.333 75.333s-33.794 75.334-75.333 75.334S15 131.872 15 90.333c0-15.002 4.395-29.488 12.712-41.892a7.5 7.5 0 0 0-12.459-8.353C5.274 54.972 0 72.346 0 90.333c0 41.479 28.103 76.512 66.267 87.073V198.8H65.2c-8.547 0-15.5 6.953-15.5 15.5v17.134c0 8.547 6.953 15.5 15.5 15.5h1.066v91.899c0 23.064 10.646 43.681 27.274 57.218l.002.004C132.719 467.572 207.665 512 289.133 512c59.526 0 115.49-23.179 157.583-65.269l.007-.006.006-.007zM81.267 180.214a90.88 90.88 0 0 0 18.133 0V198.8H81.267zM64.7 231.434V214.3a.5.5 0 0 1 .5-.5h50.267a.5.5 0 0 1 .5.5v17.134a.5.5 0 0 1-.5.5H65.2a.5.5 0 0 1-.5-.5zm16.567 107.399v-91.899H99.4v91.899c0 22.405 18.228 40.634 40.633 40.634h132.534c4.999 0 9.066 4.067 9.066 9.066s-4.067 9.066-9.066 9.066H140.033c-32.404.001-58.766-26.362-58.766-58.766zm113.42-102.984 63.136 20.515a7.504 7.504 0 0 0 6.726-1.066 7.5 7.5 0 0 0 3.092-6.067V182.81c6.949-1.402 14.135-2.142 21.492-2.142s14.543.74 21.492 2.142v66.421a7.498 7.498 0 0 0 7.501 7.5 7.5 7.5 0 0 0 2.317-.367l63.136-20.515a107.663 107.663 0 0 1 13.306 40.872l-63.161 20.522a7.5 7.5 0 0 0-3.75 11.541l39.004 53.684a109.002 109.002 0 0 1-34.746 25.301l-39.031-53.721a7.5 7.5 0 0 0-12.134 0l-22.101 30.419h-49.867a112.65 112.65 0 0 1-1.843-1.952l39.037-53.731a7.5 7.5 0 0 0-3.75-11.541l-63.161-20.522a107.64 107.64 0 0 1 13.305-40.872zm8.628-12.969c12.57-16.245 29.64-28.836 49.326-35.89v51.917zm171.636 0-49.326 16.027V186.99c19.686 7.054 36.756 19.646 49.326 35.89zm3.718 127.406-30.492-41.968 49.374-16.043c-.614 21.471-7.499 41.397-18.882 58.011zm-99.78 15.029 10.244-14.1 30.52 42.006a107.87 107.87 0 0 1-24.737 4.223 23.927 23.927 0 0 0 1.718-8.912c-.001-11.081-7.533-20.433-17.745-23.217zm-48.8-56.997-30.537 42.031c-11.701-17.034-18.245-37.021-18.838-58.074zM140.033 412.6h52.771c27.73 21.677 60.997 33.134 96.329 33.134 86.35 0 156.6-70.25 156.6-156.6s-70.251-156.601-156.6-156.601c-36.445 0-71.938 12.796-99.94 36.031a7.5 7.5 0 0 0-.983 10.561 7.497 7.497 0 0 0 10.561.982c25.315-21.006 57.407-32.574 90.361-32.574 78.079 0 141.6 63.521 141.6 141.601 0 78.078-63.522 141.6-141.6 141.6-24.753 0-48.384-6.22-69.433-18.134h52.866a24.03 24.03 0 0 0 5.059-.54c3.81.352 7.673.54 11.507.54 15.764 0 30.846-2.975 44.719-8.384a7.454 7.454 0 0 0 1.255-.499c18.981-7.643 35.639-19.871 48.599-35.306.482-.449.893-.95 1.232-1.49 17.284-21.247 27.663-48.326 27.663-77.787 0-24.073-6.932-46.553-18.894-65.564a7.452 7.452 0 0 0-.912-1.433c-16.527-25.483-42.186-44.518-72.308-52.431a7.397 7.397 0 0 0-.966-.25 123.297 123.297 0 0 0-30.387-3.788 123.29 123.29 0 0 0-30.387 3.788c-.33.062-.652.146-.966.25-30.122 7.914-55.782 26.949-72.309 52.433-.352.433-.656.91-.909 1.427-11.964 19.012-18.897 41.494-18.897 65.568 0 27.657 9.004 53.851 25.626 75.333h-22.059c-14.199-22.546-21.7-48.499-21.7-75.333 0-32.646 10.794-63.317 31.214-88.697a7.5 7.5 0 1 0-11.687-9.402c-22.266 27.672-34.528 62.512-34.528 98.1 0 26.555 6.654 52.331 19.305 75.333H140.03c-14.134 0-25.633-11.499-25.633-25.634v-91.899h1.067c8.547 0 15.5-6.953 15.5-15.5V214.3c0-8.547-6.953-15.5-15.5-15.5H114.4v-21.393c30.73-8.504 54.932-32.876 63.196-63.705 31.21-19.887 66.974-30.981 104.038-32.3v8.932c0 4.143 3.358 7.5 7.5 7.5s7.5-3.357 7.5-7.5v-8.917c51.664 1.842 98.579 22.625 134.007 55.604l-6.237 6.237a7.5 7.5 0 0 0 10.606 10.606l6.237-6.237c32.98 35.428 53.762 82.343 55.604 134.007h-8.917c-4.142 0-7.5 3.357-7.5 7.5s3.358 7.5 7.5 7.5h8.917c-1.842 51.664-22.624 98.579-55.604 134.007l-6.237-6.237a7.5 7.5 0 0 0-10.607 10.605l6.237 6.238c-35.427 32.98-82.343 53.762-134.007 55.604v-8.917c0-4.143-3.358-7.5-7.5-7.5s-7.5 3.357-7.5 7.5v8.929c-50.544-1.818-97.963-21.941-134.092-55.531l6.322-6.323a7.5 7.5 0 1 0-10.606-10.605l-6.323 6.323a207.929 207.929 0 0 1-17.118-20.966 73.583 73.583 0 0 0 20.217 2.839z" fill="#000000" opacity="1" data-original="#000000" class=""></path><path d="M90.333 147.533c31.54 0 57.2-25.66 57.2-57.2s-25.66-57.199-57.2-57.199-57.2 25.659-57.2 57.199 25.66 57.2 57.2 57.2zm0-33.133c9.52 0 18.712 3.239 26.103 9.054-7.188 5.677-16.253 9.079-26.103 9.079s-18.914-3.401-26.103-9.078a42.253 42.253 0 0 1 26.103-9.055zm0-66.266c23.269 0 42.2 18.931 42.2 42.199a41.945 41.945 0 0 1-6.131 21.886 57.326 57.326 0 0 0-20.227-10.555l14.311-14.311a7.5 7.5 0 1 0-10.606-10.605L87.133 99.494a57.292 57.292 0 0 0-32.869 12.725 41.945 41.945 0 0 1-6.131-21.886c0-23.269 18.931-42.199 42.2-42.199z" fill="#000000" opacity="1" data-original="#000000" class=""></path></g></svg>