<svg xmlns="http://www.w3.org/2000/svg" version="1.1" xmlns:xlink="http://www.w3.org/1999/xlink" width="512" height="512" x="0" y="0" viewBox="0 0 512 512" style="enable-background:new 0 0 512 512" xml:space="preserve" class=""><g><linearGradient id="a" x1="256.739" x2="256.739" y1="33.019" y2="490.918" gradientUnits="userSpaceOnUse"><stop stop-opacity="1" stop-color="#448aff" offset="0.6604937842807636"></stop><stop stop-opacity="1" stop-color="#448aff" offset="0.6836419313387491"></stop><stop stop-opacity="1" stop-color="#448aff" offset="0.9807098185828965"></stop><stop stop-opacity="1" stop-color="#a03a8d" offset="1"></stop></linearGradient><path fill="url(#a)" fill-rule="evenodd" d="M215.86 80.23c77.66 0 140.85 63.19 140.85 140.85 0 3.34-.13 6.7-.37 10.03 3.33.11 6.68.39 10.05.88 13.06 1.87 25.29 6.47 36.08 13.37.77-6.05 1.26-12.15 1.45-18.28h-21.6c-3.31 0-6-2.68-6-6 0-3.31 2.69-6 6-6h21.6c-.94-29.87-8.87-58-22.22-82.82l-18.68 10.79c-.95.54-1.98.8-3 .8-2.07 0-4.09-1.07-5.2-3a5.99 5.99 0 0 1 2.2-8.19l18.66-10.78a189.53 189.53 0 0 0-60.62-60.62l-10.78 18.66c-1.11 1.93-3.12 3-5.2 3-1.02 0-2.05-.26-2.99-.8-2.87-1.66-3.86-5.33-2.2-8.2l10.79-18.68c-24.82-13.35-52.95-21.28-82.82-22.22v21.6c0 3.31-2.69 6-6 6-3.32 0-6-2.69-6-6v-21.6c-29.88.94-58.01 8.87-82.83 22.22l10.79 18.68c1.66 2.87.67 6.54-2.2 8.2-.94.54-1.97.8-2.99.8-2.07 0-4.09-1.07-5.2-3l-10.78-18.66a189.53 189.53 0 0 0-60.62 60.62l18.66 10.78a5.98 5.98 0 0 1 2.2 8.19c-1.11 1.93-3.13 3-5.2 3-1.02 0-2.05-.26-3-.8l-18.68-10.79c-13.35 24.82-21.28 52.95-22.22 82.82h21.6c3.32 0 6 2.69 6 6 0 3.32-2.68 6-6 6h-21.6c.94 29.88 8.87 58.01 22.22 82.83l18.68-10.79c2.88-1.65 6.54-.67 8.2 2.2s.68 6.53-2.2 8.19l-18.66 10.78a189.53 189.53 0 0 0 60.62 60.62l10.78-18.66c1.66-2.87 5.32-3.86 8.19-2.2s3.86 5.33 2.2 8.2l-10.79 18.68c24.82 13.35 52.95 21.28 82.83 22.22v-21.6c0-3.32 2.68-6 6-6 3.31 0 6 2.68 6 6v21.61c25.42-.82 50.53-6.81 73.45-17.48-12.51-10.47-22.07-24.18-27.52-39.63-16.51 6.56-33.94 9.89-51.93 9.89C138.19 361.94 75 298.75 75 221.08c0-77.66 63.19-140.85 140.86-140.85zm222.57 329.23-24.82 18.59 35.28 55.75c2.87 4.55 7.26 6.2 10.44 6.79 5.87 1.07 12.35-.51 17.32-4.24 4.98-3.73 8.32-9.5 8.94-15.43.33-3.21-.02-7.89-3.58-11.93zm-20.62-23.43 12.66 14.39-23.3 17.46-10.24-16.2c7.67-4.19 14.7-9.47 20.88-15.65zm-12.42-102.98c10.38 13.86 14.75 30.94 12.29 48.09-2.46 17.14-11.45 32.3-25.31 42.69-11.34 8.49-24.83 12.95-38.74 12.95-3.11 0-6.23-.22-9.35-.67-17.15-2.46-32.31-11.44-42.69-25.31-10.39-13.86-14.75-30.94-12.29-48.08 2.46-17.15 11.45-32.31 25.31-42.69 13.87-10.39 30.95-14.75 48.09-12.29s32.31 11.45 42.69 25.31zm11.22-8.4c12.63 16.86 17.93 37.62 14.94 58.48-2.99 20.85-13.92 39.29-30.78 51.91-16.86 12.63-37.63 17.94-58.48 14.95S303 386.06 290.37 369.2s-17.93-37.62-14.94-58.47c2.99-20.86 13.92-39.29 30.78-51.92 13.79-10.33 30.19-15.76 47.11-15.76 3.77 0 7.57.27 11.37.81 20.85 3 39.29 13.93 51.92 30.79zm-63.23-5.58c2.52 0 5.06.18 7.61.55h.01c28.85 4.14 48.94 30.97 44.8 59.81-2 13.97-9.33 26.33-20.63 34.79s-25.22 12.02-39.19 10.02c-13.97-2.01-26.32-9.33-34.79-20.63-8.46-11.3-12.02-25.22-10.01-39.19 2-13.97 9.33-26.33 20.63-34.79 9.24-6.92 20.23-10.56 31.57-10.56zm-66.53-131.86c4.64 3.93 8.95 8.24 12.88 12.88l-33.39 33.39c-4.87 4.87-6.25 11.84-3.62 18.19 2.63 6.36 8.54 10.31 15.42 10.31h47.28c.24 3 .38 6.04.38 9.1 0 3.04-.13 6.09-.38 9.11h-47.28c-6.88 0-12.79 3.95-15.42 10.31-2.63 6.35-1.25 13.32 3.62 18.18l12.08 12.08a90.44 90.44 0 0 0-9.03 16.74l-15.93-15.93c-4.87-4.87-11.84-6.25-18.19-3.62-6.36 2.63-10.31 8.54-10.31 15.42v47.28c-3.01.24-6.04.37-9.1.37-3.07 0-6.11-.13-9.11-.38v-47.27c0-6.88-3.95-12.79-10.31-15.42-6.35-2.63-13.32-1.25-18.18 3.62l-33.39 33.39c-4.64-3.94-8.95-8.24-12.89-12.89l33.39-33.39c4.87-4.86 6.25-11.83 3.62-18.18-2.63-6.36-8.54-10.31-15.42-10.31H106.3c-.25-3-.38-6.04-.38-9.11 0-3.06.13-6.1.38-9.1h47.27c6.88 0 12.79-3.95 15.42-10.31 2.63-6.35 1.25-13.32-3.62-18.19l-33.39-33.39a111.2 111.2 0 0 1 12.89-12.88l33.39 33.39c3.23 3.24 7.39 4.93 11.69 4.93 2.17 0 4.37-.43 6.49-1.31 6.36-2.63 10.31-8.54 10.31-15.42v-47.27c3-.25 6.04-.38 9.11-.38 3.06 0 6.1.13 9.1.38v47.27c0 6.88 3.95 12.79 10.31 15.42 2.13.88 4.33 1.31 6.49 1.31 4.3 0 8.46-1.69 11.7-4.93zm-70.99 44.31c21.81 0 39.56 17.75 39.56 39.56 0 21.82-17.75 39.56-39.56 39.56-21.82 0-39.56-17.74-39.56-39.56 0-21.81 17.74-39.56 39.56-39.56z" clip-rule="evenodd" opacity="1" data-original="url(#a)" class=""></path></g></svg>