<svg xmlns="http://www.w3.org/2000/svg" version="1.1" xmlns:xlink="http://www.w3.org/1999/xlink" width="512" height="512" x="0" y="0" viewBox="0 0 511.628 511.628" style="enable-background:new 0 0 512 512" xml:space="preserve" class=""><g><path d="m431.731 376.759 22.696-86.185c16.438-4.483 28.56-19.536 28.56-37.374 0-16.966-10.968-31.41-26.182-36.64l-27.49-74.547c6.522-2.707 11.124-9.138 11.124-16.628v-19.59c10.543-4.193 18.02-14.492 18.02-26.512V44.335c5.738-2.794 9.712-8.668 9.712-15.468V17.212C468.17 7.721 460.449 0 450.958 0h-29.147c-4.143 0-7.5 3.358-7.5 7.5s3.357 7.5 7.5 7.5h29.147c1.22 0 2.212.992 2.212 2.212v11.655c0 1.22-.992 2.212-2.212 2.212H69.738a2.214 2.214 0 0 1-2.212-2.212V17.212c0-1.22.992-2.212 2.212-2.212h320.11c4.143 0 7.5-3.358 7.5-7.5s-3.357-7.5-7.5-7.5H69.738c-9.49 0-17.212 7.721-17.212 17.212v11.655c0 6.8 3.974 12.674 9.712 15.468v34.948c0 11.245 6.543 20.988 16.02 25.631v20.471c0 7.821 5.023 14.474 12.005 16.951L62.892 216.56c-15.214 5.23-26.182 19.674-26.182 36.64 0 17.839 12.123 32.891 28.56 37.374l24.447 92.836H76.144a25.225 25.225 0 0 0-19.278 8.932l-23.78 28.061a25.3 25.3 0 0 0-5.991 16.337v62.827c0 6.65 5.41 12.06 12.06 12.06h62.694c5.986 0 11.075-4.646 11.588-10.579 1.557-18.061 16.998-32.208 35.154-32.208 18.157 0 33.6 14.147 35.155 32.209.513 5.932 5.602 10.579 11.588 10.579h114.188c5.986 0 11.076-4.646 11.588-10.579 1.557-18.061 16.999-32.208 35.155-32.208s33.599 14.147 35.155 32.209c.512 5.932 5.602 10.579 11.588 10.579h69.466c6.649 0 12.06-5.41 12.06-12.06v-62.961c0-30.718-23.078-56.128-52.803-59.849zm37.803 59.847v28.802h-17.788v-38.793a3.095 3.095 0 0 1 3.092-3.092h12.764a45.215 45.215 0 0 1 1.932 13.083zM178.729 92.808l23.394-46.729h35.179l-23.395 46.729zm-51.952 0 23.394-46.729h35.178l-23.394 46.729zM93.012 218.685a38.424 38.424 0 0 0-13.439-4.005l26.291-71.296h14.916zm43.141-90.301H96.256a3.003 3.003 0 0 1-2.999-2.999v-17.577h45.895v17.577a3.003 3.003 0 0 1-2.999 2.999zm117.923-82.305h35.178L265.86 92.808h-35.178zm87.13 0-23.395 46.729h-35.178l23.395-46.729zm51.953 0-23.394 46.729h-35.179l23.395-46.729zm32.28 79.306a3.003 3.003 0 0 1-2.999 2.999h-39.896a3.003 3.003 0 0 1-2.999-2.999v-17.577h45.895v17.577zm-189.038-17.577h45.895v17.577a3.003 3.003 0 0 1-2.999 2.999H239.4a3.003 3.003 0 0 1-2.999-2.999zm16.449 35.576h13.996v56.959c-2.272-.416-4.608-.645-6.998-.645s-4.726.229-6.998.645zm6.998 71.314c13.091 0 23.741 10.65 23.741 23.742 0 13.091-10.65 23.741-23.741 23.741s-23.741-10.65-23.741-23.741c0-13.092 10.65-23.742 23.741-23.742zm-6.998 61.837c2.272.416 4.608.645 6.998.645s4.726-.229 6.998-.645v22.231H252.85zm28.996-6.23c10.106-6.998 16.743-18.669 16.743-31.865 0-13.197-6.637-24.867-16.743-31.865v-63.392c8.718-1.245 15.449-8.74 15.449-17.797v-17.577h67.249v17.577c0 9.925 8.074 17.999 17.999 17.999h.386l6.295 17.07a7.503 7.503 0 0 0 7.038 4.907 7.499 7.499 0 0 0 7.036-10.096l-4.381-11.88h14.915l26.291 71.296a38.397 38.397 0 0 0-13.439 4.005l-12.327-33.43a7.5 7.5 0 0 0-14.074 5.189l14.066 38.144c-5.523 6.697-8.844 15.274-8.844 24.611a38.516 38.516 0 0 0 7.314 22.613l-17.091 64.9c-10.466-25.234-35.241-41.947-62.79-41.947h-51.091v-28.462zm143.533 16.714a38.425 38.425 0 0 0 13.283 4.514l-22.315 84.739h-7.966l-3.724-10.565zm42.608-33.819c0 13.091-10.65 23.741-23.741 23.741s-23.741-10.65-23.741-23.741 10.65-23.741 23.741-23.741 23.741 10.65 23.741 23.741zM443.458 79.283c0 7.458-6.067 13.525-13.524 13.525h-43.396l23.394-46.729h33.526zM77.238 46.079h56.159l-23.394 46.729H90.762c-7.457 0-13.524-6.067-13.524-13.525zM51.709 253.2c0-13.091 10.65-23.741 23.741-23.741s23.741 10.65 23.741 23.741-10.65 23.741-23.741 23.741-23.741-10.65-23.741-23.741zm53.112 128.663-23.787-90.329a38.425 38.425 0 0 0 13.299-4.523l25.535 96.4h-14.809a7.572 7.572 0 0 0-.238-1.548zm-50.665 36.878H74.92v13.5H43.139c.372-.763.834-1.484 1.39-2.139zm44.704 77.887H42.094v-16.219h62.145a50.012 50.012 0 0 0-5.379 16.219zm94.082-16.219h87.577v16.219h-82.197a50.038 50.038 0 0 0-5.38-16.219zm113.592 16.219h-11.015v-16.219h16.394a50.012 50.012 0 0 0-5.379 16.219zm17.65-31.219h-28.665v-74.136h72.654a9.702 9.702 0 0 0 7.908-4.092 9.7 9.7 0 0 0 1.228-8.815l-8.544-24.239c-5.347-15.169-19.745-25.36-35.828-25.36h-93.21a37.967 37.967 0 0 0-31.342 16.523l-21.112 30.825a9.665 9.665 0 0 0-.574 9.99 9.664 9.664 0 0 0 8.568 5.168h85.252v74.136h-99.847a50.12 50.12 0 0 0-32.082-11.568 50.127 50.127 0 0 0-32.081 11.568H42.094v-18.168h35.17c6.979 0 12.656-5.678 12.656-12.657v-18.186c0-6.979-5.678-12.657-12.656-12.657H66.868l1.441-1.701a10.252 10.252 0 0 1 7.835-3.63h70.457c4.521 0 8.745-2.227 11.302-5.958l13.778-20.119a7.5 7.5 0 1 0-12.375-8.476l-13.391 19.552h-10.531l-28.503-107.603c4.593-6.368 7.31-14.174 7.31-22.607 0-9.338-3.321-17.914-8.844-24.611l31.431-85.236c9.634-.334 17.373-8.254 17.373-17.967v-17.577h64.356l.026.001.021-.001h2.846v17.577c0 9.402 7.249 17.131 16.449 17.921v63.268c-10.106 6.999-16.743 18.669-16.743 31.865s6.637 24.867 16.743 31.865v28.49a67.952 67.952 0 0 0-54.217 29.543l-6.257 9.136a7.5 7.5 0 1 0 12.375 8.476l6.258-9.136a52.96 52.96 0 0 1 43.718-23.047h93.21c22.435 0 42.518 14.216 49.976 35.374l11.628 32.988a13.719 13.719 0 0 0 12.919 9.145h16.74c14.397 0 27.239 6.754 35.549 17.251h-4.911c-9.976 0-18.092 8.116-18.092 18.092v38.793h-48.399a50.12 50.12 0 0 0-32.082-11.568 50.115 50.115 0 0 0-32.08 11.568zm-28.665-121.643h37.418c9.732 0 18.446 6.167 21.682 15.347l6.048 17.16H295.52v-32.507zm-15 32.506h-75.174l15.416-22.508a22.975 22.975 0 0 1 18.966-9.999h40.792zm125.478 120.356a50.014 50.014 0 0 0-5.38-16.219h68.917v16.219z" fill="#000000" opacity="1" data-original="#000000" class=""></path><path d="M259.848 247.828a7.5 7.5 0 0 0 7.5-7.5v-2.889c0-4.142-3.357-7.5-7.5-7.5s-7.5 3.358-7.5 7.5v2.889a7.5 7.5 0 0 0 7.5 7.5zM436.746 252.2v2.889c0 4.142 3.357 7.5 7.5 7.5s7.5-3.358 7.5-7.5V252.2c0-4.142-3.357-7.5-7.5-7.5s-7.5 3.358-7.5 7.5zM82.951 255.089V252.2c0-4.142-3.357-7.5-7.5-7.5s-7.5 3.358-7.5 7.5v2.889c0 4.142 3.357 7.5 7.5 7.5s7.5-3.358 7.5-7.5z" fill="#000000" opacity="1" data-original="#000000" class=""></path></g></svg>