<svg xmlns="http://www.w3.org/2000/svg" version="1.1" xmlns:xlink="http://www.w3.org/1999/xlink" width="512" height="512" x="0" y="0" viewBox="0 0 512 512" style="enable-background:new 0 0 512 512" xml:space="preserve" class=""><g><path d="M269.806 453.926c-1.824-3.914-5.676-6.35-9.992-6.263-55.025 1.104-110.422-21.03-149.753-66.885-59.309-69.146-61.328-173.095-4.419-244.228 72.663-90.824 206.165-96.272 286.122-16.314 38.371 38.371 56.88 89.064 55.9 139.454-.085 4.315 2.353 8.164 6.262 9.993 13.802 6.457 26.578 15.065 37.637 25.879a10.6 10.6 0 0 0 10.958 2.448 10.679 10.679 0 0 0 7.083-8.708c2.081-16.22 2.762-29.023 2.216-41.671C506.2 117.322 403.3 9.09 273.148.563 113.313-9.909-18.124 127.25 2.052 288.783c15.5 124.105 121.628 218.576 246.617 223.085 12.458.449 25.007-.228 40.643-2.273a10.663 10.663 0 0 0 8.708-7.083 10.68 10.68 0 0 0-2.458-10.948c-10.849-11.104-19.337-23.862-25.756-37.638z" fill="#448aff" opacity="1" data-original="#000000" class=""></path><path d="M397.104 236.698a10.67 10.67 0 0 0-4.667 11.708 10.699 10.699 0 0 0 9.771 7.99c3.945.211 7.862.6 11.742 1.154 6.759.961 12.605-4.482 12.223-11.298-2.267-40.4-18.695-80.133-49.493-110.931-68.484-68.484-181.176-66.486-247.078 5.999-59.354 65.28-58.208 168.008 2.488 232.042 31.355 33.081 72.689 50.609 114.704 52.833 6.643.352 11.677-5.52 10.723-12.104l-.03-.214c-.715-5.104-5.169-8.944-10.315-9.251-13.586-.81-25.487-2.867-36.355-6.302-4.663-1.474-8.022-6.354-7.673-11.232C205.929 348.201 228.123 320 256 320c3.521 0 7.167.604 11.5 1.885 1 .302 2.021.448 3.042.448 3.5 0 6.854-1.729 8.875-4.75.875-1.313 1.833-2.552 2.771-3.802.021-.021 1.271-1.677 1.292-1.698a10.658 10.658 0 0 0-.021-12.813c-2.854-3.792-7.854-5.229-12.333-3.542-5.083 1.948-10.188 2.938-15.125 2.938-23.521 0-42.667-19.135-42.667-42.667 0-22.146 17.417-40.729 39.667-42.323 1.063-.073 4.938-.073 6 0 22.25 1.594 39.667 20.177 39.667 42.323 0 4.938-.979 10.031-2.917 15.125a10.688 10.688 0 0 0 3.521 12.313c3.771 2.865 9 2.896 12.813.052a138.332 138.332 0 0 1 36.042-19.313c4.521-1.604 7.396-6.031 7.063-10.802a10.684 10.684 0 0 0-8.542-9.698c-10.021-2.021-18.146-5.927-23.521-11.302-18.083-18.073-10.542-49.208 20.167-83.281 1.917-2.125 4.646-3.406 7.938-3.531 2.729 0 5.333 1.042 7.333 2.927 22.146 20.948 37.167 47.604 43.438 77.125.934 4.292-1.003 8.647-4.899 11.084zM168.708 364.584a10.734 10.734 0 0 1-7.5 3.521l-.438.01a10.661 10.661 0 0 1-7.333-2.927C131.291 344.24 116.27 317.573 110 288.052c-1.021-4.677 1.271-9.49 5.521-11.688 9.979-5.156 22.396-8 34.938-8 16.438 0 30.083 4.594 38.417 12.927 18.061 18.063 10.519 49.199-20.168 83.293zm20.167-132.198c-8.333 8.323-21.979 12.917-38.417 12.917-12.542 0-24.958-2.844-34.938-8-4.25-2.198-6.542-7.01-5.521-11.688v-.01c6.271-29.51 21.292-56.167 43.438-77.115 1.979-1.875 4.563-2.917 7.708-2.917h.063a10.734 10.734 0 0 1 7.5 3.521c30.708 34.073 38.25 65.208 20.167 83.292zm120-106.886c-2.583 37.417-23.104 64.927-49.917 66.906-1.042.073-4.875.073-5.917 0-26.813-1.979-47.333-29.49-49.917-66.885-.333-4.927 2.708-9.417 7.396-10.906 14.771-4.719 30.083-7.115 45.479-7.115s30.708 2.396 45.479 7.104c4.688 1.5 7.73 5.99 7.397 10.896zM394.666 373.334c-1.842 0-3.491.611-5.198 1.052l-19.219-19.219c-4.167-4.167-10.917-4.167-15.083 0-4.167 4.167-4.167 10.917 0 15.083l19.219 19.219c-.441 1.707-1.052 3.355-1.052 5.198 0 11.76 9.563 21.333 21.333 21.333 11.771 0 21.333-9.573 21.333-21.333.001-11.761-9.562-21.333-21.333-21.333z" fill="#448aff" opacity="1" data-original="#000000" class=""></path><path d="M394.666 277.334c-64.688 0-117.333 52.635-117.333 117.333 0 16.156 3.333 31.948 9.896 46.948C305.937 484.375 348.125 512 394.666 512c46.542 0 88.729-27.625 107.438-70.385 6.563-15 9.896-30.792 9.896-46.948 0-64.698-52.646-117.333-117.334-117.333zm85.334 128h9.555c-.828 7.257-2.441 14.371-4.938 21.333H304.716c-2.496-6.962-4.109-14.077-4.938-21.333h9.555A10.66 10.66 0 0 0 320 394.667 10.66 10.66 0 0 0 309.333 384h-9.589c2.073-18.423 9.233-35.15 20.25-48.922l3.13 3.13a10.634 10.634 0 0 0 7.542 3.125c2.729 0 5.458-1.042 7.542-3.125 4.167-4.167 4.167-10.917 0-15.083l-3.13-3.13c13.772-11.017 30.499-18.177 48.922-20.25v9.589a10.66 10.66 0 0 0 10.667 10.667 10.66 10.66 0 0 0 10.667-10.667v-9.589c18.423 2.073 35.15 9.233 48.922 20.25l-3.13 3.13c-4.167 4.167-4.167 10.917 0 15.083a10.634 10.634 0 0 0 7.542 3.125c2.729 0 5.458-1.042 7.542-3.125l3.13-3.13c11.017 13.772 18.177 30.499 20.25 48.922H480a10.66 10.66 0 0 0-10.667 10.667A10.66 10.66 0 0 0 480 405.334z" fill="#448aff" opacity="1" data-original="#000000" class=""></path></g></svg>