<svg xmlns="http://www.w3.org/2000/svg" version="1.1" xmlns:xlink="http://www.w3.org/1999/xlink" width="512" height="512" x="0" y="0" viewBox="0 0 485.072 485" style="enable-background:new 0 0 512 512" xml:space="preserve" class=""><g><path fill="#2488ff" d="M56 248.035c0 101.621 82.379 184 184 184v-368c-101.621 0-184 82.38-184 184zm0 0" opacity="1" data-original="#2488ff" class=""></path><path fill="#3893ff" d="M240 64.035v368c101.621 0 184-82.379 184-184s-82.379-184-184-184zm0 0" opacity="1" data-original="#3893ff" class=""></path><path d="M338.559 403.395v-.016h-.008zm0 0" fill="#000000" opacity="1" data-original="#000000" class=""></path><path fill="#4e901e" d="M199.68 68.645h-.055c-78.105 17.578-135.875 83.64-142.89 163.39h21.378a16.006 16.006 0 0 1 14.313 8.848l9.367 18.73a7.996 7.996 0 0 0 7.152 4.422h8.446a7.992 7.992 0 0 0 6.39-3.18 8.006 8.006 0 0 0 1.309-7.02l-10.18-35.6a7.996 7.996 0 0 1 1.309-7.016 7.996 7.996 0 0 1 6.39-3.184h15.79a15.98 15.98 0 0 0 10-3.504l26.113-20.886a16.005 16.005 0 0 0 4.687-18.81l-13.703-32c-3.14-7.347-.375-15.882 6.473-20l20.152-12.089a15.99 15.99 0 0 0 7.766-13.91zm0 0" opacity="1" data-original="#4e901e" class=""></path><path d="m199.68 68.598-.055.062.055-.015zm0 0" fill="#000000" opacity="1" data-original="#000000" class=""></path><path fill="#7ed63e" d="M349.09 99.875a231.193 231.193 0 0 0-4.844-3.438L288 144.036l-25.602 19.2a16.109 16.109 0 0 0-6.398 12.8v8c.066 8.809 7.191 15.934 16 16a8 8 0 0 1 8 8v22.082a16.003 16.003 0 0 0 8.879 14.32l32 16a15.943 15.943 0 0 0 14.242 0l8.543-4.257 11.2-5.602a7.996 7.996 0 0 1 9.199 1.524l9.601 9.597a8.07 8.07 0 0 1 2.32 5.602v17.597a16.92 16.92 0 0 1-1.12 6L364 317.957a16.003 16.003 0 0 1-14.8 10.078h-11.278a16.001 16.001 0 0 0-14.32 8.88l-3.68 7.202a32.186 32.186 0 0 0 1.36 31.04l13.757 22.398 3.512 5.824c51.297-32.524 83.23-88.27 85.336-148.973 2.11-60.699-25.883-118.527-74.797-154.531zm0 0" opacity="1" data-original="#7ed63e" class=""></path><path fill="#5eac24" d="M180.848 392.035h20.527c4.242 0 8.313-1.687 11.313-4.687l22.625-22.625c3-3 4.687-7.067 4.687-11.313v-36.957c0-2.89-.785-5.73-2.273-8.21l-17.055-28.528a16.004 16.004 0 0 0-13.664-7.68h-22.45a16.003 16.003 0 0 0-13.312 7.13l-8.848 13.312a8.003 8.003 0 0 1-6.656 3.558H136a8 8 0 0 0-8 8v15.281c0 5.438-2.758 10.5-7.328 13.45l-31.246 20.949a184.693 184.693 0 0 0 62.734 56.043L172 394.73a16.007 16.007 0 0 1 8.848-2.695zm0 0" opacity="1" data-original="#5eac24"></path><path fill="#ed1c24" d="m336.398 41.813-28.277-28.29c-6.25-6.25-16.383-6.25-22.633 0s-6.25 16.383 0 22.633l28.29 28.282 39.597 39.597 39.594 39.602 28.289 28.277 11.308 11.32c6.25 6.25 16.383 6.25 22.633 0 6.25-6.246 6.25-16.379 0-22.629l-11.312-11.312L376 81.41zm0 0" opacity="1" data-original="#ed1c24" class=""></path><g fill="#d1d3d4"><path d="M308.96 146.262a32.004 32.004 0 0 0 9.321 24.504l6.809 6.804 28.285-73.535-39.598-39.597zM449.535 53.125l-6.808-6.809a31.993 31.993 0 0 0-24.504-9.32l-81.825 4.8L376 81.41zM392.969 182.262c0 4.242 1.687 8.308 4.687 11.308l6.633 6.633 16.969-28.289-28.29-28.277zm0 0" fill="#d1d3d4" opacity="1" data-original="#d1d3d4"></path></g><path fill="#9bc9ff" d="m392.969 143.637 28.289 28.277zm0 0" opacity="1" data-original="#9bc9ff"></path><path fill="#d1d3d4" d="M465.535 125.691c-3-3-7.066-4.687-11.312-4.687h-38.621l28.277 28.289 28.289-16.969zm0 0" opacity="1" data-original="#d1d3d4"></path><path d="M432 248.035c.004-11.11-.957-22.2-2.863-33.144l-15.762 2.754c11.734 67.25-16.477 135.218-72.383 174.39l-12.887-21.039a23.857 23.857 0 0 1-1.007-23.273l3.636-7.27a7.952 7.952 0 0 1 7.153-4.418h11.281a23.895 23.895 0 0 0 22.289-15.086l10.824-27.074a23.723 23.723 0 0 0 1.719-8.918v-17.602a15.909 15.909 0 0 0-4.688-11.32l-9.601-9.597a15.993 15.993 0 0 0-18.473-3l-19.687 9.847a8 8 0 0 1-7.153 0l-32-16a7.957 7.957 0 0 1-4.398-7.137v-22.113c0-8.836-7.164-16-16-16a8 8 0 0 1-8-8v-8a8.009 8.009 0 0 1 3.2-6.398l25.6-19.2-9.6-12.8-25.598 19.199a24.133 24.133 0 0 0-9.602 19.2v8c0 13.253 10.746 24 24 24v22.112a23.869 23.869 0 0 0 13.266 21.465l32 16a24.101 24.101 0 0 0 21.468 0l19.692-9.84 9.597 9.598v17.602a7.904 7.904 0 0 1-.574 2.968l-10.832 27.079a7.954 7.954 0 0 1-7.426 5.03h-11.28a23.858 23.858 0 0 0-21.462 13.266l-3.64 7.274a39.78 39.78 0 0 0 1.671 38.789l13.04 21.289c-49.282 28.371-109.262 31.082-160.903 7.281l9.817-6.554a8.032 8.032 0 0 1 4.414-1.36h20.52a23.831 23.831 0 0 0 16.976-7.031l22.625-22.625A23.847 23.847 0 0 0 248 353.402v-36.949c0-4.336-1.176-8.59-3.398-12.312l-17.09-28.578a24.138 24.138 0 0 0-20.504-11.528h-22.45a24.012 24.012 0 0 0-20 10.688l-8.84 13.312H136c-8.836 0-16 7.164-16 16v15.281a7.994 7.994 0 0 1-3.664 6.72l-24.961 16.097A174.942 174.942 0 0 1 64 248.035c0-2.68.078-5.344.2-8h13.913a7.96 7.96 0 0 1 7.153 4.426l9.367 18.773a15.916 15.916 0 0 0 14.312 8.801h8.446a15.992 15.992 0 0 0 12.793-6.355c3.03-4.012 4-9.211 2.617-14.043l-10.192-35.602h15.79a23.98 23.98 0 0 0 14.992-5.262l26.113-20.89a24.043 24.043 0 0 0 7.062-28.192l-13.695-32a8 8 0 0 1 3.242-10.015l20.145-12.086a24.1 24.1 0 0 0 11.652-20.867l-.133-11.703a175.65 175.65 0 0 1 77.727 2.93l4.098-15.427c-79.454-21.246-163.614 10.47-209.282 78.868-45.668 68.398-42.703 158.285 7.375 223.523 50.078 65.242 136.145 91.34 214.024 64.902S431.989 330.277 432 248.036zM191.8 78.805l.095 8.144a7.982 7.982 0 0 1-3.887 6.95l-20.153 12.09c-10.257 6.206-14.394 19.011-9.703 30.046l13.696 32a8.005 8.005 0 0 1-2.352 9.403l-26.113 20.886a7.997 7.997 0 0 1-4.985 1.711H122.61a15.995 15.995 0 0 0-12.793 6.36 15.99 15.99 0 0 0-2.617 14.042l10.192 35.598h-8.446l-9.37-18.734a23.858 23.858 0 0 0-21.462-13.266H65.68c9.632-69.086 59.066-126.008 126.12-145.23zm-91.241 276.43 24.449-15.758A23.916 23.916 0 0 0 136 319.317v-15.282h19.719a15.993 15.993 0 0 0 13.312-7.129l8.871-13.308a8.002 8.002 0 0 1 6.657-3.563h22.449a8.01 8.01 0 0 1 6.8 3.793l17.055 28.527a7.93 7.93 0 0 1 1.137 4.098v36.95c0 2.124-.84 4.163-2.344 5.663l-22.625 22.625a7.98 7.98 0 0 1-5.664 2.344h-20.52a24.019 24.019 0 0 0-13.327 4.04l-17.063 11.394a177.427 177.427 0 0 1-49.898-44.235zM16.543 255.82.586 256.934c.375 5.414.941 10.894 1.687 16.277l15.856-2.191a228.288 228.288 0 0 1-1.586-15.2zM40.8 137.453l-14.214-7.344a227.741 227.741 0 0 0-7.02 14.825l14.692 6.343a244.482 244.482 0 0 1 6.543-13.824zM20.734 286.074l-15.664 3.29c1.121 5.335 2.403 10.679 3.907 15.906l15.39-4.344a231.142 231.142 0 0 1-3.633-14.852zM20.535 194.965l-15.68-3.2c-1.078 5.301-2 10.743-2.718 16.15l15.855 2.12a219.262 219.262 0 0 1 2.543-15.07zM56.664 111.309l-13.09-9.215a242.441 242.441 0 0 0-8.957 13.719l13.68 8.296a223.072 223.072 0 0 1 8.367-12.8zM28.688 165.516l-15.086-5.313a241.095 241.095 0 0 0-4.915 15.633l15.426 4.266a217.576 217.576 0 0 1 4.575-14.586zM16.488 225.242l-16-1.039C.164 229.426 0 234.703 0 240.035v.512l16-.512c0-4.965.164-9.894.488-14.793zM29.016 315.484l-15.055 5.391a238.292 238.292 0 0 0 6.031 15.2l14.664-6.4a227.168 227.168 0 0 1-5.64-14.19zM75.91 87.547 64.191 76.66c-3.703 4-7.32 8.153-10.734 12.36l12.43 10.082A226.024 226.024 0 0 1 75.91 87.547zM208.8 18.203 206.56 2.348c-5.36.746-10.79 1.695-16.133 2.816l3.285 15.672a207.267 207.267 0 0 1 15.09-2.633zM239.266 16.035l-.067-16c-5.472 0-10.976.219-16.36.602l1.138 16c5.05-.403 10.144-.602 15.289-.602zM178.863 24.484 174.52 9.086a231.037 231.037 0 0 0-15.598 5l5.406 15.055a224.209 224.209 0 0 1 14.535-4.657zM98.191 66.637 88.062 54.254a237.392 237.392 0 0 0-12.308 10.789l10.95 11.664a224.578 224.578 0 0 1 11.487-10.07zM150.145 34.79l-6.403-14.657c-4.949 2.168-9.91 4.55-14.75 7.078l7.406 14.176c4.497-2.36 9.122-4.551 13.747-6.598zM123.09 48.926l-8.371-13.64a241.077 241.077 0 0 0-13.649 9.03l9.274 13.04c4.129-2.919 8.41-5.778 12.746-8.43zM329.398 445.484l6.403 14.664a237.47 237.47 0 0 0 14.758-7.046l-7.36-14.196a228.596 228.596 0 0 1-13.8 6.578zM403.742 392.883l11.7 10.93c3.71-4 7.335-8.13 10.765-12.344l-12.406-10.106a227.7 227.7 0 0 1-10.059 11.52zM381.426 413.758l10.11 12.398a249.723 249.723 0 0 0 12.327-10.761l-10.918-11.696a228.667 228.667 0 0 1-11.52 10.059zM423.055 369.172l13.066 9.265a236.156 236.156 0 0 0 8.992-13.699l-13.664-8.316a242.173 242.173 0 0 1-8.394 12.75zM356.488 431.402l8.313 13.657a245.145 245.145 0 0 0 13.672-8.993l-9.25-13.054a212.373 212.373 0 0 1-12.735 8.39zM300.656 455.723l4.32 15.41a241.168 241.168 0 0 0 15.61-4.961l-5.387-15.07c-4.8 1.734-9.672 3.261-14.543 4.62zM463.488 255.324l15.961 1.07c.367-5.421.551-10.925.551-16.359h-16c0 5.137-.172 10.235-.512 15.29zM459.367 285.59l15.672 3.2a241.731 241.731 0 0 0 2.762-16.145l-15.856-2.153a222.093 222.093 0 0 1-2.578 15.098zM451.152 315.012l15.07 5.351a237.075 237.075 0 0 0 4.954-15.617l-15.414-4.3a235.344 235.344 0 0 1-4.61 14.566zM438.953 343.059l14.207 7.37c2.504-4.8 4.871-9.8 7.04-14.8l-14.673-6.402a218.635 218.635 0 0 1-6.574 13.832zM41.238 343.438l-14.183 7.406c2.52 4.8 5.234 9.601 8.058 14.23l13.688-8.344a211.546 211.546 0 0 1-7.563-13.293zM88.8 426.438a242.271 242.271 0 0 0 13.055 9.894l9.2-13.098a234.469 234.469 0 0 1-12.2-9.23zM144.648 460.348a242.086 242.086 0 0 0 15.274 6.007l5.336-15.085a233.5 233.5 0 0 1-14.235-5.602zM115.543 445.285c4.672 2.84 9.48 5.535 14.297 8l7.351-14.219a223.536 223.536 0 0 1-13.343-7.488zM64.8 404.094c3.735 4 7.641 7.879 11.59 11.566l10.915-11.71a227.564 227.564 0 0 1-10.832-10.794zM57.176 369.5l-13.055 9.246c3.145 4.434 6.48 8.8 9.918 13.027l12.36-10.136c-3.2-3.922-6.294-8-9.223-12.137zM270.742 461.941l2.168 15.848c5.371-.738 10.8-1.664 16.145-2.777l-3.246-15.664a229.589 229.589 0 0 1-15.067 2.593zM207.61 477.867a221.58 221.58 0 0 0 16.292 1.602l1.067-16a223.372 223.372 0 0 1-15.2-1.528zM240.238 464.035v16c5.48 0 10.985-.191 16.371-.566l-1.097-16a203.61 203.61 0 0 1-15.274.566zM175.543 471.277a240.671 240.671 0 0 0 15.922 3.848l3.2-15.672a223.61 223.61 0 0 1-14.849-3.586zm0 0" fill="#000000" opacity="1" data-original="#000000" class=""></path><path d="M305.602 67.547 301 145.789a40.04 40.04 0 0 0 11.648 30.64l15.52 15.505 28.246-73.496 28.555 28.55v35.313A23.797 23.797 0 0 0 392 199.234l13.871 13.883 16.969-28.281 4.07 4.062a24.001 24.001 0 0 0 40.485-10.593 24.003 24.003 0 0 0-6.547-23.34l-4.063-4.067 28.285-16.972-13.87-13.89a23.806 23.806 0 0 0-16.97-7.032h-35.328L390.398 84.46l73.54-28.281-15.555-15.528a39.927 39.927 0 0 0-30.63-11.64l-78.241 4.601-25.735-25.746c-9.5-9.062-24.445-9.062-33.945 0-9.375 9.375-9.375 24.57 0 33.946zm16.527 95.504a24.065 24.065 0 0 1-5.16-16.328l3.765-64 23.329 23.328zm80.59 24.183a8.07 8.07 0 0 1-1.75-5V162.95l10.23 10.215zm51.504-58.254a8.07 8.07 0 0 1 5 1.75l-14.094 8.504-10.219-10.207zm-35.535-84a23.999 23.999 0 0 1 16.328 5.16l-57.032 21.934-23.328-23.328zM291.151 19.188c3.121-3.118 8.18-3.118 11.305 0L449.535 166.27a7.997 7.997 0 0 1 0 11.3 8.18 8.18 0 0 1-11.312 0L291.153 30.492a8.002 8.002 0 0 1 0-11.305zm0 0" fill="#000000" opacity="1" data-original="#000000" class=""></path></g></svg>