<svg xmlns="http://www.w3.org/2000/svg" version="1.1" xmlns:xlink="http://www.w3.org/1999/xlink" width="512" height="512" x="0" y="0" viewBox="0 0 480 480" style="enable-background:new 0 0 512 512" xml:space="preserve" class=""><g><path d="m16.543 255.785-15.957 1.11a239.67 239.67 0 0 0 1.687 16.28l15.856-2.19a228.288 228.288 0 0 1-1.586-15.2zM40.8 137.414l-14.214-7.344c-2.496 4.801-4.86 9.817-7.02 14.825l14.692 6.343a245.769 245.769 0 0 1 6.543-13.824zM20.734 286.04 5.07 289.327c1.121 5.336 2.403 10.68 3.907 15.902l15.39-4.343a230.393 230.393 0 0 1-3.633-14.848zM20.535 194.93l-15.68-3.203a240.96 240.96 0 0 0-2.718 16.152L17.992 210a219.262 219.262 0 0 1 2.543-15.07zM56.664 111.273l-13.09-9.218a243.95 243.95 0 0 0-8.957 13.722l13.68 8.293c2.64-4.36 5.457-8.664 8.367-12.797zM28.688 165.48l-15.086-5.312a240.338 240.338 0 0 0-4.915 15.633l15.426 4.262a218.184 218.184 0 0 1 4.575-14.583zM16.488 225.207l-16-1.039C.164 229.391 0 234.668 0 240v.512L16 240c0-4.965.164-9.895.488-14.793zM29.016 315.45l-15.055 5.39a238.292 238.292 0 0 0 6.031 15.2l14.664-6.4a228.13 228.13 0 0 1-5.64-14.19zM75.91 87.512 64.191 76.625c-3.703 4-7.32 8.152-10.734 12.36l12.43 10.078A225.94 225.94 0 0 1 75.91 87.511zM208.8 18.168 206.56 2.313c-5.36.742-10.79 1.695-16.133 2.816L193.71 20.8a205.177 205.177 0 0 1 15.09-2.633zM239.266 16l-.067-16c-5.472 0-10.976.215-16.36.602l1.138 16c5.05-.403 10.144-.602 15.289-.602zM178.863 24.45 174.52 9.046a235.56 235.56 0 0 0-15.598 5l5.406 15.058a221.827 221.827 0 0 1 14.535-4.656zM98.191 66.602 88.062 54.215a239.333 239.333 0 0 0-12.308 10.793l10.95 11.664a224.578 224.578 0 0 1 11.487-10.07zM150.145 34.754l-6.403-14.656c-4.949 2.168-9.91 4.55-14.75 7.078l7.406 14.176c4.497-2.36 9.122-4.551 13.747-6.598zM123.09 48.887l-8.371-13.64c-4.64 2.85-9.23 5.89-13.649 9.034l9.274 13.04c4.129-2.923 8.41-5.778 12.746-8.434zM329.398 445.45l6.403 14.663a237.52 237.52 0 0 0 14.758-7.05l-7.36-14.192a228.597 228.597 0 0 1-13.8 6.578zM403.742 392.848l11.7 10.93c3.71-4 7.335-8.13 10.765-12.344l-12.406-10.106a227.7 227.7 0 0 1-10.059 11.52zM381.426 413.719l10.11 12.402a251.794 251.794 0 0 0 12.327-10.762l-10.918-11.695a226.634 226.634 0 0 1-11.52 10.055zM423.055 369.137l13.066 9.261a234.735 234.735 0 0 0 8.992-13.695l-13.664-8.32a240.663 240.663 0 0 1-8.394 12.754zM356.488 431.367l8.313 13.656a245.146 245.146 0 0 0 13.672-8.992l-9.25-13.054a216.234 216.234 0 0 1-12.735 8.39zM300.656 455.688l4.32 15.41a241.169 241.169 0 0 0 15.61-4.961l-5.387-15.074c-4.8 1.738-9.672 3.265-14.543 4.625zM463.488 255.29l15.961 1.07c.367-5.423.551-10.926.551-16.36h-16c0 5.137-.172 10.23-.512 15.29zM459.367 285.55l15.672 3.204a241.731 241.731 0 0 0 2.762-16.145l-15.856-2.152a221.566 221.566 0 0 1-2.578 15.094zM451.152 314.977l15.07 5.351a237.075 237.075 0 0 0 4.954-15.617l-15.414-4.305a234.62 234.62 0 0 1-4.61 14.57zM438.953 343.023l14.207 7.368a229.192 229.192 0 0 0 7.04-14.797l-14.673-6.403a218.635 218.635 0 0 1-6.574 13.832zM41.238 343.398l-14.183 7.41c2.52 4.801 5.234 9.598 8.058 14.231l13.688-8.344a212.756 212.756 0 0 1-7.563-13.297zM88.8 426.398a240.323 240.323 0 0 0 13.055 9.899l9.2-13.098a234.47 234.47 0 0 1-12.2-9.23zM144.648 460.313a242.086 242.086 0 0 0 15.274 6.007l5.336-15.09c-4.801-1.71-9.602-3.59-14.235-5.597zM115.543 445.246c4.672 2.844 9.48 5.54 14.297 8l7.351-14.215a223.536 223.536 0 0 1-13.343-7.488zM64.8 404.055c3.735 4 7.641 7.882 11.59 11.57l10.915-11.715a225.654 225.654 0 0 1-10.832-10.789zM57.176 369.465 44.12 378.71c3.145 4.434 6.48 8.8 9.918 13.023l12.36-10.132c-3.2-3.922-6.294-8-9.223-12.137zM270.742 461.902l2.168 15.852c5.371-.738 10.8-1.664 16.145-2.777l-3.246-15.664a229.56 229.56 0 0 1-15.067 2.59zM207.61 477.832a223.734 223.734 0 0 0 16.292 1.602l1.067-16a223.366 223.366 0 0 1-15.2-1.532zM240.238 464v16c5.48 0 10.985-.191 16.371-.566l-1.097-16a203.61 203.61 0 0 1-15.274.566zM175.543 471.238a238.271 238.271 0 0 0 15.922 3.852l3.2-15.676a223.578 223.578 0 0 1-14.849-3.582zM454.238 159.602c6.254 6.25 6.254 16.386 0 22.636-6.25 6.254-16.386 6.254-22.636 0l-11.282-11.277-16.96 28.238-6.641-6.64A15.736 15.736 0 0 1 392 181.28v-38.64l-39.602-39.602-28.238 73.52-6.879-6.797a32.096 32.096 0 0 1-9.281-24.48l4.8-81.84-28.241-28.32c-6.227-6.231-6.227-16.333 0-22.563 6.23-6.227 16.332-6.227 22.562 0l28.32 28.242L417.281 36a32.096 32.096 0 0 1 24.48 9.281l6.798 6.88-73.52 28.237L414.641 120h38.64a15.736 15.736 0 0 1 11.278 4.719l6.64 6.64-28.238 16.961zM201.367 376c2.125 0 4.164-.84 5.664-2.344l22.625-22.625a7.996 7.996 0 0 0 2.344-5.664v-36.953c0-1.441-.39-2.855-1.137-4.094l-17.054-28.527a8.001 8.001 0 0 0-6.801-3.793h-22.45a8.008 8.008 0 0 0-6.656 3.559l-8.87 13.312A15.993 15.993 0 0 1 155.718 296H136v15.281a23.92 23.92 0 0 1-10.992 20.168l-24.45 15.75a177.46 177.46 0 0 0 49.899 44.227l17.063-11.395A24.011 24.011 0 0 1 180.848 376zm0 0" fill="#448aff" opacity="1" data-original="#000000" class=""></path><path d="M240 64a175.361 175.361 0 0 0-32.238 3.016l.133 11.703a24.095 24.095 0 0 1-11.657 20.867l-20.14 12.086a7.997 7.997 0 0 0-3.243 10.016l13.696 32a24.043 24.043 0 0 1-7.063 28.19l-26.113 20.892a24 24 0 0 1-14.977 5.23H122.61l10.192 35.602A16.003 16.003 0 0 1 117.39 264h-8.446a15.916 15.916 0 0 1-14.312-8.8l-9.367-18.735A7.953 7.953 0 0 0 78.113 232H64.2c-.12 2.656-.199 5.32-.199 8a174.942 174.942 0 0 0 27.375 94.098L116.335 318a7.994 7.994 0 0 0 3.665-6.719V296c0-8.836 7.164-16 16-16h19.719l8.875-13.313A23.994 23.994 0 0 1 184.559 256h22.449a24.138 24.138 0 0 1 20.504 11.527l17.09 28.578a24.004 24.004 0 0 1 3.398 12.31v36.952a23.847 23.847 0 0 1-7.031 16.977l-22.625 22.625A23.831 23.831 0 0 1 201.367 392h-20.52a8.03 8.03 0 0 0-4.44 1.344l-9.813 6.55c51.64 23.805 111.62 21.09 160.902-7.277l-13.039-21.289a39.786 39.786 0 0 1-1.672-38.793l3.64-7.27A23.858 23.858 0 0 1 337.888 312h11.281a7.954 7.954 0 0 0 7.426-5.031l10.832-27.082c.379-.942.574-1.95.574-2.965V259.32l-9.602-9.601-19.687 9.84a24.085 24.085 0 0 1-21.473 0l-32-16A23.855 23.855 0 0 1 272 222.113V200c-13.254 0-24-10.746-24-24v-8a24.121 24.121 0 0 1 9.602-19.2L303 111.415l2.047-34.84A174.713 174.713 0 0 0 240 64zm0 0" fill="#448aff" opacity="1" data-original="#000000" class=""></path><path d="M392 199.2a23.806 23.806 0 0 1-7.031-16.97v-35.32l-28.555-28.512-28.27 73.54-15.519-15.504a40.04 40.04 0 0 1-11.648-30.641l.742-12.578-34.52 28.387A7.998 7.998 0 0 0 264 168v8a8 8 0 0 0 8 8c8.836 0 16 7.164 16 16v22.113a7.96 7.96 0 0 0 4.426 7.153l32 16a7.992 7.992 0 0 0 7.148 0l19.692-9.852a16 16 0 0 1 18.468 3l9.602 9.602c3 2.992 4.676 7.058 4.664 11.297v17.597a23.743 23.743 0 0 1-1.719 8.922l-10.824 27.07A23.896 23.896 0 0 1 349.168 328h-11.281a7.96 7.96 0 0 0-7.153 4.426l-3.636 7.27a23.857 23.857 0 0 0 1.007 23.273L340.992 384c58.055-40.5 86.063-111.938 71.008-181.105l-6.113 10.175zM78.113 216a23.858 23.858 0 0 1 21.461 13.266L108.945 248h8.446l-10.192-35.602A16.003 16.003 0 0 1 122.61 192h15.79c1.82 0 3.581-.617 5-1.754l26.113-20.887a7.995 7.995 0 0 0 2.336-9.359l-13.696-32c-4.683-11.035-.55-23.832 9.703-30.04L188 85.864a7.997 7.997 0 0 0 3.887-6.953l-.094-8.14C124.743 89.992 75.313 146.918 65.68 216zm0 0" fill="#448aff" opacity="1" data-original="#000000" class=""></path></g></svg>