<svg xmlns="http://www.w3.org/2000/svg" version="1.1" xmlns:xlink="http://www.w3.org/1999/xlink" width="512" height="512" x="0" y="0" viewBox="0 0 512 512" style="enable-background:new 0 0 512 512" xml:space="preserve" class=""><g><path fill="#448aff" d="M205.2 93.8c-50.9-21.7-110 2-131.7 52.9s1.9 110 52.8 131.7c49.6 21.6 109.9-1.5 131.7-52.8 21.7-50.9-1.9-110-52.8-131.8zm42 127.1c-19.2 45-71.4 65.9-116.3 46.7-106.2-50.6-40.3-204.7 69.6-163 45 19.2 65.9 71.4 46.7 116.3z" opacity="1" data-original="#1583df" class=""></path><path fill="#448aff" d="M496.5 227.8v-61.6c.2-21.2-11.1-42.2-28.7-53.6l16.8-4.5c7-1.9 12-8.3 12-15.6v-4.3c0-8.2-6.7-14.9-14.9-14.9h-41.1l-25.3-55.6c-4.6-10.3-15-17-26.5-17H206.2c-11.4 0-21.9 6.7-26.6 17l-17.8 39c-126.3 4.1-173 169.6-65.4 238.6L74 347.7c-8.2-3.3-17.6.6-21 8.7l-49.6 116c-3.6 8.3.3 17.9 8.6 21.5l37.5 16c2.1.9 4.2 1.3 6.4 1.3 6.5 0 12.6-4 15.1-9.9l26.1-61c0-.1 11.7-27.1 11.6-27.1l11.9-27.9c3.5-7.8-.3-17.9-8.2-21.2l22.3-52.4c45.9 11.9 96.1-3.9 127.4-39.2h137v21.2c0 9.1 7.4 16.6 16.6 16.6h43.2c9.1 0 16.6-7.4 16.6-16.6v-21.2h11c24.9.3 32.7-34.5 10-44.7zm-13.6-75.3c2.6 8.4 1.7 23.5 1.8 32.2h-41c-9.9 0-17.9-8.1-17.9-18V158c0-3.2 2.5-5.6 5.7-5.6h51.3c.1 0 .1.1.1.1zM481.6 85c4 0 3.1 4.9 3.2 7.5 0 2-1.3 3.8-3.3 4.3l-26.9 7.3-8.7-19h35.7zM190.3 22.5c2.9-6.2 9.1-10.1 15.9-10.1h182.5c6.9 0 13.1 4 15.8 10.1l41.3 90.8c.9 1.5 2.1 2.7 3.8 3.2 12.2 4.3 22.2 13 28.4 24.1h-46.5c-9.6 0-17.4 7.7-17.4 17.3v8.7c0 16.4 13.3 29.7 29.7 29.7h41v29h-89.9l-20.5-25.7c-4.5-5.7-11.7-9.2-19-9.2h-60.2c.4-11.4-.8-22.8-3.3-33.9h68.8c3.2 0 5.9-2.6 5.9-5.9 0-3.2-2.6-5.9-5.9-5.9h-72.2c-3.3-9.9-7.9-19.3-13.4-28.1h148.6c4 .1 7.2-4.5 5.3-8.3l-36.2-79.2c-1-2.1-3-3.5-5.3-3.5H207.3c-2.3 0-4.3 1.3-5.3 3.5l-13.4 29.4c-4.6-.8-9.3-1.3-14-1.8zm189.5 203h-90.7c2.4-7.6 4.1-15.3 5.1-23.2h61.1c3.9 0 7.5 1.8 9.8 4.7zM266.7 105.1c-16.8-21.1-40.4-36.5-66.3-43.7l10.8-23.8h172.6l30.8 67.5zM60.2 496.8c-.9 2.3-3.8 3.4-6.1 2.5l-37.5-16.1c-2.4-1-3.5-3.8-2.4-6.1l23.7-55.6L84 441.2zm28.3-66.4-46-19.7 7-16.4 46 19.7zm21.3-49.6-9.6 22.5-46.1-19.7 9.6-22.5c1.1-2.3 3.8-3.5 6.1-2.5l37.6 16.1c2.2.9 3.4 3.8 2.4 6.1zm-8.2-21.3-16.8-7.2 21.8-50.9c5.3 2.7 11.1 5.2 16.7 7.2zM258.2 259C171.6 364.6 6.1 268 57.4 139.8 94 53.9 211.8 44.1 263 119.9c29 41 26.5 100-4.8 139.1zm205.6 34.8c0 2.6-2.2 4.9-4.9 4.9h-43.2c-2.7 0-4.9-2.2-4.9-4.9v-21.2h52.9v21.2zm31.2-36.4c-2.3 2.2-5.3 3.5-8.4 3.5h-215c5-7.4 9.5-15.1 13.1-23.4H489c9 1.5 12.6 13.6 6 19.9z" opacity="1" data-original="#1583df" class=""></path><path fill="#448aff" d="m109.8 380.8-9.6 22.5-46.1-19.7 9.6-22.5c1.1-2.3 3.8-3.5 6.1-2.5l37.6 16.1c2.2.9 3.4 3.8 2.4 6.1zM84 441.2l-23.8 55.6c-.9 2.3-3.8 3.4-6.1 2.5l-37.5-16.1c-2.4-1-3.5-3.8-2.4-6.1l23.7-55.6zM498.4 249c.1 6.4-5.5 12-11.9 11.8H271.6c5-7.4 9.5-15.1 13.1-23.4H489c5.4 1.2 9.4 6 9.4 11.6zM484.8 196.5v29h-89.9l-20.5-25.7c-4.5-5.7-11.7-9.2-19-9.2h-60.2c.4-11.4-.8-22.8-3.3-33.9h68.8c3.2 0 5.9-2.6 5.9-5.9 0-3.2-2.6-5.9-5.9-5.9h-72.2c-3.3-9.9-7.9-19.3-13.4-28.1h148.6c4 .1 7.2-4.5 5.3-8.3l-36.2-79.2c-1-2.1-3-3.5-5.3-3.5H207.3c-2.3 0-4.3 1.3-5.3 3.5l-13.4 29.4c-4.6-.8-9.3-1.3-14-1.8l15.6-34.3c2.9-6.2 9.1-10.1 15.9-10.1h182.5c6.9 0 13.1 4 15.8 10.1.2.2 41.2 91 41.5 91 .8 1.5 2.1 2.5 3.6 3 12.2 4.3 22.2 13 28.4 24.1h-46.5c-9.6 0-17.4 7.7-17.4 17.3v8.7c0 16.4 13.3 29.7 29.7 29.7h41.1z" opacity="1" data-original="#9bc8ff" class=""></path><path fill="#448aff" d="M195.2 214.2c4.2 6.4 14 .1 9.9-6.3l-32-49.9c-4.2-6.4-14-.1-9.9 6.3 0 .1 32 49.9 32 49.9zM163.3 216.9c4.5.1 7.5-5.3 4.9-9l-32-49.9c-4.2-6.4-14-.1-9.9 6.3l32 49.9c1.2 1.8 3.1 2.7 5 2.7z" opacity="1" data-original="#1583df" class=""></path></g></svg>